<?xml version="1.0" encoding="utf-8"?>
<!-- Generator: Adobe Illustrator 19.2.1, SVG Export Plug-In . SVG Version: 6.00 Build 0)  -->
<svg version="1.1" id="Capa_1" xmlns="http://www.w3.org/2000/svg" xmlns:xlink="http://www.w3.org/1999/xlink" x="0px" y="0px"
	 viewBox="0 0 50 17.8" style="enable-background:new 0 0 50 17.8;" xml:space="preserve">
<style type="text/css">
	.st0{fill:#FFFFFF;}
	.st1{fill:#8077AC;}
</style>
<g>
	<g>
		<rect x="4.1" y="4.5" class="st0" width="43.9" height="11.9"/>
		<path class="st1" d="M48.3,16.7H3.8V4.2h44.6L48.3,16.7L48.3,16.7z M4.4,16.1h43.2V4.8H4.4V16.1z"/>
	</g>
	<g>
		<rect x="2" y="1.8" class="st0" width="43.9" height="11.9"/>
		<path class="st1" d="M46.2,14H1.7V1.5h44.6L46.2,14L46.2,14z M2.3,13.4h43.2V2.1H2.3V13.4z"/>
	</g>
	<g>
		<path class="st1" d="M11.8,9.9c-0.3,0.2-0.8,0.5-1.6,0.5S8.9,10,8.9,9.2c0-0.1,0-0.2,0-0.2l0.3-2.2c0.1-0.9,0.5-1.4,1.5-1.4
			c0.7,0,1.2,0.3,1.5,0.5V5.7c0-0.2,0.1-0.2,0.3-0.2h0.8c0.1,0,0.2,0.1,0.2,0.2l-0.4,4.4c0,0.2-0.1,0.3-0.3,0.3H12
			c-0.1,0-0.2-0.1-0.2-0.3V9.9z M10.3,8.8v0.1c0,0.2,0.1,0.4,0.5,0.4c0.5,0,0.9-0.3,1.2-0.4L12.2,7c-0.2-0.2-0.6-0.4-1.1-0.4
			c-0.4,0-0.6,0.2-0.6,0.5L10.3,8.8z"/>
		<path class="st1" d="M16.1,10.1c0,0.2-0.1,0.3-0.3,0.3H15c-0.2,0-0.2-0.1-0.2-0.3l0.8-6.3c0-0.2,0.1-0.3,0.3-0.3h0.8
			c0.2,0,0.2,0.1,0.2,0.3L16.1,10.1z"/>
		<path class="st1" d="M24.6,6.7c0,0.1,0,0.1,0,0.2V7c0,0.2-0.1,0.2-0.3,0.2h-0.7c-0.2,0-0.2-0.1-0.2-0.2V6.9c0-0.1,0-0.1,0-0.1
			c0-0.3-0.2-0.4-0.7-0.4c-0.6,0-0.8,0.2-0.8,0.5l-0.2,1.8c0,0.1,0,0.2,0,0.2c0,0.3,0.2,0.4,0.7,0.4c0.6,0,0.8-0.2,0.8-0.5V8.7
			c0-0.2,0.1-0.2,0.3-0.2h0.7c0.2,0,0.2,0.1,0.2,0.2v0.2c-0.1,0.9-0.6,1.4-2.1,1.4c-1.3,0-1.9-0.5-1.9-1.2c0-0.1,0-0.1,0-0.2
			l0.3-2.1c0.1-0.9,0.7-1.4,2.2-1.4C24.1,5.5,24.6,6,24.6,6.7z"/>
		<path class="st1" d="M26,6.9c0.1-0.9,0.8-1.4,2.2-1.4c1.3,0,2,0.5,2,1.3c0,0.1,0,0.1,0,0.2L30,9c-0.1,0.9-0.8,1.4-2.2,1.4
			c-1.3,0-2-0.5-2-1.3c0,0,0-0.1,0-0.2L26,6.9z M28.9,7.1c0-0.1,0-0.1,0-0.2c0-0.3-0.3-0.4-0.8-0.4S27.3,6.7,27.2,7L27,8.8
			c0,0.1,0,0.1,0,0.2c0,0.3,0.3,0.4,0.8,0.4s0.8-0.2,0.9-0.5L28.9,7.1z"/>
		<path class="st1" d="M32.8,10.1c0,0.2-0.1,0.3-0.3,0.3h-0.8c-0.2,0-0.2-0.1-0.2-0.3l0.8-6.3c0-0.2,0.1-0.3,0.3-0.3h0.8
			c0.2,0,0.2,0.1,0.2,0.3L32.8,10.1z"/>
		<path class="st1" d="M38.6,8c0,0.2-0.1,0.2-0.3,0.2h-2.5l-0.1,0.6c0,0.1,0,0.2,0,0.2c0,0.3,0.2,0.4,0.7,0.4c0.6,0,0.8-0.2,0.8-0.5
			V8.8c0-0.2,0.1-0.2,0.3-0.2h0.7c0.2,0,0.2,0.1,0.2,0.2v0.1c-0.1,0.8-0.6,1.4-2.1,1.4c-1.3,0-1.9-0.5-1.9-1.2c0-0.1,0-0.1,0-0.2
			l0.3-2.1c0.1-0.9,0.7-1.4,2.1-1.4c1.2,0,1.8,0.5,1.8,1.2c0,0.1,0,0.1,0,0.2V8z M36,7.4h1.5V7c0,0,0-0.1,0-0.2
			c0-0.3-0.2-0.4-0.7-0.4S36,6.6,36,6.9V7.4z"/>
	</g>
</g>
</svg>
