<?xml version="1.0" encoding="utf-8"?>
<!-- Generator: Adobe Illustrator 19.2.1, SVG Export Plug-In . SVG Version: 6.00 Build 0)  -->
<svg version="1.1" id="Capa_1" xmlns="http://www.w3.org/2000/svg" xmlns:xlink="http://www.w3.org/1999/xlink" x="0px" y="0px"
	 viewBox="0 0 50 15.2" style="enable-background:new 0 0 50 15.2;" xml:space="preserve">
<style type="text/css">
	.st0{fill:#FFFFFF;}
	.st1{fill:#5A7E9E;}
</style>
<g>
	<g>
		<g>
			<rect x="1.2" y="4.7" class="st0" width="43.7" height="9.5"/>
		</g>
		<g>
			<path class="st1" d="M45.1,14.4H1V4.5h44.2v9.9H45.1z M1.4,13.9h43.2v-9H1.4V13.9z"/>
		</g>
	</g>
	<g>
		<g>
			<rect x="2.9" y="2.9" class="st0" width="43.7" height="9.5"/>
		</g>
		<g>
			<path class="st1" d="M46.8,12.6H2.7V2.7h44.2v9.9H46.8z M3.2,12.2h43.2v-9H3.2V12.2z"/>
		</g>
	</g>
	<g>
		<g>
			<rect x="5.1" y="1" class="st0" width="43.7" height="9.5"/>
		</g>
		<g>
			<path class="st1" d="M49,10.7H4.9V0.8H49V10.7z M5.4,10.3h43.2v-9H5.4V10.3z"/>
		</g>
	</g>
	<g>
		<path class="st1" d="M13.1,8.2c-0.3,0.2-0.7,0.5-1.4,0.5c-0.8,0-1.2-0.4-1.2-1.1c0-0.1,0-0.1,0-0.2l0.2-1.9
			c0.1-0.8,0.5-1.3,1.4-1.3c0.7,0,1.1,0.3,1.4,0.5V4.5c0-0.1,0.1-0.2,0.2-0.2h0.7c0.1,0,0.2,0.1,0.2,0.2l-0.5,3.9
			c0,0.2-0.1,0.2-0.2,0.2h-0.7c-0.1,0-0.2-0.1-0.2-0.2L13.1,8.2z M11.7,7.2v0.1c0,0.2,0.1,0.3,0.4,0.3c0.4,0,0.9-0.3,1.1-0.4
			l0.2-1.7c-0.2-0.1-0.5-0.4-1-0.4c-0.4,0-0.5,0.2-0.5,0.5L11.7,7.2z"/>
		<path class="st1" d="M18.1,8.4c0,0.2-0.1,0.2-0.2,0.2h-0.7C17,8.6,17,8.5,17,8.4l0.7-5.7c0-0.2,0.1-0.2,0.2-0.2h0.7
			c0.2,0,0.2,0.1,0.2,0.2L18.1,8.4z"/>
		<path class="st1" d="M26.4,5.3c0,0.1,0,0.1,0,0.2v0.1c0,0.2-0.1,0.2-0.2,0.2h-0.7c-0.1,0-0.2-0.1-0.2-0.2V5.5c0-0.1,0-0.1,0-0.1
			c0-0.2-0.2-0.4-0.6-0.4C24.2,5,24,5.1,24,5.5l-0.2,1.6c0,0.1,0,0.2,0,0.2c0,0.3,0.2,0.4,0.6,0.4c0.5,0,0.7-0.1,0.7-0.5V7.1
			c0-0.2,0.1-0.2,0.2-0.2H26c0.2,0,0.2,0.1,0.2,0.2v0.2c-0.1,0.8-0.6,1.3-1.9,1.3c-1.2,0-1.7-0.4-1.7-1.1c0-0.1,0-0.1,0-0.2l0.2-1.9
			c0.1-0.8,0.6-1.3,1.9-1.3C25.9,4.2,26.4,4.6,26.4,5.3z"/>
		<path class="st1" d="M28.8,5.5c0.1-0.8,0.7-1.3,2-1.3c1.2,0,1.8,0.4,1.8,1.1c0,0.1,0,0.1,0,0.2l-0.2,1.9c-0.1,0.8-0.7,1.3-2,1.3
			c-1.2,0-1.8-0.4-1.8-1.2V7.4L28.8,5.5z M31.4,5.6c0-0.1,0-0.1,0-0.1c0-0.3-0.3-0.4-0.7-0.4c-0.5,0-0.8,0.1-0.8,0.5l-0.2,1.7
			c0,0.1,0,0.1,0,0.1c0,0.3,0.2,0.4,0.7,0.4s0.8-0.1,0.8-0.5L31.4,5.6z"/>
		<path class="st1" d="M36.1,8.4C36,8.6,36,8.6,35.8,8.6h-0.7c-0.2,0-0.2-0.1-0.2-0.2l0.7-5.7c0-0.2,0.1-0.2,0.2-0.2h0.7
			c0.2,0,0.2,0.1,0.2,0.2L36.1,8.4z"/>
		<path class="st1" d="M42.5,6.5c0,0.1-0.1,0.2-0.2,0.2H40v0.5c0,0.1,0,0.1,0,0.2c0,0.3,0.2,0.4,0.6,0.4c0.5,0,0.7-0.2,0.7-0.4V7.3
			c0-0.1,0.1-0.2,0.2-0.2h0.6c0.2,0,0.2,0.1,0.2,0.2v0.1c-0.1,0.8-0.5,1.3-1.9,1.3c-1.2,0-1.7-0.4-1.7-1.1c0-0.1,0-0.1,0-0.2
			l0.2-1.9c0.1-0.8,0.6-1.3,1.9-1.3c1.1,0,1.7,0.4,1.7,1.1c0,0.1,0,0.1,0,0.2V6.5z M40.1,5.9h1.4V5.6V5.5c0-0.3-0.2-0.4-0.6-0.4
			c-0.5,0-0.7,0.2-0.7,0.5L40.1,5.9z"/>
	</g>
</g>
</svg>
