<?xml version="1.0" encoding="utf-8"?>
<!-- Generator: Adobe Illustrator 19.2.1, SVG Export Plug-In . SVG Version: 6.00 Build 0)  -->
<svg version="1.1" id="Capa_1" xmlns="http://www.w3.org/2000/svg" xmlns:xlink="http://www.w3.org/1999/xlink" x="0px" y="0px"
	 viewBox="0 0 50 14.7" style="enable-background:new 0 0 50 14.7;" xml:space="preserve">
<style type="text/css">
	.st0{fill:#FFFFFF;}
	.st1{fill:#5A7E9E;}
</style>
<g>
	<g>
		<g>
			<rect x="1.4" y="4.6" class="st0" width="43.2" height="8.5"/>
		</g>
		<g>
			<path class="st1" d="M44.9,13.3H1.3V4.5h43.6C44.9,4.5,44.9,13.3,44.9,13.3z M1.6,13h42.9V4.9H1.6V13z"/>
		</g>
	</g>
	<g>
		<g>
			<rect x="3.2" y="3" class="st0" width="43.2" height="8.5"/>
		</g>
		<g>
			<path class="st1" d="M46.6,11.8H3V3h43.6V11.8z M3.3,11.4h42.9V3.3H3.3V11.4z"/>
		</g>
	</g>
	<g>
		<g>
			<rect x="5.3" y="1.4" class="st0" width="43.2" height="8.5"/>
		</g>
		<g>
			<path class="st1" d="M48.7,10H5.1V1.3h43.6C48.7,1.3,48.7,10,48.7,10z M5.5,9.6h42.9V1.5H5.5V9.6z"/>
		</g>
	</g>
	<g>
		<path class="st1" d="M7.9,7.6c-0.1,0-0.2,0-0.2-0.2l0.5-4.3c0-0.1,0.1-0.2,0.2-0.2h1.2c1.1,0,1.6,0.4,1.6,1c0,0,0,0.1,0,0.2v0.4
			c0,0.4-0.2,0.6-0.6,0.8c0.4,0.1,0.6,0.5,0.6,0.8v0.1l-0.1,0.5C11,7.3,10.6,7.8,9.3,7.8H7.9V7.6z M8.9,5.5L8.7,6.8h0.7
			c0.5,0,0.8-0.1,0.8-0.5V6c0-0.1,0-0.1,0-0.1c0-0.3-0.2-0.4-0.7-0.4H8.9z M9.1,3.6L9,4.9h0.5c0.4,0,0.7-0.1,0.8-0.5V4.1
			c0-0.1,0-0.1,0-0.1c0-0.3-0.2-0.4-0.7-0.4H9.1z"/>
		<path class="st1" d="M13.1,7.5c0,0.1-0.1,0.2-0.2,0.2h-0.6c-0.1,0-0.2-0.1-0.1-0.2l0.4-3.1c0-0.1,0.1-0.2,0.2-0.2h0.6
			c0.1,0,0.2,0,0.1,0.2L13.1,7.5z M13.5,3.5c0,0.1-0.1,0.2-0.2,0.2h-0.6c-0.1,0-0.2,0-0.1-0.2l0.1-0.6c0-0.1,0.1-0.2,0.2-0.2h0.6
			c0.1,0,0.2,0.1,0.1,0.2L13.5,3.5z"/>
		<path class="st1" d="M17.2,6c0,0.1-0.1,0.2-0.2,0.2h-1.8v0.4c0,0.1,0,0.1,0,0.2c0,0.2,0.1,0.3,0.5,0.3c0.4,0,0.6-0.1,0.6-0.4V6.6
			c0-0.1,0.1-0.2,0.2-0.2H17c0.1,0,0.2,0.1,0.1,0.2v0.1c-0.1,0.6-0.4,1-1.5,1c-0.9,0-1.3-0.3-1.3-0.9V6.7l0.2-1.5
			c0.1-0.6,0.5-1,1.5-1c0.9,0,1.3,0.3,1.3,0.9v0.1L17.2,6z M15.3,5.5h1.1V5.2V5.1c0-0.2-0.1-0.3-0.5-0.3s-0.6,0.1-0.6,0.4L15.3,5.5z
			"/>
		<path class="st1" d="M19.2,4.1c0.1,0,0.2,0,0.2,0.2v0.2c0.2-0.2,0.6-0.4,1.1-0.4s0.9,0.3,0.9,0.8c0,0,0,0.1,0,0.2l-0.3,2.3
			c0,0.1-0.1,0.2-0.2,0.2h-0.6c-0.1,0-0.2,0-0.2-0.2l0.3-2.1c0-0.1,0-0.1,0-0.2c0-0.2-0.1-0.3-0.3-0.3c-0.3,0-0.7,0.2-0.8,0.3
			L19,7.5c0,0.1-0.1,0.2-0.2,0.2h-0.6c-0.1,0-0.2,0-0.1-0.2l0.4-3.1c0-0.1,0.1-0.2,0.2-0.2H19.2z"/>
		<path class="st1" d="M23.1,7.6c-0.1,0-0.1,0-0.2-0.2l-0.7-3.1c0-0.1,0.1-0.2,0.2-0.2H23c0.1,0,0.1,0.1,0.2,0.2l0.3,1.6
			c0,0.2,0.1,0.6,0.1,0.6s0.1-0.4,0.2-0.6l0.7-1.6c0-0.1,0.1-0.2,0.2-0.2h0.5c0.1,0,0.2,0.1,0.1,0.2L24,7.5
			c-0.1,0.1-0.1,0.2-0.2,0.2C23.8,7.7,23.1,7.7,23.1,7.6z"/>
		<path class="st1" d="M28.8,6c0,0.1-0.1,0.2-0.2,0.2h-1.8v0.4c0,0.1,0,0.1,0,0.2c0,0.2,0.1,0.3,0.5,0.3s0.6-0.1,0.6-0.4V6.6
			c0-0.1,0.1-0.2,0.2-0.2h0.5c0.1,0,0.2,0.1,0.1,0.2v0.1c-0.1,0.6-0.4,1-1.5,1c-0.9,0-1.3-0.3-1.3-0.9V6.7l0.2-1.5
			c0.1-0.6,0.5-1,1.5-1c0.9,0,1.3,0.3,1.3,0.9v0.1L28.8,6z M26.9,5.5H28V5.2V5.1c0-0.2-0.1-0.3-0.5-0.3s-0.6,0.1-0.6,0.4V5.5z"/>
		<path class="st1" d="M30.8,4.1c0.1,0,0.2,0,0.2,0.2v0.2c0.2-0.2,0.6-0.4,1.1-0.4C32.6,4.2,33,4.5,33,5c0,0,0,0.1,0,0.2l-0.3,2.3
			c0,0.1-0.1,0.2-0.2,0.2H32c-0.1,0-0.2,0-0.2-0.2l0.3-2.1c0-0.1,0-0.1,0-0.2c0-0.2-0.1-0.3-0.3-0.3c-0.3,0-0.7,0.2-0.8,0.3
			l-0.3,2.2c0,0.1-0.1,0.2-0.2,0.2h-0.6c-0.1,0-0.2,0-0.1-0.2l0.4-3.1c0-0.1,0.1-0.2,0.2-0.2h0.4V4.1z"/>
		<path class="st1" d="M34.8,7.5c0,0.1-0.1,0.2-0.2,0.2H34c-0.1,0-0.2-0.1-0.1-0.2l0.4-3.1c0-0.1,0.1-0.2,0.2-0.2H35
			c0.1,0,0.2,0,0.1,0.2L34.8,7.5z M35.3,3.5c0,0.1-0.1,0.2-0.2,0.2h-0.6c-0.1,0-0.2,0-0.1-0.2l0.1-0.6c0-0.1,0.1-0.2,0.2-0.2h0.6
			c0.1,0,0.2,0.1,0.1,0.2L35.3,3.5z"/>
		<path class="st1" d="M38,7.3c-0.2,0.2-0.5,0.4-1.1,0.4S36,7.4,36,6.9c0-0.1,0-0.1,0-0.2l0.2-1.5c0.1-0.6,0.4-1,1.1-1
			c0.5,0,0.9,0.2,1.1,0.4L38.6,3c0-0.1,0.1-0.2,0.2-0.2h0.6c0.1,0,0.2,0.1,0.1,0.2L39,7.5c0,0.1-0.1,0.2-0.2,0.2h-0.5
			c-0.1,0-0.1-0.1-0.1-0.2V7.3H38z M36.9,6.5c0,0.1,0,0.1,0,0.1c0,0.1,0.1,0.3,0.3,0.3c0.3,0,0.7-0.2,0.8-0.3l0.2-1.3
			C38.1,5.2,37.8,5,37.4,5C37.1,5,37,5.2,37,5.4L36.9,6.5z"/>
		<path class="st1" d="M40.3,5.1c0.1-0.6,0.6-1,1.6-1c0.9,0,1.4,0.3,1.4,0.9v0.1l-0.2,1.5c-0.1,0.6-0.5,1-1.6,1
			c-0.9,0-1.4-0.4-1.4-0.9V6.6L40.3,5.1z M42.4,5.3c0-0.1,0-0.1,0-0.1c0-0.2-0.2-0.3-0.5-0.3c-0.4,0-0.6,0.1-0.6,0.4l-0.2,1.3
			c0,0.1,0,0.1,0,0.1c0,0.2,0.2,0.3,0.5,0.3c0.4,0,0.6-0.1,0.6-0.4L42.4,5.3z"/>
		<path class="st1" d="M46.2,5L46.2,5c0-0.3-0.2-0.3-0.5-0.3s-0.5,0-0.5,0.3l0,0v0.1c0,0.1,0,0.2,0.2,0.2l1,0.3
			C46.8,5.8,47,6,47,6.3c0,0,0,0.1,0,0.2v0.3c0,0.4-0.4,0.8-1.5,0.8c-0.9,0-1.3-0.4-1.3-0.8c0,0,0,0,0-0.1V6.4
			c0-0.1,0.1-0.2,0.2-0.2h0.5c0.1,0,0.1,0,0.1,0.2v0.1c0,0.1,0,0.1,0,0.1c0,0.2,0.2,0.2,0.5,0.2s0.6-0.1,0.6-0.3l0,0
			c0-0.1,0-0.1,0-0.1c0-0.1-0.1-0.2-0.3-0.2l-0.9-0.4c-0.3-0.1-0.5-0.4-0.5-0.7c0,0,0,0,0-0.1V4.8c0-0.4,0.4-0.9,1.4-0.9
			c0.9,0,1.3,0.4,1.3,0.8c0,0,0,0,0,0.1v0.1c0,0.1-0.1,0.2-0.2,0.2h-0.5C46.2,5.4,46.2,5.3,46.2,5L46.2,5z"/>
	</g>
</g>
</svg>
