<?xml version="1.0" encoding="utf-8"?>
<!-- Generator: Adobe Illustrator 19.2.1, SVG Export Plug-In . SVG Version: 6.00 Build 0)  -->
<svg version="1.1" id="Capa_1" xmlns="http://www.w3.org/2000/svg" xmlns:xlink="http://www.w3.org/1999/xlink" x="0px" y="0px"
	 viewBox="0 0 50 50" style="enable-background:new 0 0 50 50;" xml:space="preserve">
<style type="text/css">
	.st0{fill:#434142;}
</style>
<g>
	<g>
		<path class="st0" d="M48.6,25C48.6,12,38,1.4,25,1.4S1.4,12,1.4,25c0,7.2,3.3,13.6,8.3,17.9C9.8,43,9.8,43,9.9,43.1
			c4.1,3.4,9.3,5.5,15.1,5.5c5.7,0,10.9-2,15-5.4c0.2-0.1,0.4-0.2,0.5-0.4C45.5,38.4,48.6,32.1,48.6,25z M3.6,25
			C3.6,13.2,13.2,3.6,25,3.6S46.4,13.2,46.4,25c0,5.8-2.3,11-6,14.9c-0.6-2.8-2.4-7.6-7.9-10.8c1.3-1.6,2-3.6,2-5.8
			c0-5.2-4.2-9.4-9.4-9.4s-9.4,4.2-9.4,9.4c0,2.2,0.8,4.2,2,5.8c-5.6,3.1-7.4,7.9-7.9,10.8C5.9,36.1,3.6,30.8,3.6,25z M17.8,23.4
			c0-4,3.3-7.2,7.2-7.2s7.2,3.3,7.2,7.2S29,30.6,25,30.6S17.8,27.3,17.8,23.4z M11.6,41.7c0.1-1.7,1.1-7.6,7.6-11
			c1.6,1.3,3.6,2,5.8,2s4.2-0.8,5.8-2c6.4,3.3,7.5,9.1,7.6,11c-3.7,2.9-8.4,4.8-13.4,4.8C19.9,46.4,15.3,44.7,11.6,41.7z"/>
		<path class="st0" d="M25.1,49.1c-5.7,0-11.1-1.9-15.4-5.6c-0.2-0.1-0.3-0.2-0.3-0.2C4,38.7,0.9,32,0.9,25
			C0.9,11.7,11.7,0.9,25,0.9S49.1,11.7,49.1,25c0,6.9-3,13.5-8.1,18.2c-0.2,0.3-0.4,0.5-0.7,0.5C36,47.2,30.5,49.1,25.1,49.1z
			 M25,1.9C12.3,1.9,1.9,12.3,1.9,25c0,6.7,3,13.1,8.1,17.5c0.1,0.1,0.1,0.1,0.1,0.1l0.1,0.1c4.2,3.5,9.3,5.4,14.8,5.4
			c5.3,0,10.5-1.9,14.7-5.2l0.2-0.1c0.1,0,0.2-0.1,0.2-0.2l0.1-0.1c5-4.5,7.8-10.8,7.8-17.4C48.1,12.3,37.7,1.9,25,1.9z M25,47
			c-5.1,0-9.8-1.7-13.7-4.8L11.1,42v-0.3c0.1-1.8,1.1-7.9,7.9-11.4l0.3-0.2l0.3,0.2c1.6,1.2,3.5,1.9,5.5,1.9s3.9-0.7,5.5-1.9
			l0.3-0.2l0.3,0.2c6.5,3.3,7.7,9.1,7.9,11.4V42l-0.2,0.2C34.9,45.2,30,47,25,47z M12.2,41.5c3.7,2.9,8.2,4.4,12.9,4.4
			c4.6,0,9.2-1.6,12.9-4.5c-0.3-2.3-1.5-7.1-7-10.1c-1.7,1.3-3.8,1.9-5.9,1.9s-4.1-0.7-5.8-1.9C13.4,34.5,12.4,39.6,12.2,41.5z
			 M40.1,41l-0.2-1c-0.7-3.2-2.5-7.5-7.7-10.4l-0.6-0.3l0.4-0.5c1.2-1.5,1.9-3.4,1.9-5.4c0-4.9-4-8.9-8.9-8.9s-8.9,4-8.9,8.9
			c0,1.9,0.6,3.8,1.9,5.5l0.4,0.5l-0.5,0.3c-5.5,3.1-7.2,7.9-7.7,10.4L10,41l-0.7-0.7C5.3,36.2,3,30.8,3,25C3,12.9,12.9,3,25,3
			s22,9.9,22,22c0,5.7-2.2,11.1-6.2,15.2L40.1,41z M25,4.1C13.5,4.1,4.1,13.5,4.1,25c0,5.2,1.9,10,5.3,13.8c0.7-2.8,2.6-6.9,7.5-9.9
			c-1.1-1.7-1.7-3.7-1.7-5.6c0-5.5,4.5-9.9,9.9-9.9c5.5,0,9.9,4.5,9.9,9.9c0,2-0.6,4-1.7,5.6c4.8,2.9,6.7,7.1,7.4,9.8
			c3.4-3.8,5.2-8.7,5.2-13.8C45.9,13.5,36.5,4.1,25,4.1z M25,31.1c-4.3,0-7.8-3.5-7.8-7.8s3.5-7.8,7.8-7.8s7.8,3.5,7.8,7.8
			C32.8,27.7,29.3,31.1,25,31.1z M25,16.7c-3.7,0-6.7,3-6.7,6.7s3,6.7,6.7,6.7s6.7-3,6.7-6.7S28.7,16.7,25,16.7z"/>
	</g>
</g>
</svg>
