<?xml version="1.0" encoding="utf-8"?>
<!-- Generator: Adobe Illustrator 19.2.1, SVG Export Plug-In . SVG Version: 6.00 Build 0)  -->
<svg version="1.1" id="Capa_1" xmlns="http://www.w3.org/2000/svg" xmlns:xlink="http://www.w3.org/1999/xlink" x="0px" y="0px"
	 viewBox="0 0 50 50" style="enable-background:new 0 0 50 50;" xml:space="preserve">
<style type="text/css">
	.st0{fill:#EFEC8E;}
	.st1{fill:#434142;}
	.st2{fill:#FFFFFF;}
	.st3{fill:#5A7E9E;}
	.st4{fill:#81AEA4;}
	.st5{fill:#D89796;}
	.st6{fill:#8077AC;}
	.st7{fill:#80AEA4;}
	.st8{fill:#EEEB8B;}
	.st9{fill:#FFFFFF;stroke:#FFFFFF;stroke-width:0.6876;stroke-miterlimit:10;}
</style>
<g>
	<path class="st1" d="M44.4,11L11,44.4c-1.5,1.5-3.9,1.5-5.3,0l0,0c-1.5-1.5-1.5-3.9,0-5.3L39,5.6c1.5-1.5,3.9-1.5,5.3,0l0,0
		C45.8,7.1,45.8,9.5,44.4,11z"/>
	<path class="st1" d="M39,44.4L5.6,11c-1.5-1.5-1.5-3.9,0-5.3l0,0c1.5-1.5,3.9-1.5,5.3,0L44.4,39c1.5,1.5,1.5,3.9,0,5.3l0,0
		C42.9,45.8,40.5,45.8,39,44.4z"/>
</g>
</svg>
