<?xml version="1.0" encoding="utf-8"?>
<!-- Generator: Adobe Illustrator 19.2.1, SVG Export Plug-In . SVG Version: 6.00 Build 0)  -->
<svg version="1.1" id="Capa_1" xmlns="http://www.w3.org/2000/svg" xmlns:xlink="http://www.w3.org/1999/xlink" x="0px" y="0px"
	 viewBox="0 0 50 50" style="enable-background:new 0 0 50 50;" xml:space="preserve">
<style type="text/css">
	.st0{fill:#EFEC8E;}
	.st1{fill:#434142;}
	.st2{fill:#FFFFFF;}
	.st3{fill:#5A7E9E;}
	.st4{fill:#81AEA4;}
	.st5{fill:#D89796;}
	.st6{fill:#8077AC;}
	.st7{fill:#80AEA4;}
	.st8{fill:#EEEB8B;}
	.st9{fill:#FFFFFF;stroke:#FFFFFF;stroke-width:0.6876;stroke-miterlimit:10;}
</style>
<g>
	<path class="st2" d="M5.2,37.7c-0.7,0-1.3-0.6-1.3-1.3V7.9c0-0.7,0.6-1.3,1.3-1.3h39.7c0.7,0,1.3,0.6,1.3,1.3v28.5
		c0,0.7-0.6,1.3-1.3,1.3h-3.2v-4.9l0.1-0.1c1.2-1.4,1.9-3.1,1.9-4.9c0-4.1-3.3-7.4-7.4-7.4c-4.1,0-7.4,3.3-7.4,7.4
		c0,1.8,0.7,3.6,1.9,4.9l0.1,0.1v4.9H5.2z"/>
	<circle class="st0" cx="36.2" cy="27.7" r="6.4"/>
	<path class="st5" d="M32.2,43V32.7c0,0,5.1,1.4,5.3,1.4c0.2-0.1,2.5-1,2.5-1l0.8,7.1l-0.7,4l-3.9-2.7L32.2,43z"/>
	<g>
		<path class="st3" d="M25,12.6H8.2c-0.7,0-1.2,0.6-1.2,1.2c0,0.7,0.6,1.2,1.2,1.2H25c0.7,0,1.2-0.6,1.2-1.2
			C26.2,13.1,25.7,12.6,25,12.6z"/>
		<path class="st3" d="M25,18.2H8.2c-0.7,0-1.2,0.6-1.2,1.2c0,0.7,0.6,1.2,1.2,1.2H25c0.7,0,1.2-0.6,1.2-1.2
			C26.2,18.7,25.7,18.2,25,18.2z"/>
		<path class="st3" d="M25,23.8H8.2C7.5,23.8,7,24.3,7,25c0,0.7,0.6,1.2,1.2,1.2H25c0.7,0,1.2-0.6,1.2-1.2
			C26.2,24.3,25.7,23.8,25,23.8z"/>
		<path class="st3" d="M31.4,45.7c0.4,0.2,0.9,0.2,1.3-0.1l3.5-2.3l3.5,2.3c0.4,0.2,0.9,0.3,1.3,0.1c0.4-0.2,0.7-0.6,0.7-1.1v-4.4
			h3.2c2.1,0,3.8-1.7,3.8-3.8V8c0-1-0.4-2-1.1-2.7c-0.7-0.7-1.7-1.1-2.7-1.1H5.2C3.1,4.2,1.4,5.9,1.4,8v28.5c0,2.1,1.7,3.8,3.8,3.8
			h25.6v4.4C30.8,45,31,45.5,31.4,45.7z M39.1,42.3l-2.3-1.5c-0.4-0.3-1-0.3-1.4,0l-2.3,1.5v-7.6l0.6,0.2c1.5,0.5,3.2,0.5,4.7,0
			l0.6-0.2V42.3z M36.2,32.8c-2.7,0-4.9-2.2-4.9-5c0-2.7,2.2-5,4.9-5c2.7,0,4.9,2.2,4.9,5C41.1,30.5,38.9,32.8,36.2,32.8z M5.2,37.7
			c-0.7,0-1.3-0.6-1.3-1.3V8c0-0.7,0.6-1.3,1.3-1.3h39.7c0.7,0,1.3,0.6,1.3,1.3v28.5c0,0.7-0.6,1.3-1.3,1.3h-3.2v-4.9l0.1-0.1
			c1.2-1.4,1.9-3.1,1.9-4.9c0-4.1-3.3-7.4-7.4-7.4c-4.1,0-7.4,3.3-7.4,7.4c0,1.8,0.7,3.6,1.9,4.9l0.1,0.1v4.9H5.2z"/>
	</g>
</g>
</svg>
