<?xml version="1.0" encoding="utf-8"?>
<!-- Generator: Adobe Illustrator 19.2.1, SVG Export Plug-In . SVG Version: 6.00 Build 0)  -->
<svg version="1.1" id="Capa_1" xmlns="http://www.w3.org/2000/svg" xmlns:xlink="http://www.w3.org/1999/xlink" x="0px" y="0px"
	 viewBox="0 0 50 13" style="enable-background:new 0 0 50 13;" xml:space="preserve">
<style type="text/css">
	.st0{fill:#FFFFFF;}
	.st1{fill:#5A7E9E;}
</style>
<g>
	<g>
		<g>
			<rect x="3.3" y="3.3" class="st0" width="45.6" height="8.7"/>
		</g>
		<g>
			<path class="st1" d="M49.1,12.3H3V3h46.1V12.3z M3.6,11.7h45V3.5h-45V11.7z"/>
		</g>
	</g>
	<g>
		<g>
			<rect x="1.2" y="1" class="st0" width="45.6" height="8.7"/>
		</g>
		<g>
			<path class="st1" d="M47,10H0.9V0.7H47V10z M1.4,9.5h45V1.3h-45V9.5z"/>
		</g>
	</g>
	<g>
		<path class="st1" d="M7.6,4.4c0,0,0,0.1,0,0.1l0,0.1c0,0.1-0.1,0.1-0.1,0.1H7c-0.1,0-0.1,0-0.1-0.1l0-0.1c0-0.1,0-0.1,0-0.1
			c0-0.2-0.2-0.4-0.6-0.4c-0.5,0-0.7,0.2-0.7,0.5L5.4,6c0,0.1,0,0.1,0,0.2c0,0.2,0.2,0.4,0.6,0.4c0.5,0,0.7-0.2,0.7-0.5l0-0.1
			c0-0.1,0-0.1,0.1-0.1h0.4c0.1,0,0.1,0.1,0.1,0.1l0,0.2C7.3,6.7,7,7.1,5.9,7.1c-0.9,0-1.2-0.3-1.2-0.8c0,0,0-0.1,0-0.1l0.2-1.6
			C5,4,5.3,3.6,6.3,3.6C7.2,3.6,7.6,3.9,7.6,4.4z"/>
		<path class="st1" d="M8.6,4.5C8.6,4,9.1,3.6,10,3.6c0.9,0,1.3,0.3,1.3,0.8c0,0,0,0.1,0,0.1l-0.2,1.6c-0.1,0.6-0.5,0.9-1.5,0.9
			c-0.9,0-1.3-0.3-1.3-0.8c0,0,0-0.1,0-0.1L8.6,4.5z M10.7,4.6L10.7,4.6c0-0.3-0.2-0.5-0.7-0.5c-0.5,0-0.7,0.2-0.8,0.5L9,6.1
			c0,0,0,0.1,0,0.1c0,0.3,0.2,0.4,0.7,0.4c0.5,0,0.7-0.2,0.8-0.5L10.7,4.6z"/>
		<path class="st1" d="M13.2,3.6c0.1,0,0.1,0,0.1,0.1l0,0.2c0.2-0.2,0.5-0.4,1.1-0.4c0.4,0,0.7,0.2,0.8,0.5c0.2-0.2,0.6-0.5,1.2-0.5
			c0.6,0,0.9,0.3,0.9,0.7c0,0,0,0.1,0,0.1L17,6.9C17,7,17,7,16.9,7h-0.4c-0.1,0-0.1,0-0.1-0.1l0.3-2.3c0-0.1,0-0.1,0-0.1
			c0-0.2-0.1-0.4-0.5-0.4c-0.4,0-0.8,0.2-0.9,0.4c0,0,0,0.1,0,0.1L15,6.9C15,7,14.9,7,14.8,7h-0.4c-0.1,0-0.1,0-0.1-0.1l0.3-2.3
			c0-0.1,0-0.1,0-0.1c0-0.2-0.1-0.4-0.5-0.4c-0.4,0-0.8,0.2-0.9,0.4l-0.3,2.4c0,0.1,0,0.1-0.1,0.1h-0.4c-0.1,0-0.1,0-0.1-0.1
			l0.4-3.1c0-0.1,0-0.1,0.1-0.1H13.2z"/>
		<path class="st1" d="M19.3,3.8l0,0.2c0.2-0.2,0.6-0.4,1.2-0.4c0.6,0,0.9,0.3,0.9,0.8c0,0,0,0.1,0,0.2l-0.2,1.6
			c-0.1,0.6-0.4,0.9-1.1,0.9c-0.5,0-0.9-0.2-1.1-0.4l-0.2,1.6c0,0.1,0,0.1-0.1,0.1h-0.4c-0.1,0-0.1,0-0.1-0.1l0.6-4.5
			c0-0.1,0-0.1,0.1-0.1h0.4C19.3,3.6,19.3,3.7,19.3,3.8z M20.7,4.6c0,0,0-0.1,0-0.1c0-0.2-0.1-0.4-0.5-0.4c-0.4,0-0.8,0.2-1,0.4
			L19,6.2c0.1,0.1,0.4,0.4,0.9,0.4c0.4,0,0.5-0.2,0.6-0.4L20.7,4.6z"/>
		<path class="st1" d="M22.5,4.5c0.1-0.6,0.5-0.9,1.5-0.9c0.9,0,1.3,0.3,1.3,0.8c0,0,0,0.1,0,0.1L25,6.2c-0.1,0.6-0.5,0.9-1.5,0.9
			c-0.9,0-1.3-0.3-1.3-0.8c0,0,0-0.1,0-0.1L22.5,4.5z M24.6,4.6L24.6,4.6c0-0.3-0.2-0.5-0.7-0.5c-0.5,0-0.7,0.2-0.8,0.5l-0.2,1.5
			c0,0,0,0.1,0,0.1c0,0.3,0.2,0.4,0.7,0.4c0.5,0,0.7-0.2,0.8-0.5L24.6,4.6z"/>
		<path class="st1" d="M28.2,4.5c0,0,0-0.1,0-0.1c0-0.2-0.2-0.3-0.6-0.3c-0.4,0-0.6,0.1-0.7,0.3l0,0.1c0,0.1,0,0.1,0,0.1
			c0,0.1,0,0.2,0.2,0.3l1,0.3c0.4,0.1,0.5,0.4,0.5,0.6c0,0,0,0.1,0,0.2l0,0.3c0,0.4-0.4,0.8-1.4,0.8c-0.9,0-1.2-0.3-1.2-0.7
			c0,0,0,0,0-0.1l0-0.2c0-0.1,0-0.1,0.1-0.1h0.4c0.1,0,0.1,0,0.1,0.1l0,0.1c0,0,0,0.1,0,0.1c0,0.2,0.3,0.3,0.7,0.3
			c0.4,0,0.7-0.1,0.8-0.4l0-0.2c0-0.1,0-0.1,0-0.1c0-0.1-0.1-0.2-0.3-0.3l-0.9-0.3c-0.3-0.1-0.5-0.3-0.5-0.6c0,0,0,0,0-0.1l0-0.2
			c0-0.4,0.4-0.8,1.3-0.8c0.8,0,1.2,0.4,1.2,0.7c0,0,0,0,0,0.1l0,0.1c0,0.1,0,0.1-0.1,0.1h-0.4c-0.1,0-0.1,0-0.1-0.1L28.2,4.5z"/>
		<path class="st1" d="M30.3,6.9C30.3,7,30.3,7,30.2,7h-0.4c-0.1,0-0.1,0-0.1-0.1l0.4-3.1c0-0.1,0-0.1,0.1-0.1h0.4
			c0.1,0,0.1,0,0.1,0.1L30.3,6.9z M30.8,3c0,0.1,0,0.1-0.1,0.1h-0.4c-0.1,0-0.1,0-0.1-0.1l0.1-0.6c0-0.1,0.1-0.1,0.1-0.1h0.4
			c0.1,0,0.1,0,0.1,0.1L30.8,3z"/>
		<path class="st1" d="M34.5,4.4c0,0,0,0.1,0,0.1l0,0.1c0,0.1-0.1,0.1-0.1,0.1h-0.4c-0.1,0-0.1,0-0.1-0.1l0-0.1c0-0.1,0-0.1,0-0.1
			c0-0.2-0.2-0.4-0.6-0.4c-0.5,0-0.7,0.2-0.7,0.5L32.3,6c0,0.1,0,0.1,0,0.2c0,0.2,0.2,0.4,0.6,0.4c0.5,0,0.7-0.2,0.7-0.5l0-0.1
			c0-0.1,0-0.1,0.1-0.1h0.4c0.1,0,0.1,0.1,0.1,0.1l0,0.2c-0.1,0.5-0.4,0.9-1.4,0.9c-0.9,0-1.2-0.3-1.2-0.8c0,0,0-0.1,0-0.1l0.2-1.6
			c0.1-0.6,0.4-0.9,1.4-0.9C34.1,3.6,34.5,3.9,34.5,4.4z"/>
		<path class="st1" d="M35.9,6.9C35.9,7,35.9,7,35.8,7h-0.4c-0.1,0-0.1,0-0.1-0.1l0.4-3.1c0-0.1,0-0.1,0.1-0.1h0.4
			c0.1,0,0.1,0,0.1,0.1L35.9,6.9z M36.4,3c0,0.1,0,0.1-0.1,0.1h-0.4c-0.1,0-0.1,0-0.1-0.1l0.1-0.6c0-0.1,0.1-0.1,0.1-0.1h0.4
			c0.1,0,0.1,0,0.1,0.1L36.4,3z"/>
		<path class="st1" d="M37.4,4.5c0.1-0.6,0.5-0.9,1.5-0.9c0.9,0,1.3,0.3,1.3,0.8c0,0,0,0.1,0,0.1L40,6.2c-0.1,0.6-0.5,0.9-1.5,0.9
			c-0.9,0-1.3-0.3-1.3-0.8c0,0,0-0.1,0-0.1L37.4,4.5z M39.5,4.6L39.5,4.6c0-0.3-0.2-0.5-0.7-0.5c-0.5,0-0.7,0.2-0.8,0.5l-0.2,1.5
			c0,0,0,0.1,0,0.1c0,0.3,0.2,0.4,0.7,0.4c0.5,0,0.7-0.2,0.8-0.5L39.5,4.6z M39.3,3.1c0,0-0.1,0.1-0.2,0.1h-0.3
			c-0.1,0-0.1,0-0.1-0.1l0.5-0.7c0-0.1,0.1-0.1,0.2-0.1h0.4c0.1,0,0.1,0.1,0,0.1L39.3,3.1z"/>
		<path class="st1" d="M42,3.6c0.1,0,0.1,0,0.1,0.1l0,0.2c0.2-0.2,0.6-0.4,1.2-0.4c0.6,0,0.9,0.3,0.9,0.8c0,0,0,0.1,0,0.2l-0.3,2.4
			C43.9,7,43.8,7,43.7,7h-0.4c-0.1,0-0.1,0-0.1-0.1l0.3-2.3c0,0,0-0.1,0-0.1c0-0.2-0.1-0.4-0.5-0.4c-0.4,0-0.8,0.2-1,0.4l-0.3,2.4
			C41.8,7,41.7,7,41.6,7h-0.4c-0.1,0-0.1,0-0.1-0.1l0.4-3.1c0-0.1,0-0.1,0.1-0.1H42z"/>
	</g>
</g>
</svg>
