<?xml version="1.0" encoding="utf-8"?>
<!-- Generator: Adobe Illustrator 19.2.1, SVG Export Plug-In . SVG Version: 6.00 Build 0)  -->
<svg version="1.1" id="Capa_1" xmlns="http://www.w3.org/2000/svg" xmlns:xlink="http://www.w3.org/1999/xlink" x="0px" y="0px"
	 viewBox="0 0 50 50" style="enable-background:new 0 0 50 50;" xml:space="preserve">
<style type="text/css">
	.st0{fill:#EFEC8E;}
	.st1{fill:#434142;}
	.st2{fill:#FFFFFF;}
	.st3{fill:#5A7E9E;}
	.st4{fill:#81AEA4;}
	.st5{fill:#D89796;}
	.st6{fill:#8077AC;}
	.st7{fill:#80AEA4;}
	.st8{fill:#EEEB8B;}
</style>
<g>
	<path class="st0" d="M45.3,21.9l-3.7-0.5c-0.7-0.1-1.2-0.6-1.4-1.2c-0.6-1.7-0.4-0.9-1.1-2.5c-0.3-0.7-0.2-1.3,0.2-1.9l2.3-3
		c-0.5-0.6-1.1-1.4-2.1-2.3c-0.9-0.9-1.7-1.5-2.2-2l-3,2.2c-0.6,0.4-1.3,0.5-2,0.2c-1.4-0.7-0.9-0.5-2.5-1c-0.7-0.2-1.1-0.8-1.2-1.5
		l-0.5-3.7c-0.7-0.1-1.8-0.2-3.1-0.2s-2.3,0.1-3.1,0.2l-0.5,3.7c-0.1,0.7-0.6,1.3-1.2,1.5c-1.6,0.6-1.1,0.3-2.5,1
		c-0.7,0.3-1.3,0.2-1.9-0.2l-3-2.2c-0.6,0.5-1.4,1-2.3,2c-0.9,0.9-1.5,1.8-2,2.3l2.2,3c0.4,0.6,0.5,1.2,0.2,1.9
		c-0.3,0.6-0.6,1.2-0.6,1.2c0,0.1-0.3,0.7-0.5,1.3c-0.2,0.7-0.8,1.1-1.5,1.2l-3.7,0.5c-0.1,0.7-0.2,1.8-0.2,3.1s0.1,2.3,0.2,3.1
		l3.7,0.5c0.7,0.1,1.3,0.6,1.5,1.2c0.6,1.6,0.3,1.1,1,2.5c0.3,0.7,0.2,1.4-0.2,2l-2.2,3c0.5,0.6,1,1.3,2,2.2
		c0.9,0.9,1.8,1.6,2.3,2.1l3-2.3c0.6-0.4,1.2-0.5,1.9-0.2c1.4,0.7,0.9,0.5,2.5,1c0.7,0.2,1.1,0.8,1.2,1.5l0.5,3.7
		c0.7,0.1,1.8,0.2,3.1,0.2s2.3-0.1,3.1-0.2l0.5-3.7c0.1-0.7,0.6-1.3,1.2-1.5c1.7-0.6,0.9-0.3,2.5-1c0.7-0.3,1.4-0.2,2,0.2l3,2.3
		c0.6-0.5,1.3-1.1,2.2-2.1c0.9-0.9,1.6-1.8,2.1-2.3l-2.3-2.9c-0.4-0.6-0.5-1.3-0.2-2c0.7-1.4,0.5-0.9,1-2.5c0.2-0.7,0.8-1.1,1.5-1.2
		l3.7-0.5c0.1-0.7,0.2-1.8,0.2-3.1S45.4,22.7,45.3,21.9z M25,32.8c-4.4,0-7.8-3.5-7.8-7.8c0-4.4,3.5-7.8,7.8-7.8s7.8,3.5,7.8,7.8
		C32.8,29.4,29.4,32.8,25,32.8z"/>
	<g>
		<g>
			<g>
				<path class="st1" d="M48.5,19.9c-0.2-0.7-0.7-1.2-1.5-1.3L43.1,18c-0.2-0.6-0.1-0.3-0.4-0.8l2.4-3.2c0.5-0.6,0.5-1.4,0.1-2.1
					c0-0.1-1-1.7-3.3-3.9c-2.2-2.2-3.8-3.3-3.9-3.3c-0.7-0.4-1.5-0.4-2.1,0.1l-3.2,2.4C32.3,7,32.6,7.1,32,6.9L31.4,3
					c-0.1-0.7-0.6-1.3-1.3-1.5c-0.1,0-2-0.6-5.1-0.6s-5,0.6-5.1,0.6c-0.7,0.2-1.2,0.7-1.3,1.5L18,6.9c-0.6,0.2-0.3,0.1-0.8,0.4
					L14,4.8c-0.6-0.5-1.4-0.5-2.1-0.1c-0.1,0-1.7,1-3.9,3.3s-3.3,3.8-3.3,3.9c-0.4,0.7-0.4,1.5,0.1,2.1l2.4,3.2
					c-0.3,0.6-0.2,0.4-0.4,0.9L3,18.6c-0.7,0.1-1.3,0.6-1.5,1.3c0,0.1-0.6,2-0.6,5.1s0.6,5,0.6,5.1c0.2,0.7,0.7,1.2,1.5,1.3L6.9,32
					c0.2,0.6,0.1,0.3,0.4,0.8L4.8,36c-0.5,0.6-0.5,1.4-0.1,2.1c0,0.1,1,1.7,3.3,3.9c2.2,2.2,3.8,3.3,3.9,3.3
					c0.7,0.4,1.5,0.4,2.1-0.1l3.2-2.4c0.6,0.3,0.4,0.2,0.9,0.4l0.5,3.9c0.1,0.7,0.6,1.3,1.3,1.5c0.1,0,2,0.6,5.1,0.6s5-0.6,5.1-0.6
					c0.7-0.2,1.2-0.7,1.3-1.5l0.6-3.9c0.6-0.2,0.3-0.1,0.8-0.4l3.2,2.4c0.6,0.5,1.4,0.5,2.1,0.1c0.1,0,1.7-1,3.9-3.3
					c2.2-2.2,3.3-3.8,3.3-3.9c0.4-0.7,0.4-1.5-0.1-2.1l-2.4-3.2c0.3-0.6,0.2-0.3,0.4-0.8l3.9-0.6c0.7-0.1,1.3-0.6,1.5-1.3
					c0-0.1,0.6-2,0.6-5.1S48.5,20,48.5,19.9z M45.3,28.1l-3.7,0.5c-0.7,0.1-1.3,0.6-1.5,1.2c-0.6,1.6-0.4,1.1-1,2.5
					c-0.3,0.7-0.2,1.4,0.2,2l2.3,2.9c-0.5,0.6-1.1,1.4-2.1,2.3s-1.7,1.6-2.2,2.1l-3-2.3c-0.6-0.4-1.3-0.5-2-0.2
					c-1.6,0.7-0.8,0.5-2.5,1c-0.7,0.2-1.1,0.8-1.2,1.5l-0.5,3.7c-0.7,0.1-1.8,0.2-3.1,0.2s-2.3-0.1-3.1-0.2l-0.5-3.7
					c-0.1-0.7-0.6-1.3-1.2-1.5c-1.6-0.6-1.1-0.4-2.5-1c-0.7-0.3-1.3-0.2-1.9,0.2l-3,2.3c-0.6-0.5-1.4-1.1-2.3-2.1s-1.5-1.7-2-2.2
					l2.2-3c0.4-0.6,0.5-1.3,0.2-2c-0.7-1.4-0.5-0.9-1-2.5c-0.2-0.7-0.8-1.1-1.5-1.2l-3.7-0.5c-0.1-0.7-0.2-1.8-0.2-3.1
					s0.1-2.3,0.2-3.1l3.7-0.5c0.7-0.1,1.3-0.6,1.5-1.2c0.2-0.7,0.5-1.2,0.5-1.3c0,0,0.3-0.7,0.6-1.2c0.3-0.7,0.2-1.3-0.2-1.9l-2.2-3
					c0.5-0.6,1-1.4,2-2.3s1.8-1.5,2.3-2l3,2.2c0.6,0.4,1.2,0.5,1.9,0.2c1.4-0.7,0.9-0.5,2.5-1c0.7-0.2,1.1-0.8,1.2-1.5l0.5-3.7
					c0.7-0.1,1.8-0.2,3.1-0.2s2.3,0.1,3.1,0.2l0.5,3.7c0.1,0.7,0.6,1.3,1.2,1.5c1.6,0.6,1.1,0.4,2.5,1c0.7,0.3,1.4,0.2,2-0.2l3-2.2
					c0.6,0.5,1.3,1,2.2,2s1.6,1.8,2.1,2.3l-2.3,3c-0.4,0.6-0.5,1.2-0.2,1.9c0.7,1.6,0.6,0.8,1.1,2.5c0.2,0.7,0.7,1.1,1.4,1.2
					l3.7,0.5c0.1,0.7,0.2,1.8,0.2,3.1S45.4,27.3,45.3,28.1z"/>
				<path class="st1" d="M25,13.5c-6.3,0-11.5,5.1-11.5,11.5S18.7,36.5,25,36.5S36.5,31.3,36.5,25S31.3,13.5,25,13.5z M25,32.8
					c-4.4,0-7.8-3.5-7.8-7.8s3.5-7.8,7.8-7.8s7.8,3.5,7.8,7.8S29.4,32.8,25,32.8z"/>
			</g>
		</g>
	</g>
</g>
</svg>
