<?xml version="1.0" encoding="utf-8"?>
<!-- Generator: Adobe Illustrator 19.2.1, SVG Export Plug-In . SVG Version: 6.00 Build 0)  -->
<svg version="1.1" id="Capa_1" xmlns="http://www.w3.org/2000/svg" xmlns:xlink="http://www.w3.org/1999/xlink" x="0px" y="0px"
	 viewBox="0 0 50 14.9" style="enable-background:new 0 0 50 14.9;" xml:space="preserve">
<style type="text/css">
	.st0{fill:#FFFFFF;}
	.st1{fill:#5A7E9E;}
</style>
<g>
	<g>
		<g>
			<rect x="1.3" y="4.5" class="st0" width="43.5" height="9.4"/>
		</g>
		<g>
			<path class="st1" d="M45.1,14.2H1V4.3h44L45.1,14.2L45.1,14.2z M1.5,13.7h43.1v-9H1.5V13.7z"/>
		</g>
	</g>
	<g>
		<g>
			<rect x="3" y="2.7" class="st0" width="43.5" height="9.4"/>
		</g>
		<g>
			<path class="st1" d="M46.8,12.4h-44V2.5h44V12.4z M3.2,11.9h43.1v-9H3.2V11.9z"/>
		</g>
	</g>
	<g>
		<g>
			<rect x="5.2" y="0.9" class="st0" width="43.5" height="9.4"/>
		</g>
		<g>
			<path class="st1" d="M49,10.5H5V0.6h44V10.5z M5.4,10.1h43.1v-9H5.4V10.1z"/>
		</g>
	</g>
	<g>
		<path class="st1" d="M13.8,5.3v0.1v0.1c0,0.1-0.1,0.2-0.2,0.2h-0.5c-0.1,0-0.2,0-0.1-0.2V5.4V5.3C13,5.1,12.9,5,12.5,5
			s-0.6,0.1-0.6,0.4l-0.2,1.3c0,0.1,0,0.1,0,0.2c0,0.2,0.1,0.3,0.5,0.3s0.6-0.1,0.6-0.4V6.7c0-0.1,0.1-0.2,0.2-0.2h0.5
			c0.1,0,0.2,0.1,0.1,0.2v0.2C13.5,7.5,13.1,8,12,8c-0.9,0-1.4-0.4-1.4-0.9V7l0.2-1.6c0.1-0.6,0.5-1,1.6-1
			C13.4,4.4,13.8,4.8,13.8,5.3z"/>
		<path class="st1" d="M14.8,5.5c0.1-0.6,0.6-1,1.6-1c0.9,0,1.4,0.4,1.4,0.9v0.1l-0.2,1.6C17.5,7.7,17,8.2,16,8.2
			c-0.9,0-1.4-0.4-1.4-0.9V7.2L14.8,5.5z M17,5.6c0-0.1,0-0.1,0-0.1c0-0.2-0.2-0.3-0.6-0.3s-0.6,0.1-0.6,0.4l-0.2,1.3
			c0,0.1,0,0.1,0,0.1c0,0.2,0.2,0.3,0.6,0.3s0.6-0.1,0.6-0.4L17,5.6z"/>
		<path class="st1" d="M19.9,4.5c0.1,0,0.2,0,0.2,0.2v0.2c0.2-0.2,0.6-0.4,1.2-0.4s0.9,0.3,0.9,0.8c0,0,0,0.1,0,0.2l-0.3,2.4
			c0,0.1-0.1,0.2-0.2,0.2h-0.6c-0.1,0-0.2,0-0.2-0.2l0.3-2.2c0-0.1,0-0.1,0-0.2c0-0.2-0.1-0.3-0.3-0.3c-0.4,0-0.7,0.2-0.9,0.3
			l-0.3,2.3c0,0.1-0.1,0.2-0.2,0.2h-0.6c-0.1,0-0.2,0-0.1-0.2l0.4-3.2c0-0.1,0.1-0.2,0.2-0.2h0.5V4.5z"/>
		<path class="st1" d="M24.4,6.8c0,0.1,0,0.1,0,0.1c0,0.2,0.1,0.3,0.5,0.3H25c0.1,0,0.2,0.1,0.2,0.2v0.4C25.2,7.9,25.1,8,25,8h-0.3
			c-0.9,0-1.2-0.3-1.2-0.8c0-0.1,0-0.1,0-0.2l0.2-1.7h-0.3c-0.1,0-0.2-0.1-0.1-0.2V4.7c0-0.1,0.1-0.2,0.2-0.2h0.3l0,0l0.1-0.7
			c0-0.1,0.1-0.2,0.2-0.2h0.6c0.1,0,0.2,0.1,0.1,0.2l-0.1,0.7h0.6c0.1,0,0.2,0.1,0.2,0.2v0.4c0,0.1-0.1,0.2-0.2,0.2h-0.6L24.4,6.8z"
			/>
		<path class="st1" d="M28.2,7.7C28,7.9,27.6,8.1,27,8.1s-0.9-0.3-0.9-0.9c0,0,0-0.1,0-0.2l0.2-1.6c0.1-0.6,0.4-1,1.1-1
			c0.5,0,0.9,0.2,1.1,0.4V4.6c0-0.1,0.1-0.2,0.2-0.2h0.6c0.1,0,0.2,0,0.1,0.2L29,7.8C29,7.9,28.9,8,28.8,8h-0.5
			C28.2,8,28.2,8,28.2,7.7L28.2,7.7z M27.1,6.9C27.1,6.9,27.1,7,27.1,6.9c0,0.2,0.1,0.4,0.3,0.4c0.3,0,0.7-0.2,0.9-0.3l0.2-1.4
			c-0.1-0.1-0.4-0.3-0.8-0.3c-0.3,0-0.4,0.2-0.4,0.4L27.1,6.9z"/>
		<path class="st1" d="M33.5,5.3v0.1v0.1c0,0.1-0.1,0.2-0.2,0.2h-0.5c-0.1,0-0.2,0-0.1-0.2V5.4V5.3c0-0.2-0.1-0.3-0.5-0.3
			c-0.4,0-0.6,0.1-0.6,0.4l-0.2,1.3c0,0.1,0,0.1,0,0.2c0,0.2,0.1,0.3,0.5,0.3s0.6-0.1,0.6-0.4V6.7c0-0.1,0.1-0.2,0.2-0.2h0.5
			c0.1,0,0.2,0.1,0.1,0.2v0.2C33.2,7.5,32.8,8,31.7,8c-0.9,0-1.4-0.4-1.4-0.9V7l0.2-1.6c0.1-0.6,0.5-1,1.6-1
			C33.1,4.4,33.5,4.8,33.5,5.3z"/>
		<path class="st1" d="M35.5,6.8c0,0.1,0,0.1,0,0.1c0,0.2,0.1,0.3,0.5,0.3h0.2c0.1,0,0.2,0.1,0.2,0.2v0.4c0,0.1-0.1,0.2-0.2,0.2
			h-0.3c-0.9,0-1.2-0.3-1.2-0.8c0-0.1,0-0.1,0-0.2l0.2-1.7h-0.3c-0.1,0-0.2-0.1-0.1-0.2V4.7c0-0.1,0.1-0.2,0.2-0.2H35l0,0l0.1-0.7
			c0-0.1,0.1-0.2,0.2-0.2h0.6c0.1,0,0.2,0.1,0.1,0.2l-0.1,0.7h0.6c0.1,0,0.2,0.1,0.2,0.2v0.4c0,0.1-0.1,0.2-0.2,0.2h-0.6L35.5,6.8z"
			/>
		<path class="st1" d="M37.5,5.5c0.1-0.6,0.6-1,1.6-1c0.9,0,1.4,0.4,1.4,0.9v0.1l-0.2,1.6c-0.1,0.6-0.6,1.1-1.6,1.1
			c-0.9,0-1.4-0.4-1.4-0.9V7.2L37.5,5.5z M39.6,5.6c0-0.1,0-0.1,0-0.1c0-0.2-0.2-0.3-0.6-0.3c-0.4,0-0.6,0.1-0.6,0.4l-0.2,1.3
			c0,0.1,0,0.1,0,0.1c0,0.2,0.2,0.3,0.6,0.3c0.4,0,0.6-0.1,0.6-0.4L39.6,5.6z"/>
	</g>
</g>
</svg>
