<?xml version="1.0" encoding="utf-8"?>
<!-- Generator: Adobe Illustrator 19.2.1, SVG Export Plug-In . SVG Version: 6.00 Build 0)  -->
<svg version="1.1" id="Capa_1" xmlns="http://www.w3.org/2000/svg" xmlns:xlink="http://www.w3.org/1999/xlink" x="0px" y="0px"
	 viewBox="0 0 50 50" style="enable-background:new 0 0 50 50;" xml:space="preserve">
<style type="text/css">
	.st0{fill:#434142;}
</style>
<g>
	<g>
		<g>
			<path class="st0" d="M47.1,7.8H2.9C2,7.8,1.3,8.5,1.3,9.4v31.2c0,0.9,0.7,1.6,1.6,1.6H47c0.9,0,1.6-0.7,1.6-1.6V9.4
				C48.7,8.5,47.9,7.8,47.1,7.8z M45.5,39h-41V11h40.9L45.5,39L45.5,39z"/>
			<path class="st0" d="M47.1,42.5H2.9c-1.1,0-1.9-0.9-1.9-1.9V9.4c0-1.1,0.9-1.9,1.9-1.9H47c1.1,0,1.9,0.9,1.9,1.9v31.2
				C49,41.7,48.1,42.5,47.1,42.5z M2.9,8.1c-0.7,0-1.3,0.6-1.3,1.3v31.2c0,0.7,0.6,1.3,1.3,1.3H47c0.7,0,1.3-0.6,1.3-1.3V9.4
				c0-0.7-0.6-1.3-1.3-1.3C47,8.1,2.9,8.1,2.9,8.1z M45.8,39.3H4.2V10.7h41.5L45.8,39.3L45.8,39.3z M4.8,38.7h40.3V11.3H4.8V38.7z"
				/>
		</g>
		<g>
			<path class="st0" d="M8.7,18.6l15.4,9.5c0.3,0.2,0.5,0.2,0.8,0.2s0.6-0.1,0.8-0.2l15.4-9.5c0.8-0.5,1-1.5,0.5-2.2
				c-0.5-0.8-1.5-1-2.2-0.5l-14.6,9l-14.6-9c-0.8-0.5-1.7-0.2-2.2,0.5C7.8,17.1,8,18.1,8.7,18.6z"/>
			<path class="st0" d="M25,28.6c-0.4,0-0.7-0.1-1-0.3L8.6,18.8c-0.4-0.3-0.7-0.7-0.9-1.2s0-1,0.2-1.4c0.6-0.9,1.7-1.2,2.6-0.6
				L25,24.4l14.4-8.9c0.4-0.3,0.9-0.4,1.4-0.2c0.5,0.1,0.9,0.4,1.2,0.9c0.3,0.4,0.4,0.9,0.2,1.4c-0.1,0.5-0.4,0.9-0.9,1.2L26,28.3
				C25.7,28.5,25.4,28.6,25,28.6z M9.6,15.9c-0.4,0-0.9,0.2-1.1,0.6c-0.2,0.3-0.2,0.6-0.2,1c0.1,0.3,0.3,0.6,0.6,0.8l0,0l15.4,9.5
				c0.4,0.3,1,0.3,1.4,0l15.4-9.5c0.3-0.2,0.5-0.5,0.6-0.8s0-0.7-0.2-1S41,16,40.7,15.9s-0.7,0-1,0.2L25,25.2l-14.7-9.1
				C10.1,16,9.8,15.9,9.6,15.9z"/>
		</g>
	</g>
</g>
</svg>
