<?xml version="1.0" encoding="utf-8"?>
<!-- Generator: Adobe Illustrator 19.2.1, SVG Export Plug-In . SVG Version: 6.00 Build 0)  -->
<svg version="1.1" id="Capa_1" xmlns="http://www.w3.org/2000/svg" xmlns:xlink="http://www.w3.org/1999/xlink" x="0px" y="0px"
	 viewBox="0 0 50 50" style="enable-background:new 0 0 50 50;" xml:space="preserve">
<style type="text/css">
	.st0{fill:#EFEC8E;}
	.st1{fill:#434142;}
	.st2{fill:#FFFFFF;}
	.st3{fill:#5A7E9E;}
	.st4{fill:#81AEA4;}
	.st5{fill:#D89796;}
	.st6{fill:#8077AC;}
	.st7{fill:#80AEA4;}
	.st8{fill:#EEEB8B;}
	.st9{fill:#FFFFFF;stroke:#FFFFFF;stroke-width:0.6876;stroke-miterlimit:10;}
</style>
<g>
	<g>
		<g>
			<path class="st9" d="M25,47.3c-0.5,0-0.9-0.2-1.2-0.5L4.7,26.2c0,0,0,0,0,0c-2.3-2.6-3.6-6-3.6-9.6c0-3.6,1.3-7,3.6-9.6L5,6.7
				c2.4-2.6,5.5-4.1,8.9-4.1s6.5,1.4,8.9,4.1L25,9.2l2.3-2.5c2.4-2.6,5.5-4.1,8.9-4.1s6.5,1.4,8.9,4.1L45.3,7c2.3,2.6,3.6,6,3.6,9.6
				s-1.3,7-3.6,9.6c0,0,0,0,0,0L26.2,46.8C25.9,47.1,25.5,47.3,25,47.3z M7.1,24L25,43.3L42.9,24c3.7-4.1,3.7-10.7,0-14.8l-0.3-0.3
				c-1.7-1.9-4-3-6.5-3c-2.4,0-4.7,1.1-6.5,3l-3.5,3.8c-0.3,0.3-0.7,0.5-1.2,0.5c-0.5,0-0.9-0.2-1.2-0.5l-3.5-3.8
				c-1.7-1.9-4-3-6.5-3S9.1,7,7.4,8.9L7.1,9.2C3.4,13.3,3.4,19.9,7.1,24z"/>
		</g>
	</g>
</g>
</svg>
