<?xml version="1.0" encoding="utf-8"?>
<!-- Generator: Adobe Illustrator 19.2.1, SVG Export Plug-In . SVG Version: 6.00 Build 0)  -->
<svg version="1.1" id="Capa_1" xmlns="http://www.w3.org/2000/svg" xmlns:xlink="http://www.w3.org/1999/xlink" x="0px" y="0px"
	 viewBox="0 0 50 14" style="enable-background:new 0 0 50 14;" xml:space="preserve">
<style type="text/css">
	.st0{fill:#FFFFFF;}
	.st1{fill:#8077AC;}
</style>
<g>
	<g>
		<rect x="4.2" y="3.9" class="st0" width="44.1" height="9"/>
		<path class="st1" d="M48.6,13.2H4V3.6h44.7v9.6H48.6z M4.5,12.6H48V4.2H4.5V12.6z"/>
	</g>
	<g>
		<rect x="2.2" y="1.5" class="st0" width="44.1" height="9"/>
		<path class="st1" d="M46.6,10.8H1.9V1.2h44.7C46.6,1.2,46.6,10.8,46.6,10.8z M2.4,10.2H46V1.8H2.4V10.2z"/>
	</g>
	<g>
		<path class="st1" d="M10.4,6.2c0,0.1-0.1,0.1-0.1,0.1h-2L8.2,6.9c0,0.1,0,0.1,0,0.2c0,0.2,0.2,0.4,0.7,0.4c0.6,0,0.8-0.2,0.8-0.5
			V6.9c0-0.1,0.1-0.1,0.2-0.1h0.4c0.1,0,0.1,0.1,0.1,0.1V7C10.3,7.6,10,8,8.9,8C8,8,7.6,7.7,7.6,7.1c0-0.1,0-0.1,0-0.1l0.2-1.7
			c0.1-0.6,0.5-1,1.5-1c0.9,0,1.3,0.3,1.3,0.9v0.1L10.4,6.2z M8.3,5.8h1.5l0.1-0.4V5.3c0-0.2-0.2-0.4-0.7-0.4
			c-0.6,0-0.8,0.2-0.8,0.5L8.3,5.8z"/>
		<path class="st1" d="M13.7,7.6C13.5,7.8,13.1,8,12.5,8c-0.6,0-0.9-0.3-0.9-0.8c0-0.1,0-0.1,0-0.2l0.2-1.8c0.1-0.6,0.4-1,1.1-1
			c0.6,0,1,0.3,1.2,0.4l0.2-1.7c0-0.1,0.1-0.1,0.2-0.1h0.4C15,2.8,15,2.9,15,2.9l-0.6,4.8c0,0.1-0.1,0.1-0.2,0.1h-0.4
			c-0.1,0-0.1,0-0.1-0.1V7.6z M12.2,6.9c0,0.1,0,0.1,0,0.1c0,0.2,0.1,0.4,0.5,0.4c0.5,0,0.9-0.3,1-0.4l0.2-1.8
			c-0.1-0.1-0.5-0.4-0.9-0.4S12.4,5,12.4,5.3L12.2,6.9z"/>
		<path class="st1" d="M17.9,7.7c-0.2,0.2-0.6,0.4-1.2,0.4s-1-0.3-1-0.8V7.2L16,4.6c0-0.1,0.1-0.1,0.2-0.1h0.4c0.1,0,0.1,0,0.1,0.1
			L16.4,7v0.1c0,0.2,0.1,0.4,0.5,0.4c0.5,0,0.8-0.2,1-0.4l0.3-2.6c0-0.1,0.1-0.1,0.2-0.1h0.4c0.1,0,0.1,0.1,0.1,0.1l-0.4,3.4
			C18.5,8,18.4,8,18.3,8H18c-0.1,0-0.1,0-0.1-0.1V7.7z"/>
		<path class="st1" d="M23,5.2c0,0,0,0.1,0,0.2v0.1c0,0.1-0.1,0.1-0.2,0.1h-0.4c-0.1,0-0.1,0-0.1-0.1V5.4c0-0.1,0-0.1,0-0.1
			c0-0.2-0.2-0.4-0.7-0.4c-0.6,0-0.7,0.2-0.8,0.5L20.6,7c0,0.1,0,0.1,0,0.2c0,0.3,0.2,0.4,0.7,0.4c0.6,0,0.7-0.2,0.8-0.5V7
			c0-0.1,0.1-0.1,0.1-0.1h0.4c0.1,0,0.1,0.1,0.1,0.1v0.2c-0.1,0.6-0.4,1-1.5,1c-0.9,0-1.3-0.3-1.3-0.9V7.2l0.2-1.7
			c0.1-0.6,0.5-1,1.5-1C22.7,4.3,23,4.7,23,5.2z"/>
		<path class="st1" d="M26.1,7.6C25.9,7.8,25.5,8,24.8,8c-0.6,0-0.9-0.3-0.9-0.8c0-0.1,0-0.1,0-0.2l0.2-1.8c0.1-0.6,0.4-1,1.1-1
			c0.6,0,1,0.3,1.2,0.4V4.4c0-0.1,0.1-0.1,0.2-0.1H27c0.1,0,0.1,0,0.1,0.1l-0.4,3.4c0,0.1-0.1,0.1-0.2,0.1h-0.4
			c-0.1,0-0.1,0-0.1-0.1L26.1,7.6z M24.6,7v0.1c0,0.2,0.1,0.4,0.5,0.4c0.5,0,0.9-0.3,1-0.4l0.2-1.8c-0.1-0.1-0.5-0.4-0.9-0.4
			s-0.6,0.2-0.6,0.5L24.6,7z"/>
		<path class="st1" d="M31.2,5.2c0,0,0,0.1,0,0.2v0.1c0,0.1-0.1,0.1-0.2,0.1h-0.4c-0.1,0-0.1,0-0.1-0.1V5.4c0-0.1,0-0.1,0-0.1
			c0-0.2-0.2-0.4-0.7-0.4c-0.6,0-0.7,0.2-0.8,0.5L28.8,7c0,0.1,0,0.1,0,0.2c0,0.3,0.2,0.4,0.7,0.4c0.6,0,0.7-0.2,0.8-0.5V7
			c0-0.1,0.1-0.1,0.1-0.1h0.4c0.1,0,0.1,0.1,0.1,0.1v0.2c-0.1,0.6-0.4,1-1.5,1c-0.9,0-1.3-0.3-1.3-0.9V7.2l0.2-1.7
			c0.1-0.6,0.5-1,1.5-1C30.8,4.3,31.2,4.7,31.2,5.2z"/>
		<path class="st1" d="M32.7,7.9C32.7,8,32.6,8,32.5,8h-0.4C32,8,32,8,32,7.9l0.4-3.4c0-0.1,0.1-0.1,0.1-0.1H33c0.1,0,0.1,0,0.1,0.1
			L32.7,7.9z M33.2,3.7c0,0.1-0.1,0.1-0.1,0.1h-0.4c-0.1,0-0.1,0-0.1-0.1L32.7,3c0-0.1,0.1-0.1,0.2-0.1h0.4c0.1,0,0.1,0,0.1,0.1
			L33.2,3.7z"/>
		<path class="st1" d="M34.3,5.3c0.1-0.6,0.5-1,1.6-1c0.9,0,1.4,0.3,1.4,0.9v0.1L37.1,7c-0.1,0.6-0.5,1-1.6,1
			c-0.9,0-1.4-0.4-1.4-0.9V7L34.3,5.3z M36.6,5.4L36.6,5.4c0-0.4-0.2-0.5-0.7-0.5c-0.6,0-0.8,0.2-0.8,0.5L34.9,7v0.1
			c0,0.3,0.2,0.4,0.7,0.4c0.6,0,0.8-0.2,0.8-0.5L36.6,5.4z M36.3,3.8c0,0-0.1,0.1-0.2,0.1h-0.4c-0.1,0-0.1,0-0.1-0.1L36.1,3
			c0.1-0.1,0.1-0.1,0.2-0.1h0.5c0.1,0,0.1,0.1,0.1,0.1L36.3,3.8z"/>
		<path class="st1" d="M39.3,4.4c0.1,0,0.1,0,0.1,0.1v0.2c0.2-0.2,0.6-0.4,1.2-0.4c0.6,0,0.9,0.3,0.9,0.8c0,0,0,0.1,0,0.2l-0.3,2.6
			C41.2,8,41.1,8,41,8h-0.4c-0.1,0-0.1,0-0.1-0.1l0.3-2.4c0-0.1,0-0.1,0-0.1c0-0.2-0.1-0.4-0.5-0.4c-0.5,0-0.9,0.2-1.1,0.4L39,7.9
			C39,8,38.9,8,38.8,8h-0.4c-0.1,0-0.1,0-0.1-0.1l0.4-3.4c0-0.1,0.1-0.1,0.1-0.1H39.3z"/>
	</g>
</g>
</svg>
