<?xml version="1.0" encoding="utf-8"?>
<!-- Generator: Adobe Illustrator 19.2.1, SVG Export Plug-In . SVG Version: 6.00 Build 0)  -->
<svg version="1.1" id="Capa_1" xmlns="http://www.w3.org/2000/svg" xmlns:xlink="http://www.w3.org/1999/xlink" x="0px" y="0px"
	 viewBox="0 0 47.2 11.2" style="enable-background:new 0 0 47.2 11.2;" xml:space="preserve">
<style type="text/css">
	.st0{fill:#FFFFFF;}
	.st1{fill:#8077AC;}
</style>
<g>
	<g>
		<rect x="2.9" y="2.8" class="st0" width="43.5" height="7.6"/>
		<path class="st1" d="M46.6,10.6h-44V2.6h44V10.6z M3.1,10.1h43V3.1h-43V10.1z"/>
	</g>
	<g>
		<rect x="0.8" y="0.8" class="st0" width="43.5" height="7.6"/>
		<path class="st1" d="M44.6,8.6h-44V0.6h44V8.6z M1.1,8.1h43V1.1h-43V8.1z"/>
	</g>
	<g>
		<path class="st1" d="M7.8,4.8c0,0.1,0,0.1-0.1,0.1H6L5.9,5.4c0,0.1,0,0.1,0,0.1c0,0.2,0.1,0.3,0.6,0.3c0.5,0,0.6-0.2,0.7-0.4
			l0-0.1c0-0.1,0.1-0.1,0.1-0.1h0.3c0.1,0,0.1,0,0.1,0.1l0,0.1C7.6,6,7.3,6.3,6.4,6.3C5.6,6.3,5.3,6,5.3,5.6c0,0,0-0.1,0-0.1L5.5,4
			c0.1-0.5,0.4-0.8,1.3-0.8c0.8,0,1.1,0.3,1.1,0.7c0,0,0,0.1,0,0.1L7.8,4.8z M6,4.4h1.2l0-0.4c0,0,0-0.1,0-0.1
			c0-0.2-0.1-0.3-0.6-0.3C6.3,3.6,6.1,3.8,6.1,4L6,4.4z"/>
		<path class="st1" d="M10.5,6.3c-0.1,0-0.1-0.1-0.2-0.1l-0.6-1L9,6.2c0,0.1-0.1,0.1-0.2,0.1H8.4c-0.1,0-0.1-0.1,0-0.1l1.2-1.5
			L8.8,3.3c0-0.1,0-0.1,0.1-0.1h0.4c0.1,0,0.1,0.1,0.2,0.1l0.6,1l0.7-1c0-0.1,0.1-0.1,0.2-0.1h0.4c0.1,0,0.1,0.1,0,0.1l-1.1,1.4
			l0.8,1.4c0,0.1,0,0.1-0.1,0.1H10.5z"/>
		<path class="st1" d="M12.8,3.3l0,0.2c0.2-0.1,0.5-0.4,1.1-0.4c0.5,0,0.8,0.3,0.8,0.7c0,0,0,0.1,0,0.1l-0.2,1.5
			c-0.1,0.5-0.3,0.8-1,0.8c-0.5,0-0.8-0.2-1-0.3l-0.2,1.4c0,0.1,0,0.1-0.1,0.1h-0.4c-0.1,0-0.1,0-0.1-0.1l0.5-4.1
			c0-0.1,0-0.1,0.1-0.1h0.3C12.7,3.2,12.8,3.3,12.8,3.3z M14,4.1c0,0,0-0.1,0-0.1c0-0.2-0.1-0.3-0.4-0.3c-0.4,0-0.7,0.2-0.9,0.3
			l-0.2,1.5c0.1,0.1,0.4,0.3,0.8,0.3c0.4,0,0.5-0.2,0.5-0.4L14,4.1z"/>
		<path class="st1" d="M15.6,4c0.1-0.5,0.4-0.8,1.3-0.8c0.8,0,1.1,0.3,1.1,0.7c0,0,0,0.1,0,0.1l-0.2,1.5c-0.1,0.5-0.4,0.8-1.3,0.8
			c-0.8,0-1.2-0.3-1.2-0.7c0,0,0-0.1,0-0.1L15.6,4z M17.5,4.1L17.5,4.1c0-0.3-0.2-0.4-0.6-0.4c-0.5,0-0.7,0.1-0.7,0.4L16,5.4
			c0,0,0,0,0,0.1c0,0.2,0.2,0.3,0.6,0.3c0.5,0,0.7-0.1,0.7-0.4L17.5,4.1z"/>
		<path class="st1" d="M20.8,4C20.8,3.9,20.8,3.9,20.8,4c0-0.3-0.2-0.4-0.5-0.4c-0.4,0-0.6,0.1-0.6,0.3l0,0.1c0,0.1,0,0.1,0,0.1
			c0,0.1,0,0.2,0.2,0.3l0.9,0.3c0.3,0.1,0.5,0.3,0.5,0.5c0,0,0,0.1,0,0.1l0,0.3c0,0.4-0.4,0.7-1.2,0.7c-0.8,0-1.1-0.3-1.1-0.6
			c0,0,0,0,0-0.1l0-0.1c0-0.1,0-0.1,0.1-0.1h0.3c0.1,0,0.1,0,0.1,0.1l0,0.1c0,0,0,0.1,0,0.1c0,0.2,0.2,0.3,0.6,0.3
			c0.4,0,0.6-0.1,0.7-0.3l0-0.1c0-0.1,0-0.1,0-0.1c0-0.1-0.1-0.2-0.3-0.3l-0.9-0.3c-0.3-0.1-0.4-0.3-0.4-0.6c0,0,0,0,0-0.1l0-0.2
			c0-0.4,0.3-0.7,1.2-0.7c0.7,0,1.1,0.3,1.1,0.7c0,0,0,0,0,0.1l0,0.1c0,0.1,0,0.1-0.1,0.1h-0.3c-0.1,0-0.1,0-0.1-0.1L20.8,4z"/>
		<path class="st1" d="M22.7,6.2c0,0.1,0,0.1-0.1,0.1h-0.4c-0.1,0-0.1,0-0.1-0.1l0.4-2.8c0-0.1,0-0.1,0.1-0.1h0.4
			c0.1,0,0.1,0,0.1,0.1L22.7,6.2z M23.1,2.6c0,0.1,0,0.1-0.1,0.1h-0.4c-0.1,0-0.1,0-0.1-0.1l0.1-0.6c0-0.1,0-0.1,0.1-0.1h0.4
			c0.1,0,0.1,0,0.1,0.1L23.1,2.6z"/>
		<path class="st1" d="M26.4,3.9c0,0,0,0.1,0,0.1l0,0.1c0,0.1,0,0.1-0.1,0.1h-0.3c-0.1,0-0.1,0-0.1-0.1l0-0.1c0,0,0-0.1,0-0.1
			c0-0.2-0.1-0.3-0.6-0.3c-0.5,0-0.6,0.1-0.7,0.4l-0.2,1.3c0,0,0,0.1,0,0.1c0,0.2,0.1,0.3,0.6,0.3c0.5,0,0.6-0.1,0.7-0.4l0-0.1
			c0-0.1,0-0.1,0.1-0.1h0.3c0.1,0,0.1,0,0.1,0.1l0,0.2C26.2,6,25.9,6.3,25,6.3c-0.8,0-1.1-0.3-1.1-0.7c0,0,0-0.1,0-0.1L24,4
			c0.1-0.5,0.4-0.8,1.3-0.8C26.1,3.2,26.4,3.5,26.4,3.9z"/>
		<path class="st1" d="M27.7,6.2c0,0.1,0,0.1-0.1,0.1h-0.4c-0.1,0-0.1,0-0.1-0.1l0.4-2.8c0-0.1,0-0.1,0.1-0.1H28
			c0.1,0,0.1,0,0.1,0.1L27.7,6.2z M28.2,2.6c0,0.1,0,0.1-0.1,0.1h-0.4c-0.1,0-0.1,0-0.1-0.1l0.1-0.6c0-0.1,0-0.1,0.1-0.1h0.4
			c0.1,0,0.1,0,0.1,0.1L28.2,2.6z"/>
		<path class="st1" d="M29.1,4c0.1-0.5,0.4-0.8,1.3-0.8c0.8,0,1.1,0.3,1.1,0.7c0,0,0,0.1,0,0.1l-0.2,1.5C31.3,6,30.9,6.3,30,6.3
			c-0.8,0-1.2-0.3-1.2-0.7c0,0,0-0.1,0-0.1L29.1,4z M31,4.1L31,4.1c0-0.3-0.2-0.4-0.6-0.4c-0.5,0-0.7,0.1-0.7,0.4l-0.2,1.4
			c0,0,0,0,0,0.1c0,0.2,0.2,0.3,0.6,0.3c0.5,0,0.7-0.1,0.7-0.4L31,4.1z"/>
		<path class="st1" d="M33.2,3.2c0.1,0,0.1,0,0.1,0.1l0,0.2c0.2-0.1,0.5-0.4,1.1-0.4c0.5,0,0.8,0.3,0.8,0.7c0,0,0,0.1,0,0.1
			l-0.3,2.2c0,0.1,0,0.1-0.1,0.1h-0.4c-0.1,0-0.1,0-0.1-0.1l0.2-2c0,0,0-0.1,0-0.1c0-0.2-0.1-0.3-0.4-0.3c-0.4,0-0.7,0.2-0.9,0.3
			L33,6.2c0,0.1,0,0.1-0.1,0.1h-0.4c-0.1,0-0.1,0-0.1-0.1l0.4-2.8c0-0.1,0-0.1,0.1-0.1H33.2z"/>
		<path class="st1" d="M38.5,4.8c0,0.1,0,0.1-0.1,0.1h-1.7l-0.1,0.5c0,0.1,0,0.1,0,0.1c0,0.2,0.1,0.3,0.6,0.3c0.5,0,0.6-0.2,0.7-0.4
			l0-0.1c0-0.1,0.1-0.1,0.1-0.1h0.3c0.1,0,0.1,0,0.1,0.1l0,0.1C38.3,6,38,6.3,37.1,6.3C36.3,6.3,36,6,36,5.6c0,0,0-0.1,0-0.1L36.2,4
			c0.1-0.5,0.4-0.8,1.3-0.8c0.8,0,1.1,0.3,1.1,0.7c0,0,0,0.1,0,0.1L38.5,4.8z M36.7,4.4h1.2l0-0.4C38,4,38,4,38,4
			c0-0.2-0.1-0.3-0.6-0.3c-0.5,0-0.6,0.2-0.7,0.4L36.7,4.4z"/>
		<path class="st1" d="M41.2,4C41.2,3.9,41.2,3.9,41.2,4c0-0.3-0.2-0.4-0.5-0.4c-0.4,0-0.6,0.1-0.6,0.3l0,0.1c0,0.1,0,0.1,0,0.1
			c0,0.1,0,0.2,0.2,0.3l0.9,0.3c0.3,0.1,0.5,0.3,0.5,0.5c0,0,0,0.1,0,0.1l0,0.3c0,0.4-0.4,0.7-1.2,0.7c-0.8,0-1.1-0.3-1.1-0.6
			c0,0,0,0,0-0.1l0-0.1c0-0.1,0-0.1,0.1-0.1h0.3c0.1,0,0.1,0,0.1,0.1l0,0.1c0,0,0,0.1,0,0.1c0,0.2,0.2,0.3,0.6,0.3
			c0.4,0,0.6-0.1,0.7-0.3l0-0.1c0-0.1,0-0.1,0-0.1c0-0.1-0.1-0.2-0.3-0.3L40,4.8c-0.3-0.1-0.4-0.3-0.4-0.6c0,0,0,0,0-0.1l0-0.2
			c0-0.4,0.3-0.7,1.2-0.7c0.7,0,1.1,0.3,1.1,0.7c0,0,0,0,0,0.1l0,0.1c0,0.1,0,0.1-0.1,0.1h-0.3c-0.1,0-0.1,0-0.1-0.1L41.2,4z"/>
	</g>
</g>
</svg>
