<?xml version="1.0" encoding="utf-8"?>
<!-- Generator: Adobe Illustrator 19.2.1, SVG Export Plug-In . SVG Version: 6.00 Build 0)  -->
<svg version="1.1" id="Capa_1" xmlns="http://www.w3.org/2000/svg" xmlns:xlink="http://www.w3.org/1999/xlink" x="0px" y="0px"
	 viewBox="0 0 50 50" style="enable-background:new 0 0 50 50;" xml:space="preserve">
<style type="text/css">
	.st0{fill:#EFEC8E;}
	.st1{fill:#434142;}
	.st2{fill:#FFFFFF;}
	.st3{fill:#5A7E9E;}
	.st4{fill:#81AEA4;}
	.st5{fill:#D89796;}
	.st6{fill:#8077AC;}
	.st7{fill:#80AEA4;}
	.st8{fill:#EEEB8B;}
	.st9{fill:#FFFFFF;stroke:#FFFFFF;stroke-width:0.6876;stroke-miterlimit:10;}
</style>
<g>
	<g>
		<path class="st7" d="M42.1,34.2c-2,0-2.9-1.3-3.7-2.2c-0.7-0.9-1-1.2-1.6-1.2c-0.6,0-0.9,0.3-1.6,1.2c-0.7,0.9-1.7,2.2-3.7,2.2
			c-2,0-2.9-1.3-3.7-2.2c-0.7-0.9-1-1.2-1.6-1.2c-0.7,0-1.3-0.6-1.3-1.3c0-0.7,0.6-1.3,1.3-1.3c2,0,2.9,1.3,3.7,2.2
			c0.7,0.9,1,1.2,1.6,1.2c0.6,0,0.9-0.3,1.6-1.2c0.7-0.9,1.7-2.2,3.7-2.2c2,0,2.9,1.3,3.7,2.2c0.7,0.9,1,1.2,1.6,1.2
			c0.6,0,0.9-0.3,1.6-1.2c0.7-0.9,1.7-2.2,3.7-2.2c0.7,0,1.3,0.6,1.3,1.3c0,0.7-0.6,1.3-1.3,1.3c-0.6,0-0.9,0.3-1.6,1.2
			C45,32.9,44,34.2,42.1,34.2z"/>
	</g>
	<path class="st8" d="M29.5,25.8c4,0,7.3-3.3,7.3-7.3s-3.3-7.3-7.3-7.3s-7.3,3.3-7.3,7.3S25.5,25.8,29.5,25.8"/>
	<path class="st5" d="M19.1,38.8c3.3,0,5.9-2.6,5.9-5.9c0-3.3-2.6-5.9-5.9-5.9s-5.9,2.6-5.9,5.9C13.2,36.2,15.9,38.8,19.1,38.8"/>
	<g>
		<path class="st3" d="M18.5,24.3c-2,0-3-1.3-3.7-2.3c-0.7-0.9-1-1.2-1.6-1.2c-0.6,0-0.9,0.3-1.5,1.2c-0.7,1-1.7,2.3-3.7,2.3
			c-2,0-3-1.3-3.7-2.3c-0.7-0.9-1-1.2-1.5-1.2c-0.7,0-1.4-0.6-1.4-1.4s0.6-1.4,1.4-1.4c2,0,3,1.3,3.7,2.3c0.7,0.9,1,1.2,1.5,1.2
			c0.6,0,0.9-0.3,1.6-1.2c0.7-1,1.7-2.3,3.7-2.3c2,0,3,1.3,3.7,2.3c0.7,0.9,1,1.2,1.6,1.2c0.6,0,0.9-0.3,1.5-1.2
			c0.7-1,1.7-2.3,3.7-2.3c0.7,0,1.4,0.6,1.4,1.4s-0.6,1.4-1.4,1.4c-0.6,0-0.9,0.3-1.5,1.2C21.5,23,20.5,24.3,18.5,24.3z"/>
	</g>
</g>
</svg>
