<?xml version="1.0" encoding="utf-8"?>
<!-- Generator: Adobe Illustrator 19.2.1, SVG Export Plug-In . SVG Version: 6.00 Build 0)  -->
<svg version="1.1" id="Capa_1" xmlns="http://www.w3.org/2000/svg" xmlns:xlink="http://www.w3.org/1999/xlink" x="0px" y="0px"
	 viewBox="0 0 50 21.4" style="enable-background:new 0 0 50 21.4;" xml:space="preserve">
<style type="text/css">
	.st0{fill:#D89796;}
	.st1{fill:#80AEA4;}
</style>
<g>
	<path class="st0" d="M39.6,20.1c5.1,0,9.3-4.2,9.3-9.3s-4.2-9.3-9.3-9.3s-9.3,4.2-9.3,9.3S34.5,20.1,39.6,20.1"/>
	<g>
		<path class="st1" d="M28,11.2c-3.1,0-4.6-2-5.8-3.5c-1.1-1.4-1.5-1.9-2.5-1.9s-1.5,0.5-2.5,1.9c-1.1,1.5-2.7,3.5-5.8,3.5
			s-4.6-2-5.8-3.5c-1-1.4-1.5-1.9-2.4-1.9c-1.1,0-2-0.9-2-2s0.9-2,2-2c3.1,0,4.6,2,5.8,3.5c1.1,1.4,1.5,1.9,2.5,1.9S13,6.7,14,5.3
			c1.1-1.5,2.7-3.5,5.8-3.5s4.6,2,5.8,3.5c1.1,1.4,1.5,1.9,2.5,1.9s1.5-0.5,2.5-1.9c1.1-1.5,2.7-3.5,5.8-3.5c1.1,0,2,0.9,2,2
			s-0.9,2-2,2c-1,0-1.5,0.5-2.5,1.9C32.6,9.2,31.1,11.2,28,11.2z"/>
	</g>
</g>
</svg>
