<?xml version="1.0" encoding="utf-8"?>
<!-- Generator: Adobe Illustrator 19.2.1, SVG Export Plug-In . SVG Version: 6.00 Build 0)  -->
<svg version="1.1" id="Capa_1" xmlns="http://www.w3.org/2000/svg" xmlns:xlink="http://www.w3.org/1999/xlink" x="0px" y="0px"
	 viewBox="0 0 50 13.7" style="enable-background:new 0 0 50 13.7;" xml:space="preserve">
<style type="text/css">
	.st0{fill:#FFFFFF;}
	.st1{fill:#5A7E9E;}
</style>
<g>
	<g>
		<g>
			<rect x="2.9" y="3.3" class="st0" width="46.4" height="9.6"/>
		</g>
		<g>
			<path class="st1" d="M49.6,13.2h-47V3h47V13.2z M3.2,12.6H49v-9H3.2V12.6z"/>
		</g>
	</g>
	<g>
		<g>
			<rect x="0.7" y="0.8" class="st0" width="46.4" height="9.6"/>
		</g>
		<g>
			<path class="st1" d="M47.4,10.7h-47V0.5h47V10.7z M1,10.1h45.8v-9H1V10.1z"/>
		</g>
	</g>
	<g>
		<path class="st1" d="M4.6,7.2c0-0.1,0-0.1,0-0.2l0.2-1.8c0.1-0.6,0.4-1,1.2-1c0.6,0,1,0.3,1.2,0.5l0-0.2c0-0.1,0.1-0.2,0.2-0.2
			h0.4c0.1,0,0.1,0.1,0.1,0.2L7.4,8.5c-0.1,0.6-0.5,1-1.6,1h-1c-0.1,0-0.2,0-0.1-0.1l0-0.3c0-0.1,0.1-0.1,0.2-0.1h1
			c0.6,0,0.8-0.2,0.8-0.5l0.1-0.8C6.6,7.8,6.2,8.1,5.6,8.1C4.9,8.1,4.6,7.7,4.6,7.2z M5.3,6.9c0,0.1,0,0.1,0,0.1
			c0,0.2,0.1,0.4,0.5,0.4c0.5,0,0.9-0.3,1.1-0.4l0.2-1.8C7,5.1,6.6,4.9,6.2,4.9c-0.4,0-0.6,0.2-0.6,0.5L5.3,6.9z"/>
		<path class="st1" d="M11.2,7.6C11,7.8,10.5,8.1,9.9,8.1c-0.6,0-1-0.3-1-0.9c0-0.1,0-0.1,0-0.2l0.2-1.8c0.1-0.6,0.4-1,1.2-1
			c0.6,0,1,0.3,1.2,0.5l0-0.2c0-0.1,0.1-0.2,0.2-0.2h0.4c0.1,0,0.1,0,0.1,0.2l-0.4,3.4C11.9,8,11.8,8,11.7,8h-0.4
			c-0.1,0-0.1,0-0.1-0.2L11.2,7.6z M9.7,6.9c0,0,0,0.1,0,0.1c0,0.2,0.1,0.4,0.5,0.4c0.5,0,0.9-0.3,1.1-0.4l0.2-1.8
			c-0.2-0.1-0.5-0.4-1-0.4c-0.4,0-0.6,0.2-0.6,0.5L9.7,6.9z"/>
		<path class="st1" d="M14.3,4.3c0.1,0,0.1,0,0.1,0.1l0,0.2c0.2-0.2,0.6-0.4,1.2-0.4c0.5,0,0.8,0.2,0.9,0.5c0.2-0.2,0.6-0.5,1.3-0.5
			c0.6,0,1,0.3,1,0.8c0,0,0,0.1,0,0.1l-0.3,2.7C18.5,8,18.5,8,18.4,8h-0.4c-0.1,0-0.1,0-0.1-0.2l0.3-2.5c0-0.1,0-0.1,0-0.1
			c0-0.2-0.2-0.4-0.5-0.4c-0.5,0-0.9,0.3-1,0.4c0,0,0,0.1,0,0.1l-0.3,2.5C16.3,8,16.2,8,16.1,8h-0.4c-0.1,0-0.1,0-0.1-0.2l0.3-2.5
			c0-0.1,0-0.1,0-0.1c0-0.2-0.2-0.4-0.5-0.4c-0.5,0-0.9,0.3-1,0.4L14,7.9C14,8,14,8,13.9,8h-0.4c-0.1,0-0.1,0-0.1-0.2l0.4-3.4
			c0-0.1,0.1-0.1,0.2-0.1H14.3z"/>
		<path class="st1" d="M22.2,7.6c-0.2,0.2-0.7,0.4-1.3,0.4c-0.6,0-1-0.3-1-0.9c0-0.1,0-0.1,0-0.2l0.2-1.8c0.1-0.6,0.4-1,1.2-1
			c0.6,0,1,0.3,1.2,0.5l0-0.2c0-0.1,0.1-0.2,0.2-0.2h0.4c0.1,0,0.1,0,0.1,0.2l-0.4,3.4C22.8,8,22.8,8,22.7,8h-0.4
			c-0.1,0-0.1,0-0.1-0.2L22.2,7.6z M20.6,6.9c0,0,0,0.1,0,0.1c0,0.2,0.1,0.4,0.5,0.4c0.5,0,0.9-0.3,1.1-0.4l0.2-1.8
			c-0.2-0.1-0.5-0.4-1-0.4c-0.4,0-0.6,0.2-0.6,0.5L20.6,6.9z"/>
		<path class="st1" d="M27.2,6.9c0,0.1,0,0.1,0,0.1c0,0.3,0.2,0.4,0.7,0.4h0.1c0.1,0,0.1,0.1,0.1,0.2l0,0.3C28.1,8,28.1,8,28,8h-0.2
			c-0.9,0-1.3-0.3-1.3-0.8c0-0.1,0-0.1,0-0.2l0.3-2.1h-0.4c-0.1,0-0.1-0.1-0.1-0.2l0-0.3c0-0.1,0.1-0.1,0.2-0.1l0.4,0h0l0.1-0.8
			c0-0.1,0.1-0.2,0.2-0.2h0.4c0.1,0,0.1,0.1,0.1,0.2l-0.1,0.8h0.8c0.1,0,0.1,0.1,0.1,0.1l0,0.3c0,0.1-0.1,0.1-0.2,0.1h-0.8L27.2,6.9
			z"/>
		<path class="st1" d="M29.4,5.2c0.1-0.6,0.5-1,1.6-1c0.9,0,1.4,0.4,1.4,0.9c0,0,0,0.1,0,0.1L32.2,7c-0.1,0.6-0.5,1-1.6,1
			c-1,0-1.4-0.4-1.4-0.9c0,0,0-0.1,0-0.1L29.4,5.2z M31.7,5.3L31.7,5.3c0-0.4-0.2-0.5-0.7-0.5c-0.6,0-0.8,0.2-0.9,0.5L29.9,7
			c0,0,0,0.1,0,0.1c0,0.3,0.2,0.4,0.7,0.4c0.6,0,0.8-0.2,0.9-0.5L31.7,5.3z"/>
		<path class="st1" d="M34.5,4.3c0.1,0,0.1,0,0.1,0.1l0,0.2c0.2-0.2,0.7-0.4,1.3-0.4c0.6,0,1,0.3,1,0.8c0,0,0,0.1,0,0.2l-0.3,2.6
			C36.5,8,36.4,8,36.3,8h-0.4c-0.1,0-0.1,0-0.1-0.2l0.3-2.5c0-0.1,0-0.1,0-0.1c0-0.2-0.1-0.4-0.5-0.4c-0.5,0-0.9,0.3-1.1,0.4
			l-0.3,2.6C34.2,8,34.1,8,34,8h-0.4c-0.1,0-0.1,0-0.1-0.2l0.4-3.4c0-0.1,0.1-0.1,0.2-0.1H34.5z"/>
		<path class="st1" d="M40.1,7.6c-0.2,0.2-0.7,0.4-1.3,0.4c-0.6,0-1-0.3-1-0.9c0-0.1,0-0.1,0-0.2l0.2-1.8c0.1-0.6,0.4-1,1.2-1
			c0.6,0,1,0.3,1.2,0.5l0-0.2c0-0.1,0.1-0.2,0.2-0.2h0.4c0.1,0,0.1,0,0.1,0.2l-0.4,3.4C40.8,8,40.7,8,40.6,8h-0.4
			c-0.1,0-0.1,0-0.1-0.2L40.1,7.6z M38.6,6.9c0,0,0,0.1,0,0.1c0,0.2,0.1,0.4,0.5,0.4c0.5,0,0.9-0.3,1.1-0.4l0.2-1.8
			c-0.2-0.1-0.5-0.4-1-0.4c-0.4,0-0.6,0.2-0.6,0.5L38.6,6.9z"/>
		<path class="st1" d="M43,7.9C42.9,8,42.9,8,42.8,8h-0.4c-0.1,0-0.1,0-0.1-0.2l0.6-5c0-0.1,0.1-0.2,0.2-0.2h0.4
			c0.1,0,0.1,0,0.1,0.2L43,7.9z"/>
	</g>
</g>
</svg>
