<?xml version="1.0" encoding="utf-8"?>
<!-- Generator: Adobe Illustrator 19.2.1, SVG Export Plug-In . SVG Version: 6.00 Build 0)  -->
<svg version="1.1" id="Capa_1" xmlns="http://www.w3.org/2000/svg" xmlns:xlink="http://www.w3.org/1999/xlink" x="0px" y="0px"
	 viewBox="0 0 50 12.6" style="enable-background:new 0 0 50 12.6;" xml:space="preserve">
<style type="text/css">
	.st0{fill:#FFFFFF;}
	.st1{fill:#8077AC;}
</style>
<g>
	<g>
		<rect x="3.2" y="3.1" class="st0" width="45.9" height="8.7"/>
		<path class="st1" d="M49.3,12H2.9V2.8h46.4V12z M3.4,11.5h45.3V3.4H3.4V11.5z"/>
	</g>
	<g>
		<rect x="1" y="0.8" class="st0" width="45.9" height="8.7"/>
		<path class="st1" d="M47.1,9.8H0.7V0.6h46.4V9.8z M1.3,9.2h45.3V1.1H1.3V9.2z"/>
	</g>
	<g>
		<path class="st1" d="M7.2,3.9c0.2-0.2,0.6-0.4,1.2-0.4c0.6,0,0.9,0.3,0.9,0.8c0,0,0,0.1,0,0.1L9,6.9C9,7,8.9,7.1,8.8,7.1H8.4
			c-0.1,0-0.1,0-0.1-0.1l0.3-2.4c0,0,0-0.1,0-0.1c0-0.2-0.1-0.4-0.5-0.4c-0.4,0-0.8,0.2-1,0.4L6.8,6.9c0,0.1-0.1,0.1-0.1,0.1H6.3
			c-0.1,0-0.1,0-0.1-0.1l0.6-4.7c0-0.1,0.1-0.1,0.1-0.1h0.4c0.1,0,0.1,0,0.1,0.1L7.2,3.9z"/>
		<path class="st1" d="M12.4,6.7c-0.2,0.2-0.6,0.4-1.2,0.4c-0.6,0-0.9-0.3-0.9-0.8c0,0,0-0.1,0-0.2l0.2-1.7c0.1-0.6,0.4-1,1.1-1
			c0.6,0,1,0.3,1.1,0.4l0-0.2c0-0.1,0-0.1,0.1-0.1h0.4c0.1,0,0.1,0,0.1,0.1L13,6.9C13,7,13,7.1,12.9,7.1h-0.4c-0.1,0-0.1,0-0.1-0.1
			L12.4,6.7z M11,6.1C11,6.1,11,6.1,11,6.1c0,0.3,0.1,0.5,0.5,0.5c0.4,0,0.8-0.2,1-0.4l0.2-1.7c-0.1-0.1-0.5-0.4-0.9-0.4
			c-0.4,0-0.6,0.2-0.6,0.5L11,6.1z"/>
		<path class="st1" d="M14.5,7.1c-0.1,0-0.1-0.1-0.1-0.1l0.6-4.7c0-0.1,0.1-0.1,0.1-0.1h0.4c0.1,0,0.1,0.1,0.1,0.1l-0.2,1.6
			c0.2-0.2,0.6-0.4,1.2-0.4c0.6,0,0.9,0.3,0.9,0.8c0,0,0,0.1,0,0.1l-0.2,1.7c-0.1,0.6-0.4,1-1.1,1c-0.6,0-0.9-0.3-1.1-0.4l0,0.2
			C15,7,15,7.1,14.9,7.1H14.5z M16.8,4.6C16.8,4.5,16.8,4.5,16.8,4.6c0-0.3-0.1-0.5-0.5-0.5c-0.5,0-0.8,0.2-1,0.4l-0.2,1.7
			c0.1,0.1,0.5,0.4,0.9,0.4c0.4,0,0.6-0.2,0.6-0.5L16.8,4.6z"/>
		<path class="st1" d="M19.1,6.9c0,0.1-0.1,0.1-0.1,0.1h-0.4c-0.1,0-0.1,0-0.1-0.1l0.4-3.2c0-0.1,0-0.1,0.1-0.1h0.4
			c0.1,0,0.1,0,0.1,0.1L19.1,6.9z M19.6,2.9c0,0.1,0,0.1-0.1,0.1h-0.4C19,3,18.9,3,19,2.9L19,2.3c0-0.1,0.1-0.1,0.1-0.1h0.4
			c0.1,0,0.1,0,0.1,0.1L19.6,2.9z"/>
		<path class="st1" d="M21.2,6.9c0,0.1,0,0.1-0.1,0.1h-0.4c-0.1,0-0.1,0-0.1-0.1l0.6-4.7c0-0.1,0.1-0.1,0.1-0.1h0.4
			c0.1,0,0.1,0,0.1,0.1L21.2,6.9z"/>
		<path class="st1" d="M23.2,6.9c0,0.1-0.1,0.1-0.1,0.1h-0.4c-0.1,0-0.1,0-0.1-0.1l0.4-3.2c0-0.1,0-0.1,0.1-0.1h0.4
			c0.1,0,0.1,0,0.1,0.1L23.2,6.9z M23.7,2.9c0,0.1,0,0.1-0.1,0.1h-0.4C23,3,23,3,23,2.9l0.1-0.6c0-0.1,0.1-0.1,0.1-0.1h0.4
			c0.1,0,0.1,0,0.1,0.1L23.7,2.9z"/>
		<path class="st1" d="M26.6,6.7c-0.2,0.2-0.6,0.4-1.2,0.4c-0.6,0-0.9-0.3-0.9-0.8c0,0,0-0.1,0-0.2l0.2-1.7c0.1-0.6,0.4-1,1.1-1
			c0.5,0,0.9,0.2,1.1,0.4l0.2-1.6c0-0.1,0.1-0.1,0.1-0.1h0.4c0.1,0,0.1,0,0.1,0.1l-0.6,4.7c0,0.1-0.1,0.1-0.1,0.1h-0.4
			c-0.1,0-0.1,0-0.1-0.1L26.6,6.7z M25.2,6c0,0,0,0.1,0,0.1c0,0.2,0.1,0.4,0.5,0.4c0.4,0,0.8-0.2,1-0.4l0.2-1.7
			c-0.1-0.1-0.5-0.4-0.9-0.4c-0.4,0-0.6,0.2-0.6,0.5L25.2,6z"/>
		<path class="st1" d="M30.7,6.7c-0.2,0.2-0.6,0.4-1.2,0.4c-0.6,0-0.9-0.3-0.9-0.8c0,0,0-0.1,0-0.2l0.2-1.7c0.1-0.6,0.4-1,1.1-1
			c0.6,0,1,0.3,1.1,0.4l0-0.2c0-0.1,0-0.1,0.1-0.1h0.4c0.1,0,0.1,0,0.1,0.1l-0.4,3.2c0,0.1-0.1,0.1-0.1,0.1h-0.4
			c-0.1,0-0.1,0-0.1-0.1L30.7,6.7z M29.3,6.1C29.3,6.1,29.3,6.1,29.3,6.1c0,0.3,0.1,0.5,0.5,0.5c0.4,0,0.8-0.2,1-0.4L31,4.5
			c-0.1-0.1-0.5-0.4-0.9-0.4c-0.4,0-0.6,0.2-0.6,0.5L29.3,6.1z"/>
		<path class="st1" d="M34.8,6.7c-0.2,0.2-0.6,0.4-1.2,0.4c-0.6,0-0.9-0.3-0.9-0.8c0,0,0-0.1,0-0.2l0.2-1.7c0.1-0.6,0.4-1,1.1-1
			c0.5,0,0.9,0.2,1.1,0.4l0.2-1.6c0-0.1,0.1-0.1,0.1-0.1h0.4c0.1,0,0.1,0,0.1,0.1l-0.6,4.7c0,0.1-0.1,0.1-0.1,0.1h-0.4
			c-0.1,0-0.1,0-0.1-0.1L34.8,6.7z M33.4,6c0,0,0,0.1,0,0.1c0,0.2,0.1,0.4,0.5,0.4c0.4,0,0.8-0.2,1-0.4l0.2-1.7
			c-0.1-0.1-0.5-0.4-0.9-0.4c-0.4,0-0.6,0.2-0.6,0.5L33.4,6z"/>
		<path class="st1" d="M39.6,5.3c0,0.1-0.1,0.1-0.1,0.1h-1.9l-0.1,0.6c0,0.1,0,0.1,0,0.1c0,0.2,0.2,0.4,0.7,0.4
			c0.5,0,0.7-0.2,0.8-0.5l0-0.1C38.9,6,39,5.9,39,5.9h0.4c0.1,0,0.1,0,0.1,0.1l0,0.1c-0.1,0.6-0.4,1-1.4,1c-0.9,0-1.3-0.3-1.3-0.8
			c0,0,0-0.1,0-0.1L37,4.5c0.1-0.6,0.4-1,1.5-1c0.9,0,1.3,0.3,1.3,0.8c0,0,0,0.1,0,0.1L39.6,5.3z M37.6,5H39l0.1-0.4
			c0,0,0-0.1,0-0.1c0-0.2-0.2-0.4-0.7-0.4c-0.5,0-0.7,0.2-0.8,0.5L37.6,5z"/>
		<path class="st1" d="M42.8,4.4c0,0,0-0.1,0-0.1c0-0.2-0.2-0.3-0.6-0.3c-0.4,0-0.7,0.1-0.7,0.3l0,0.1c0,0.1,0,0.1,0,0.1
			c0,0.1,0,0.2,0.2,0.3l1,0.4c0.4,0.1,0.6,0.4,0.6,0.6c0,0,0,0.1,0,0.2l0,0.4c0,0.4-0.4,0.8-1.4,0.8c-0.9,0-1.3-0.4-1.3-0.7
			c0,0,0,0,0-0.1l0-0.2c0-0.1,0-0.1,0.1-0.1h0.4c0.1,0,0.1,0,0.1,0.1l0,0.1c0,0,0,0.1,0,0.1c0,0.2,0.3,0.3,0.7,0.3
			c0.5,0,0.7-0.1,0.8-0.4l0-0.2c0-0.1,0-0.1,0-0.1c0-0.1-0.1-0.2-0.3-0.3l-1-0.3C41,5.2,40.8,5,40.8,4.7c0,0,0,0,0-0.1l0-0.2
			c0-0.4,0.4-0.8,1.4-0.8c0.9,0,1.2,0.4,1.2,0.8c0,0,0,0,0,0.1l0,0.1c0,0.1,0,0.1-0.1,0.1h-0.4c-0.1,0-0.1,0-0.1-0.1L42.8,4.4z"/>
	</g>
</g>
</svg>
