<?xml version="1.0" encoding="utf-8"?>
<!-- Generator: Adobe Illustrator 19.2.1, SVG Export Plug-In . SVG Version: 6.00 Build 0)  -->
<svg version="1.1" id="Capa_1" xmlns="http://www.w3.org/2000/svg" xmlns:xlink="http://www.w3.org/1999/xlink" x="0px" y="0px"
	 viewBox="0 0 50 21.4" style="enable-background:new 0 0 50 21.4;" xml:space="preserve">
<style type="text/css">
	.st0{fill:#FFFFFF;}
	.st1{fill:#5A7E9E;}
</style>
<g>
	<g>
		<g>
			<rect x="1.4" y="6.9" class="st0" width="42.3" height="12.1"/>
		</g>
		<g>
			<path class="st1" d="M44,19.3H1.1V6.5H44V19.3z M1.7,18.7h41.7V7.1H1.7V18.7z"/>
		</g>
	</g>
	<g>
		<g>
			<rect x="3.8" y="4.4" class="st0" width="42.3" height="12.1"/>
		</g>
		<g>
			<path class="st1" d="M46.4,16.8H3.5V4h42.9V16.8z M4.1,16.1h41.7V4.6H4.1V16.1z"/>
		</g>
	</g>
	<g>
		<g>
			<rect x="6.3" y="1.5" class="st0" width="42.3" height="12.1"/>
		</g>
		<g>
			<path class="st1" d="M48.9,14H6V1.3h42.9V14z M6.6,13.4h41.7V1.9H6.6V13.4z"/>
		</g>
	</g>
	<g>
		<path class="st1" d="M19.1,7h2.1l0.3-2.5c0-0.2,0.1-0.3,0.3-0.3h0.9c0.2,0,0.2,0.1,0.2,0.3l-0.8,6.2c0,0.2-0.1,0.3-0.2,0.3H21
			c-0.2,0-0.2-0.1-0.2-0.3l0.3-2.6H19l-0.3,2.6c0,0.2-0.1,0.3-0.3,0.3h-0.9c-0.2,0-0.2-0.1-0.2-0.3l0.8-6.2c0-0.2,0.1-0.3,0.3-0.3
			h0.9c0.2,0,0.2,0.1,0.2,0.3L19.1,7z"/>
		<path class="st1" d="M24.3,7.5C24.4,6.6,25.1,6,26.6,6c1.3,0,2,0.5,2,1.3c0,0.1,0,0.1,0,0.2l-0.3,2.2c-0.1,0.9-0.8,1.5-2.3,1.5
			c-1.3,0-2-0.5-2-1.3c0,0,0-0.1,0-0.2L24.3,7.5z M27.2,7.8c0-0.1,0-0.1,0-0.2c0-0.3-0.3-0.5-0.8-0.5c-0.6,0-0.9,0.2-0.9,0.5
			l-0.2,1.9c0,0.1,0,0.1,0,0.2c0,0.3,0.3,0.5,0.8,0.5c0.6,0,0.9-0.2,0.9-0.5L27.2,7.8z"/>
		<path class="st1" d="M31.1,10.8c0,0.2-0.1,0.3-0.3,0.3H30c-0.2,0-0.2-0.1-0.2-0.3l0.8-6.4c0-0.2,0.1-0.3,0.3-0.3h0.8
			c0.2,0,0.2,0.1,0.2,0.3L31.1,10.8z"/>
		<path class="st1" d="M35.8,10.5c-0.3,0.2-0.8,0.6-1.6,0.6c-0.9,0-1.3-0.5-1.3-1.2c0-0.1,0-0.2,0-0.2l0.3-2.2
			c0.1-0.9,0.5-1.4,1.6-1.4c0.8,0,1.3,0.3,1.5,0.5V6.4c0-0.2,0.1-0.2,0.3-0.2h0.8c0.1,0,0.2,0.1,0.2,0.2L37,10.8
			c0,0.2-0.1,0.3-0.3,0.3H36c-0.1,0-0.2-0.1-0.2-0.3V10.5z M34.2,9.5v0.1c0,0.2,0.1,0.4,0.5,0.4c0.5,0,1-0.3,1.2-0.4l0.2-1.9
			c-0.2-0.2-0.6-0.5-1.1-0.5c-0.4,0-0.6,0.2-0.6,0.5L34.2,9.5z"/>
	</g>
</g>
</svg>
