<?xml version="1.0" encoding="utf-8"?>
<!-- Generator: Adobe Illustrator 19.2.1, SVG Export Plug-In . SVG Version: 6.00 Build 0)  -->
<svg version="1.1" id="Capa_1" xmlns="http://www.w3.org/2000/svg" xmlns:xlink="http://www.w3.org/1999/xlink" x="0px" y="0px"
	 viewBox="0 0 50 12.6" style="enable-background:new 0 0 50 12.6;" xml:space="preserve">
<style type="text/css">
	.st0{fill:#FFFFFF;}
	.st1{fill:#8077AC;}
</style>
<g>
	<g>
		<rect x="3.7" y="3.2" class="st0" width="44.8" height="8.5"/>
		<path class="st1" d="M48.7,11.9H3.4v-9h45.4v9H48.7z M3.9,11.4h44.2V3.5H3.9V11.4z"/>
	</g>
	<g>
		<rect x="1.5" y="1" class="st0" width="44.8" height="8.5"/>
		<path class="st1" d="M46.6,9.7H1.3v-9h45.4v9H46.6z M1.8,9.1H46V1.2H1.8V9.1z"/>
	</g>
	<g>
		<path class="st1" d="M11.3,7.1c0,0.1,0,0.1-0.1,0.1h-0.4c-0.1,0-0.1,0-0.1-0.1l0.4-3.2c-0.1,0.2-0.2,0.4-0.2,0.5l-1,1.9
			c0,0.1-0.1,0.1-0.2,0.1H9.3c-0.1,0-0.1-0.1-0.2-0.1l-0.6-2c0-0.1-0.1-0.2-0.1-0.4L8,7.1c0,0.1,0,0.1-0.1,0.1H7.5
			c-0.1,0-0.1,0-0.1-0.1l0.5-4.4c0-0.1,0-0.1,0.1-0.1h0.4c0.1,0,0.1,0,0.1,0.1l0.9,2.6c0,0.1,0.1,0.3,0.1,0.4c0-0.1,0.1-0.3,0.2-0.4
			l1.5-2.8l0.1-0.1h0.4c0.1,0,0.1,0,0.1,0.1L11.3,7.1z"/>
		<path class="st1" d="M15.5,5.5c0,0.1-0.1,0.1-0.1,0.1h-1.9l-0.1,0.6c0,0.1,0,0.1,0,0.1c0,0.2,0.2,0.4,0.6,0.4
			c0.5,0,0.7-0.2,0.7-0.4V6.2c0-0.1,0.1-0.1,0.2-0.1h0.3c0.1,0,0.1,0,0.1,0.1v0.1c-0.1,0.6-0.4,0.9-1.4,0.9c-0.9,0-1.2-0.3-1.2-0.8
			V6.3l0.2-1.6c0.1-0.6,0.4-0.9,1.4-0.9c0.9,0,1.2,0.3,1.2,0.8v0.1V5.5z M13.5,5.1h1.4L15,4.7V4.6c0-0.2-0.2-0.4-0.6-0.4
			c-0.5,0-0.7,0.2-0.7,0.5L13.5,5.1z"/>
		<path class="st1" d="M17.4,3.8c0.1,0,0.1,0,0.1,0.1v0.2c0.2-0.2,0.6-0.4,1.2-0.4s0.9,0.3,0.9,0.8c0,0,0,0.1,0,0.2l-0.3,2.4
			c0,0.1-0.1,0.1-0.2,0.1h-0.4c-0.1,0-0.1,0-0.1-0.1l0.3-2.3V4.7c0-0.2-0.1-0.4-0.5-0.4s-0.8,0.2-1,0.4l-0.3,2.4
			c0,0.1-0.1,0.1-0.1,0.1h-0.4c-0.1,0-0.1,0-0.1-0.1l0.4-3.2c0-0.1,0-0.1,0.1-0.1H17.4z"/>
		<path class="st1" d="M23.4,4.5v0.1v0.1c0,0.1-0.1,0.1-0.1,0.1h-0.4c-0.1,0-0.1,0-0.1-0.1V4.6c0-0.1,0-0.1,0-0.1
			c0-0.2-0.2-0.4-0.6-0.4c-0.5,0-0.7,0.2-0.7,0.5l-0.2,1.5c0,0.1,0,0.1,0,0.2c0,0.2,0.2,0.4,0.6,0.4c0.5,0,0.7-0.2,0.7-0.5V6.1
			c0-0.1,0-0.1,0.1-0.1h0.4c0.1,0,0.1,0.1,0.1,0.1v0.2c-0.1,0.6-0.4,0.9-1.4,0.9c-0.9,0-1.2-0.3-1.2-0.8V6.3l0.2-1.6
			c0.1-0.6,0.4-0.9,1.4-0.9C23,3.7,23.4,4,23.4,4.5z"/>
		<path class="st1" d="M24.8,7c0,0.1-0.1,0.1-0.1,0.1h-0.4c-0.1,0-0.1,0-0.1-0.1l0.4-3.2c0-0.1,0-0.1,0.1-0.1h0.4
			c0.1,0,0.1,0,0.1,0.1L24.8,7z M25.3,3.1c0,0.1,0,0.1-0.1,0.1h-0.4c-0.1,0-0.1,0-0.1-0.1l0.1-0.6c0-0.1,0.1-0.1,0.1-0.1h0.4
			c0.1,0,0.1,0,0.1,0.1L25.3,3.1z"/>
		<path class="st1" d="M26.3,4.6c0.1-0.6,0.5-0.9,1.5-0.9c0.9,0,1.3,0.3,1.3,0.8v0.1l-0.2,1.7c-0.1,0.6-0.5,0.9-1.5,0.9
			c-0.9,0-1.3-0.3-1.3-0.8V6.3L26.3,4.6z M28.5,4.7L28.5,4.7c0-0.3-0.2-0.5-0.7-0.5S27.1,4.4,27,4.7l-0.2,1.5v0.1
			c0,0.3,0.2,0.4,0.7,0.4s0.7-0.2,0.8-0.5L28.5,4.7z"/>
		<path class="st1" d="M31,3.8c0.1,0,0.1,0,0.1,0.1v0.2c0.2-0.2,0.6-0.4,1.2-0.4s0.9,0.3,0.9,0.8c0,0,0,0.1,0,0.2l-0.3,2.4
			c0,0.1-0.1,0.1-0.2,0.1h-0.4c-0.1,0-0.1,0-0.1-0.1l0.3-2.3V4.7c0-0.2-0.1-0.4-0.5-0.4c-0.4,0-0.8,0.2-1,0.4l-0.3,2.4
			c0,0.1-0.1,0.1-0.1,0.1h-0.4c-0.1,0-0.1,0-0.1-0.1l0.4-3.2c0-0.1,0-0.1,0.1-0.1H31z"/>
		<path class="st1" d="M36.9,5.5c0,0.1-0.1,0.1-0.1,0.1h-1.9l-0.1,0.6c0,0.1,0,0.1,0,0.1c0,0.2,0.2,0.4,0.6,0.4
			c0.5,0,0.7-0.2,0.7-0.4V6.2c0-0.1,0.1-0.1,0.2-0.1h0.3c0.1,0,0.1,0,0.1,0.1v0.1c-0.1,0.6-0.4,0.9-1.4,0.9c-0.9,0-1.2-0.3-1.2-0.8
			V6.3l0.2-1.6c0.1-0.6,0.4-0.9,1.4-0.9c0.9,0,1.2,0.3,1.2,0.8v0.1V5.5z M34.9,5.1h1.4l0.1-0.4V4.6c0-0.2-0.2-0.4-0.6-0.4
			c-0.5,0-0.7,0.2-0.7,0.5L34.9,5.1z"/>
		<path class="st1" d="M40,4.6V4.5c0-0.2-0.2-0.3-0.6-0.3c-0.4,0-0.7,0.1-0.7,0.3v0.1c0,0.1,0,0.1,0,0.1c0,0.1,0,0.2,0.2,0.3l1,0.3
			c0.4,0.1,0.5,0.4,0.5,0.6c0,0,0,0.1,0,0.2v0.3c0,0.4-0.4,0.8-1.4,0.8c-0.9,0-1.2-0.3-1.2-0.7c0,0,0,0,0-0.1V6.2
			c0-0.1,0-0.1,0.1-0.1h0.4c0.1,0,0.1,0,0.1,0.1v0.1v0.1c0,0.2,0.3,0.3,0.7,0.3s0.7-0.1,0.8-0.4V6.1c0-0.1,0-0.1,0-0.1
			c0-0.1-0.1-0.2-0.3-0.3l-1-0.3c-0.3-0.1-0.5-0.3-0.5-0.7c0,0,0,0,0-0.1V4.4c0-0.4,0.4-0.8,1.3-0.8c0.8,0,1.2,0.4,1.2,0.8
			c0,0,0,0,0,0.1v0.1c0,0.1,0,0.1-0.1,0.1L40,4.6C40,4.7,40,4.7,40,4.6L40,4.6z"/>
	</g>
</g>
</svg>
