<?xml version="1.0" encoding="utf-8"?>
<!-- Generator: Adobe Illustrator 19.2.1, SVG Export Plug-In . SVG Version: 6.00 Build 0)  -->
<svg version="1.1" id="Capa_1" xmlns="http://www.w3.org/2000/svg" xmlns:xlink="http://www.w3.org/1999/xlink" x="0px" y="0px"
	 viewBox="0 0 50 50" style="enable-background:new 0 0 50 50;" xml:space="preserve">
<style type="text/css">
	.st0{fill:#EFEC8E;}
	.st1{fill:#434142;}
	.st2{fill:#FFFFFF;}
	.st3{fill:#5A7E9E;}
	.st4{fill:#81AEA4;}
	.st5{fill:#D89796;}
	.st6{fill:#8077AC;}
	.st7{fill:#80AEA4;}
	.st8{fill:#EEEB8B;}
	.st9{fill:#FFFFFF;stroke:#FFFFFF;stroke-width:0.6876;stroke-miterlimit:10;}
</style>
<g>
	<path class="st1" d="M45.2,18H4.8c-1.8,0-3.2-1.4-3.2-3.2v0c0-1.8,1.4-3.2,3.2-3.2h40.3c1.8,0,3.2,1.4,3.2,3.2v0
		C48.4,16.5,46.9,18,45.2,18z"/>
	<path class="st1" d="M45.2,28H4.8c-1.8,0-3.2-1.4-3.2-3.2v0c0-1.8,1.4-3.2,3.2-3.2l40.3,0c1.8,0,3.2,1.4,3.2,3.2v0
		C48.4,26.6,46.9,28,45.2,28z"/>
	<path class="st1" d="M45.2,38.5H4.8c-1.8,0-3.2-1.4-3.2-3.2v0c0-1.8,1.4-3.2,3.2-3.2h40.3c1.8,0,3.2,1.4,3.2,3.2v0
		C48.4,37,46.9,38.5,45.2,38.5z"/>
</g>
</svg>
