<?xml version="1.0" encoding="utf-8"?>
<!-- Generator: Adobe Illustrator 19.2.1, SVG Export Plug-In . SVG Version: 6.00 Build 0)  -->
<svg version="1.1" id="Capa_1" xmlns="http://www.w3.org/2000/svg" xmlns:xlink="http://www.w3.org/1999/xlink" x="0px" y="0px"
	 viewBox="0 0 50 14.8" style="enable-background:new 0 0 50 14.8;" xml:space="preserve">
<style type="text/css">
	.st0{fill:#FFFFFF;}
	.st1{fill:#5A7E9E;}
</style>
<g>
	<g>
		<g>
			<rect x="1.2" y="4.7" class="st0" width="43.7" height="8.9"/>
		</g>
		<g>
			<path class="st1" d="M45.1,13.8H0.9V4.5h44.2C45.1,4.5,45.1,13.8,45.1,13.8z M1.4,13.3h43.3V4.8H1.4V13.3z"/>
		</g>
	</g>
	<g>
		<g>
			<rect x="2.9" y="3" class="st0" width="43.7" height="8.9"/>
		</g>
		<g>
			<path class="st1" d="M46.9,12.1H2.7V2.8h44.2V12.1z M3.1,11.7h43.3V3.2H3.1V11.7z"/>
		</g>
	</g>
	<g>
		<g>
			<rect x="5.1" y="1.2" class="st0" width="43.7" height="8.9"/>
		</g>
		<g>
			<path class="st1" d="M49.1,10.3H4.9V1h44.2C49.1,1,49.1,10.3,49.1,10.3z M5.3,9.9h43.3V1.4H5.3V9.9z"/>
		</g>
	</g>
	<g>
		<path class="st1" d="M9.5,4c0.1,0,0.2,0.1,0.2,0.2v0.2c0.2-0.2,0.6-0.5,1.3-0.5c0.5,0,0.9,0.2,1,0.6c0.2-0.2,0.6-0.6,1.4-0.6
			c0.7,0,1.1,0.4,1.1,0.9c0,0,0,0.1,0,0.2l-0.3,2.9c0,0.1-0.1,0.2-0.2,0.2h-0.7c-0.1,0-0.2-0.1-0.2-0.2l0.3-2.5c0-0.1,0-0.1,0-0.2
			c0-0.2-0.1-0.3-0.4-0.3c-0.4,0-0.8,0.2-1,0.4v0.1L11.7,8c0,0.1-0.1,0.2-0.2,0.2h-0.7c-0.1,0-0.2-0.1-0.2-0.2l0.3-2.6
			c0-0.1,0-0.1,0-0.1c0-0.2-0.1-0.3-0.4-0.3c-0.4,0-0.8,0.2-0.9,0.4L9.3,8c0,0.1-0.1,0.2-0.2,0.2H8.3C8.2,8.2,8.1,8.1,8.1,8l0.5-3.7
			c0-0.1,0.1-0.2,0.2-0.2h0.7V4z"/>
		<path class="st1" d="M16.9,5.1c0.1-0.7,0.7-1.2,1.9-1.2c1.1,0,1.7,0.4,1.7,1.1v0.1l-0.2,1.8c-0.1,0.7-0.7,1.2-1.9,1.2
			c-1.1,0-1.7-0.4-1.7-1.1V6.9L16.9,5.1z M19.3,5.3c0-0.1,0-0.1,0-0.1c0-0.3-0.3-0.4-0.7-0.4c-0.5,0-0.7,0.1-0.8,0.4l-0.2,1.6
			c0,0.1,0,0.1,0,0.1c0,0.3,0.2,0.4,0.7,0.4s0.7-0.1,0.8-0.5L19.3,5.3z"/>
		<path class="st1" d="M23.9,4c0.1,0,0.2,0.1,0.2,0.2v0.2c0.2-0.2,0.6-0.5,1.3-0.5c0.5,0,0.9,0.2,1,0.6c0.2-0.2,0.6-0.6,1.4-0.6
			c0.7,0,1.1,0.4,1.1,0.9c0,0,0,0.1,0,0.2l-0.3,2.9c0,0.1-0.1,0.2-0.2,0.2h-0.7c-0.1,0-0.2-0.1-0.2-0.2l0.3-2.5c0-0.1,0-0.1,0-0.2
			c0-0.2-0.1-0.3-0.4-0.3c-0.4,0-0.8,0.2-1,0.4v0.1L26.1,8c0,0.1-0.1,0.2-0.2,0.2h-0.7C25.1,8.2,25,8.1,25,8l0.3-2.6
			c0-0.1,0-0.1,0-0.1c0-0.2-0.1-0.3-0.4-0.3c-0.4,0-0.8,0.2-0.9,0.4L23.7,8c0,0.1-0.1,0.2-0.2,0.2h-0.7c-0.1,0-0.2-0.1-0.2-0.2
			l0.5-3.7c0-0.1,0.1-0.2,0.2-0.2h0.6V4z"/>
		<path class="st1" d="M32.6,4.2v0.2c0.3-0.2,0.7-0.5,1.3-0.5c0.7,0,1.1,0.4,1.1,1C35,5,35,5,35,5.1l-0.2,1.8
			c-0.1,0.7-0.5,1.2-1.3,1.2c-0.6,0-1.1-0.3-1.3-0.4L32,9.5c0,0.1-0.1,0.2-0.2,0.2h-0.7c-0.1,0-0.2,0-0.2-0.2l0.7-5.4
			c0-0.1,0.1-0.2,0.2-0.2h0.6C32.5,4,32.6,4,32.6,4.2z M33.9,5.3c0-0.1,0-0.1,0-0.2c0-0.2-0.1-0.3-0.4-0.3c-0.4,0-0.8,0.2-1,0.4
			l-0.2,1.6c0.2,0.1,0.5,0.4,0.9,0.4s0.5-0.2,0.5-0.4L33.9,5.3z"/>
		<path class="st1" d="M37.4,5.1c0.1-0.7,0.7-1.2,1.9-1.2C40.4,3.9,41,4.3,41,5v0.1l-0.2,1.8c-0.1,0.7-0.7,1.2-1.9,1.2
			c-1.1,0-1.7-0.4-1.7-1.1V6.9L37.4,5.1z M39.9,5.3c0-0.1,0-0.1,0-0.1c0-0.3-0.3-0.4-0.7-0.4c-0.5,0-0.7,0.1-0.8,0.4l-0.2,1.6
			c0,0.1,0,0.1,0,0.1c0,0.3,0.2,0.4,0.7,0.4s0.7-0.1,0.8-0.5L39.9,5.3z"/>
		<path class="st1" d="M45.5,8.1c-0.1,0-0.2-0.1-0.3-0.2l-0.6-1.1l-0.9,1.1c-0.1,0.1-0.2,0.2-0.3,0.2h-0.7c-0.1,0-0.2-0.1-0.1-0.2
			L44.1,6l-1-1.8C43,4.1,43.1,4,43.2,4h0.7c0.1,0,0.2,0.1,0.3,0.2l0.6,1.1l0.8-1.1C45.7,4.1,45.8,4,45.9,4h0.7
			c0.1,0,0.2,0.1,0.1,0.2L45.2,6l1,1.8c0.1,0.1,0,0.2-0.1,0.2h-0.6V8.1z"/>
	</g>
</g>
</svg>
