<?xml version="1.0" encoding="utf-8"?>
<!-- Generator: Adobe Illustrator 19.2.1, SVG Export Plug-In . SVG Version: 6.00 Build 0)  -->
<svg version="1.1" id="Capa_1" xmlns="http://www.w3.org/2000/svg" xmlns:xlink="http://www.w3.org/1999/xlink" x="0px" y="0px"
	 viewBox="0 0 50 17" style="enable-background:new 0 0 50 17;" xml:space="preserve">
<style type="text/css">
	.st0{fill:#FFFFFF;}
	.st1{fill:#8077AC;}
</style>
<g>
	<g>
		<rect x="3.9" y="4.4" class="st0" width="44.6" height="11.3"/>
		<path class="st1" d="M48.8,16H3.6V4h45.2V16z M4.2,15.3h44V4.7h-44C4.2,4.7,4.2,15.3,4.2,15.3z"/>
	</g>
	<g>
		<rect x="1.5" y="1" class="st0" width="44.6" height="11.3"/>
		<path class="st1" d="M46.4,12.6H1.2v-12h45.2V12.6z M1.8,11.9h44V1.3h-44C1.8,1.3,1.8,11.9,1.8,11.9z"/>
	</g>
	<g>
		<path class="st1" d="M6.9,4.3c0.2,0,0.2,0.1,0.2,0.2v0.2c0.3-0.2,0.7-0.5,1.5-0.5c0.5,0,1,0.2,1.1,0.6c0.3-0.2,0.7-0.6,1.6-0.6
			c0.7,0,1.2,0.4,1.2,1.1c0,0.1,0,0.1,0,0.2l-0.4,3.2c0,0.2-0.1,0.2-0.3,0.2H11c-0.1,0-0.2-0.1-0.2-0.2l0.3-2.8c0-0.1,0-0.1,0-0.2
			c0-0.2-0.1-0.4-0.5-0.4c-0.5,0-0.9,0.3-1.1,0.4v0.1L9.1,8.7c0,0.2-0.1,0.2-0.3,0.2H8.4c-0.1,0-0.2-0.1-0.2-0.2l0.4-2.9
			c0-0.1,0-0.1,0-0.1c0-0.2-0.1-0.4-0.5-0.4C7.6,5.3,7.2,5.6,7,5.7l-0.4,3c0,0.2-0.1,0.2-0.2,0.2H5.6c-0.1,0-0.2-0.1-0.2-0.2
			l0.5-4.1C6,4.4,6,4.3,6.2,4.3H6.9z"/>
		<path class="st1" d="M14,5.6c0.1-0.8,0.7-1.4,2.1-1.4c1.2,0,1.9,0.5,1.9,1.2c0,0.1,0,0.1,0,0.2l-0.2,2C17.7,8.4,17.1,9,15.7,9
			c-1.2,0-1.9-0.5-1.9-1.2c0,0,0-0.1,0-0.2L14,5.6z M16.7,5.8c0-0.1,0-0.1,0-0.2c0-0.3-0.3-0.4-0.7-0.4c-0.5,0-0.8,0.2-0.8,0.5
			L15,7.4c0,0.1,0,0.1,0,0.2C15,7.9,15.2,8,15.7,8c0.5,0,0.8-0.2,0.8-0.5L16.7,5.8z"/>
		<path class="st1" d="M20.6,4.3c0.2,0,0.2,0.1,0.2,0.2v0.2c0.3-0.2,0.7-0.5,1.5-0.5c0.5,0,1,0.2,1.1,0.6c0.3-0.2,0.7-0.6,1.6-0.6
			c0.7,0,1.2,0.4,1.2,1.1c0,0.1,0,0.1,0,0.2l-0.4,3.2c0,0.2-0.1,0.2-0.3,0.2h-0.8c-0.1,0-0.2-0.1-0.2-0.2l0.3-2.8c0-0.1,0-0.1,0-0.2
			c0-0.2-0.1-0.4-0.5-0.4c-0.5,0-0.9,0.3-1.1,0.4v0.1l-0.4,2.9c0,0.2-0.1,0.2-0.3,0.2h-0.8c-0.1,0-0.2-0.1-0.2-0.2l0.4-2.9
			c0-0.1,0-0.1,0-0.1c0-0.2-0.1-0.4-0.5-0.4c-0.5,0-0.9,0.3-1.1,0.4l-0.4,3c0,0.2-0.1,0.2-0.2,0.2h-0.8c-0.1,0-0.2-0.1-0.2-0.2
			l0.5-4.1c0-0.2,0.1-0.2,0.2-0.2h1.2V4.3z"/>
		<path class="st1" d="M29.1,4.5v0.2c0.3-0.2,0.8-0.5,1.5-0.5c0.8,0,1.2,0.4,1.2,1.1c0,0.1,0,0.1,0,0.2l-0.2,2
			c-0.1,0.8-0.5,1.3-1.5,1.3c-0.7,0-1.2-0.3-1.4-0.5l-0.2,2c0,0.2-0.1,0.2-0.2,0.2h-0.8c-0.1,0-0.2,0-0.2-0.2l0.7-6
			c0-0.2,0.1-0.2,0.2-0.2h0.7C29.1,4.3,29.1,4.4,29.1,4.5z M30.6,5.8c0-0.1,0-0.1,0-0.2c0-0.2-0.1-0.3-0.4-0.3
			c-0.5,0-0.9,0.3-1.1,0.4l-0.2,1.8c0.2,0.1,0.6,0.4,1,0.4s0.5-0.2,0.6-0.5L30.6,5.8z"/>
		<path class="st1" d="M33.3,5.6c0.1-0.8,0.7-1.4,2.1-1.4c1.2,0,1.9,0.5,1.9,1.2c0,0.1,0,0.1,0,0.2l-0.2,2C37,8.4,36.4,9,35,9
			c-1.2,0-1.9-0.5-1.9-1.2c0,0,0-0.1,0-0.2L33.3,5.6z M36,5.8c0-0.1,0-0.1,0-0.2c0-0.3-0.3-0.4-0.7-0.4c-0.5,0-0.8,0.2-0.8,0.5
			l-0.2,1.7c0,0.1,0,0.1,0,0.2C34.3,7.9,34.5,8,35,8s0.8-0.2,0.8-0.5L36,5.8z"/>
		<path class="st1" d="M41.1,8.9c-0.2,0-0.2-0.1-0.3-0.2l-0.7-1.3l-1,1.3c-0.1,0.1-0.2,0.2-0.4,0.2H38c-0.2,0-0.2-0.1-0.1-0.2
			l1.7-2.1l-1.1-2c-0.1-0.1,0-0.2,0.1-0.2h0.8c0.2,0,0.2,0.1,0.3,0.2l0.7,1.2l0.9-1.2c0.1-0.1,0.2-0.2,0.4-0.2h0.8
			c0.2,0,0.2,0.1,0.1,0.2L41,6.7l1.1,2.1C42.2,8.9,42.1,9,42,9h-0.9V8.9z"/>
	</g>
</g>
</svg>
