<?xml version="1.0" encoding="utf-8"?>
<!-- Generator: Adobe Illustrator 19.2.1, SVG Export Plug-In . SVG Version: 6.00 Build 0)  -->
<svg version="1.1" id="Capa_1" xmlns="http://www.w3.org/2000/svg" xmlns:xlink="http://www.w3.org/1999/xlink" x="0px" y="0px"
	 viewBox="0 0 50 15.6" style="enable-background:new 0 0 50 15.6;" xml:space="preserve">
<style type="text/css">
	.st0{fill:#FFFFFF;}
	.st1{fill:#5A7E9E;}
</style>
<g>
	<g>
		<g>
			<rect x="3.6" y="3.8" class="st0" width="44.9" height="10.7"/>
		</g>
		<g>
			<path class="st1" d="M48.8,14.9H3.3V3.5h45.5V14.9z M3.9,14.2h44.2v-10H3.9V14.2z"/>
		</g>
	</g>
	<g>
		<g>
			<rect x="1.5" y="1.1" class="st0" width="44.9" height="10.7"/>
		</g>
		<g>
			<path class="st1" d="M46.7,12.1H1.2V0.7h45.5V12.1z M1.8,11.4H46v-10H1.8V11.4z"/>
		</g>
	</g>
	<g>
		<path class="st1" d="M7.1,4.5v0.3c0.3-0.2,0.7-0.5,1.4-0.5s1.1,0.4,1.1,1c0,0.1,0,0.1,0,0.2l-0.3,2C9.2,8.2,8.8,8.6,8,8.6
			c-0.7,0-1.1-0.3-1.3-0.5l-0.2,2c0,0.1-0.1,0.2-0.2,0.2H5.8c-0.1,0-0.2,0-0.1-0.2l0.7-5.6c0-0.1,0.1-0.2,0.2-0.2H7
			C7.1,4.3,7.1,4.3,7.1,4.5z M8.8,5.5c0-0.1,0-0.1,0-0.2c0-0.2-0.2-0.4-0.6-0.4c-0.5,0-1,0.3-1.2,0.4l-0.3,2C7,7.5,7.4,7.8,7.9,7.8
			s0.7-0.3,0.7-0.5L8.8,5.5z"/>
		<path class="st1" d="M13.5,4.4v0.4c0,0.1-0.1,0.2-0.2,0.2c-0.6,0-1.1,0.4-1.4,0.5l-0.3,2.8c0,0.1-0.1,0.2-0.2,0.2h-0.5
			c-0.1,0-0.2-0.1-0.1-0.2l0.5-3.9c0-0.1,0.1-0.2,0.2-0.2H12c0.1,0,0.2,0.1,0.1,0.2v0.4c0.3-0.2,0.7-0.6,1.4-0.6
			C13.5,4.2,13.5,4.3,13.5,4.4z"/>
		<path class="st1" d="M14.4,5.4c0.1-0.7,0.6-1.2,1.8-1.2c1.1,0,1.6,0.4,1.6,1c0,0.1,0,0.1,0,0.2l-0.2,2c-0.1,0.7-0.6,1.2-1.8,1.2
			c-1.1,0-1.6-0.4-1.6-1V7.5L14.4,5.4z M17,5.4L17,5.4c0-0.4-0.3-0.6-0.8-0.6c-0.6,0-0.9,0.2-1,0.6L15,7.3v0.1
			c0,0.3,0.2,0.5,0.8,0.5c0.6,0,0.9-0.2,1-0.6L17,5.4z"/>
		<path class="st1" d="M19.1,8.5C19,8.5,19,8.4,19,8.3l0.7-5.6c0-0.1,0.1-0.2,0.2-0.2h0.5c0.1,0,0.1,0.1,0.1,0.2l-0.2,2
			c0.3-0.2,0.7-0.5,1.4-0.5c0.7,0,1.1,0.4,1.1,1c0,0.1,0,0.1,0,0.2l-0.3,2c-0.1,0.7-0.5,1.1-1.3,1.1c-0.7,0-1.1-0.3-1.3-0.5
			l-0.1,0.3c0,0.1-0.1,0.2-0.2,0.2H19.1z M21.9,5.5c0-0.1,0-0.1,0-0.1c0-0.3-0.2-0.4-0.6-0.4c-0.5,0-1,0.3-1.2,0.4l-0.2,2
			c0.2,0.1,0.5,0.4,1.1,0.4c0.5,0,0.7-0.3,0.7-0.5L21.9,5.5z"/>
		<path class="st1" d="M24.6,8.3c0,0.1-0.1,0.2-0.2,0.2h-0.5c-0.1,0-0.2-0.1-0.1-0.2l0.7-5.6c0-0.1,0.1-0.2,0.2-0.2h0.5
			c0.1,0,0.1,0.1,0.1,0.2L24.6,8.3z"/>
		<path class="st1" d="M29.5,6.4c0,0.1-0.1,0.2-0.2,0.2H27v0.7c0,0.1,0,0.1,0,0.2C27,7.8,27.2,8,27.8,8c0.6,0,0.9-0.2,0.9-0.5V7.4
			c0-0.1,0.1-0.2,0.2-0.2h0.4c0.1,0,0.1,0.1,0.1,0.2v0.1c-0.1,0.7-0.5,1.2-1.7,1.2c-1.1,0-1.5-0.4-1.5-1c0-0.1,0-0.1,0-0.2l0.2-2
			c0.1-0.7,0.5-1.2,1.7-1.2c1,0,1.5,0.4,1.5,1c0,0.1,0,0.1,0,0.2L29.5,6.4z M27.2,6h1.7L29,5.5V5.4c0-0.3-0.2-0.5-0.8-0.5
			c-0.6,0-0.9,0.2-0.9,0.6L27.2,6z"/>
		<path class="st1" d="M31.9,4.3C32,4.3,32,4.4,32,4.5v0.3c0.2-0.2,0.7-0.5,1.4-0.5c0.5,0,0.9,0.2,1,0.6c0.2-0.2,0.7-0.6,1.5-0.6
			c0.7,0,1.1,0.4,1.1,0.9c0,0.1,0,0.1,0,0.2l-0.4,3c0,0.1-0.1,0.2-0.2,0.2h-0.5c-0.1,0-0.2-0.1-0.1-0.2l0.3-2.8c0-0.1,0-0.1,0-0.2
			c0-0.3-0.2-0.4-0.6-0.4c-0.5,0-1,0.3-1.2,0.4v0.1L34,8.3c0,0.1-0.1,0.2-0.2,0.2h-0.5c-0.1,0-0.2-0.1-0.1-0.2l0.3-2.8
			c0-0.1,0-0.1,0-0.1c0-0.3-0.2-0.4-0.6-0.4c-0.5,0-1,0.3-1.2,0.4l-0.4,2.9c0,0.1-0.1,0.2-0.2,0.2h-0.5c-0.1,0-0.2-0.1-0.1-0.2
			L31,4.4c0-0.1,0.1-0.2,0.2-0.2h0.7V4.3z"/>
		<path class="st1" d="M40.7,8c-0.3,0.2-0.7,0.5-1.4,0.5s-1.1-0.4-1.1-1c0-0.1,0-0.1,0-0.2l0.3-2c0.1-0.7,0.5-1.1,1.3-1.1
			c0.7,0,1.1,0.3,1.4,0.5l0.1-0.3c0-0.1,0.1-0.2,0.2-0.2h0.4c0.1,0,0.2,0,0.1,0.2l-0.5,3.8c0,0.1-0.1,0.2-0.2,0.2h-0.5
			c-0.1,0-0.1,0-0.1-0.2V8z M39,7.3v0.1c0,0.2,0.2,0.4,0.6,0.4c0.5,0,1-0.3,1.2-0.4l0.3-2C40.9,5.3,40.5,5,40,5s-0.7,0.3-0.7,0.5
			L39,7.3z"/>
	</g>
</g>
</svg>
