<?xml version="1.0" encoding="utf-8"?>
<!-- Generator: Adobe Illustrator 19.2.1, SVG Export Plug-In . SVG Version: 6.00 Build 0)  -->
<svg version="1.1" id="Capa_1" xmlns="http://www.w3.org/2000/svg" xmlns:xlink="http://www.w3.org/1999/xlink" x="0px" y="0px"
	 viewBox="0 0 50 15.2" style="enable-background:new 0 0 50 15.2;" xml:space="preserve">
<style type="text/css">
	.st0{fill:#FFFFFF;}
	.st1{fill:#5A7E9E;}
</style>
<g>
	<g>
		<g>
			<rect x="4.1" y="3.8" class="st0" width="43.9" height="10.5"/>
		</g>
		<g>
			<path class="st1" d="M48.3,14.6H3.8v-11h44.5V14.6z M4.4,14h43.3V4.1H4.4V14z"/>
		</g>
	</g>
	<g>
		<g>
			<rect x="2" y="1.1" class="st0" width="43.9" height="10.5"/>
		</g>
		<g>
			<path class="st1" d="M46.2,11.8H1.7v-11h44.5V11.8z M2.3,11.3h43.3V1.4H2.3V11.3z"/>
		</g>
	</g>
	<g>
		<g>
			<path class="st1" d="M9,4.4v0.4C9,4.9,8.9,4.9,8.8,5C8.2,5,7.7,5.4,7.5,5.5L7.2,8.3c0,0.1-0.1,0.2-0.2,0.2H6.4
				c-0.1,0-0.1,0-0.1-0.2l0.5-3.8c0-0.1,0.1-0.2,0.2-0.2h0.4c0.1,0,0.1,0,0.1,0.2v0.4c0.3-0.2,0.7-0.6,1.4-0.6C9,4.2,9,4.2,9,4.4z"
				/>
		</g>
		<g>
			<path class="st1" d="M12.9,6.3c0,0.1-0.1,0.1-0.2,0.1h-2.2l-0.1,0.7c0,0.1,0,0.1,0,0.2c0,0.3,0.2,0.5,0.8,0.5s0.8-0.2,0.9-0.5
				V7.2c0-0.1,0.1-0.2,0.2-0.2h0.4c0.1,0,0.1,0.1,0.1,0.2v0.1c-0.1,0.7-0.5,1.1-1.7,1.1c-1,0-1.5-0.4-1.5-1c0-0.1,0-0.1,0-0.2l0.2-2
				c0.1-0.7,0.5-1.1,1.7-1.1c1,0,1.5,0.4,1.5,1c0,0,0,0.1,0,0.2L12.9,6.3z M10.6,5.9h1.6l0.1-0.5V5.3c0-0.3-0.2-0.5-0.8-0.5
				S10.7,5,10.6,5.4L10.6,5.9z"/>
		</g>
		<g>
			<path class="st1" d="M16.6,5.3c0-0.1,0-0.1,0-0.1c0-0.2-0.2-0.4-0.7-0.4c-0.5,0-0.8,0.1-0.8,0.4v0.1c0,0.1,0,0.1,0,0.1
				c0,0.1,0,0.3,0.3,0.4l1.2,0.4c0.4,0.1,0.6,0.4,0.6,0.7c0,0.1,0,0.1,0,0.2v0.4c0,0.5-0.5,0.9-1.7,0.9c-1,0-1.5-0.4-1.5-0.9
				c0,0,0,0,0-0.1V7.2c0-0.1,0.1-0.1,0.2-0.1h0.4c0.1,0,0.1,0,0.1,0.1v0.2c0,0.1,0,0.1,0,0.1c0,0.2,0.3,0.4,0.8,0.4
				c0.5,0,0.9-0.1,0.9-0.4V7.3c0-0.1,0-0.1,0-0.1c0-0.1-0.1-0.2-0.4-0.3l-1.1-0.4c-0.4-0.1-0.6-0.4-0.6-0.8c0,0,0,0,0-0.1V5.3
				c0.1-0.5,0.4-1,1.6-1c1,0,1.4,0.4,1.4,0.9c0,0,0,0,0,0.1v0.2c0,0.1-0.1,0.1-0.2,0.1h-0.4c-0.1,0-0.1,0-0.1-0.1V5.3z"/>
		</g>
		<g>
			<path class="st1" d="M20.8,7.9c-0.2,0.2-0.7,0.5-1.4,0.5c-0.7,0-1.1-0.4-1.1-0.9V7.4l0.4-2.9c0-0.1,0.1-0.2,0.2-0.2h0.5
				c0.1,0,0.1,0,0.1,0.2l-0.3,2.7v0.1c0,0.3,0.2,0.4,0.6,0.4c0.5,0,0.9-0.3,1.1-0.4l0.3-2.9c0-0.1,0.1-0.2,0.2-0.2h0.5
				C22,4.2,22,4.3,22,4.4l-0.5,3.8c0,0.1-0.1,0.2-0.2,0.2h-0.4c-0.1,0-0.1,0-0.1-0.2L20.8,7.9z"/>
		</g>
		<g>
			<path class="st1" d="M23.9,8.2c0,0.1-0.1,0.2-0.2,0.2h-0.5c-0.1,0-0.1,0-0.1-0.2l0.7-5.4c0-0.1,0.1-0.2,0.2-0.2h0.5
				c0.1,0,0.1,0,0.1,0.2L23.9,8.2z"/>
		</g>
		<g>
			<path class="st1" d="M26.5,7.1c0,0.1,0,0.1,0,0.1c0,0.3,0.2,0.4,0.8,0.4h0.2c0.1,0,0.1,0.1,0.1,0.2v0.3c0,0.1-0.1,0.2-0.2,0.2
				h-0.3c-1,0-1.4-0.3-1.4-0.9c0-0.1,0-0.1,0-0.2L26,4.9h-0.5c-0.1,0-0.1-0.1-0.1-0.2V4.4c0-0.1,0.1-0.1,0.2-0.2h0.5l0,0l0.1-0.8
				c0-0.1,0.1-0.2,0.2-0.2h0.5C27,3.2,27,3.3,27,3.4l-0.1,0.8h0.9c0.1,0,0.1,0.1,0.1,0.1v0.3c0,0.1-0.1,0.2-0.2,0.2h-0.8L26.5,7.1z"
				/>
		</g>
		<g>
			<path class="st1" d="M31.2,7.9c-0.3,0.2-0.7,0.5-1.4,0.5c-0.7,0-1.1-0.4-1.1-0.9c0-0.1,0-0.1,0-0.2l0.2-2
				c0.1-0.7,0.4-1.1,1.3-1.1c0.7,0,1.1,0.3,1.3,0.5V4.4c0-0.1,0.1-0.2,0.2-0.2h0.4c0.1,0,0.1,0,0.1,0.2l-0.5,3.8
				c0,0.1-0.1,0.2-0.2,0.2h-0.4c-0.1,0-0.1,0-0.1-0.2L31.2,7.9z M29.5,7.2v0.1c0,0.2,0.1,0.4,0.6,0.4s1-0.3,1.2-0.4l0.2-2
				c-0.2-0.1-0.5-0.4-1.1-0.4c-0.5,0-0.6,0.2-0.7,0.5L29.5,7.2z"/>
		</g>
		<g>
			<path class="st1" d="M36,7.9c-0.3,0.2-0.7,0.5-1.4,0.5S33.5,8,33.5,7.5c0-0.1,0-0.1,0-0.2l0.2-2c0.1-0.7,0.4-1.1,1.3-1.1
				c0.6,0,1.1,0.3,1.3,0.5l0.2-1.9c0-0.1,0.1-0.2,0.2-0.2h0.5c0.1,0,0.1,0.1,0.1,0.2l-0.7,5.4c0,0.1-0.1,0.2-0.2,0.2H36
				c-0.1,0-0.1,0-0.1-0.2L36,7.9z M34.3,7.1c0,0.1,0,0.1,0,0.1c0,0.2,0.2,0.4,0.6,0.4c0.5,0,1-0.3,1.2-0.4l0.2-2
				c-0.2-0.1-0.6-0.4-1.1-0.4S34.5,5,34.5,5.3L34.3,7.1z"/>
		</g>
		<g>
			<path class="st1" d="M38.5,5.3c0.1-0.7,0.6-1.1,1.8-1.1c1,0,1.5,0.4,1.5,1v0.1l-0.2,2C41.5,8,41,8.4,39.8,8.4c-1,0-1.5-0.4-1.5-1
				V7.3L38.5,5.3z M41,5.4L41,5.4c0-0.4-0.3-0.6-0.8-0.6c-0.6,0-0.9,0.2-0.9,0.6l-0.2,1.8v0.1c0,0.3,0.2,0.5,0.8,0.5
				s0.9-0.2,0.9-0.6L41,5.4z"/>
		</g>
	</g>
</g>
</svg>
