<?xml version="1.0" encoding="utf-8"?>
<!-- Generator: Adobe Illustrator 19.2.1, SVG Export Plug-In . SVG Version: 6.00 Build 0)  -->
<svg version="1.1" id="Capa_1" xmlns="http://www.w3.org/2000/svg" xmlns:xlink="http://www.w3.org/1999/xlink" x="0px" y="0px"
	 viewBox="0 0 50 15.1" style="enable-background:new 0 0 50 15.1;" xml:space="preserve">
<style type="text/css">
	.st0{fill:#FFFFFF;}
	.st1{fill:#5A7E9E;}
</style>
<g>
	<g>
		<g>
			<rect x="3.6" y="3.8" class="st0" width="44.8" height="10"/>
		</g>
		<g>
			<path class="st1" d="M48.8,14.1H3.3V3.5h45.4L48.8,14.1L48.8,14.1z M3.9,13.5h44.2V4.1H3.9V13.5z"/>
		</g>
	</g>
	<g>
		<g>
			<rect x="1.5" y="1.2" class="st0" width="44.8" height="10"/>
		</g>
		<g>
			<path class="st1" d="M46.7,11.5H1.2V0.9h45.4L46.7,11.5L46.7,11.5z M1.8,10.9H46V1.5H1.8V10.9z"/>
		</g>
	</g>
	<g>
		<path class="st1" d="M7.1,7.5c0,0.1,0,0.1,0,0.1C7.1,7.9,7.3,8,7.8,8h0.1C8,8,8,8.1,8,8.2v0.3c0,0.1-0.1,0.1-0.2,0.1H7.6
			c-1,0-1.3-0.3-1.3-0.9c0-0.1,0-0.1,0-0.2l0.3-2.2H6.1C6,5.4,6,5.4,6,5.3V5c0-0.1,0.1-0.1,0.2-0.1h0.4l0,0l0.1-0.8
			c0-0.1,0.1-0.2,0.2-0.2h0.5c0.1,0,0.1,0.1,0.1,0.2L7.4,4.9h0.8C8.3,4.9,8.3,5,8.3,5v0.3c0,0.1-0.1,0.1-0.2,0.1H7.3L7.1,7.5z"/>
		<path class="st1" d="M9.9,8.6c0,0.1-0.1,0.2-0.2,0.2H9.3c-0.1,0-0.1,0-0.1-0.2L9.6,5c0-0.1,0.1-0.2,0.2-0.2h0.5
			c0.1,0,0.1,0,0.1,0.2L9.9,8.6z M10.5,4.1c0,0.1-0.1,0.2-0.2,0.2H9.8c-0.1,0-0.1,0-0.1-0.2l0.1-0.7c0-0.1,0.1-0.2,0.2-0.2h0.5
			c0.1,0,0.1,0,0.1,0.2L10.5,4.1z"/>
		<path class="st1" d="M12.6,5v0.2c0.3-0.2,0.7-0.5,1.3-0.5c0.7,0,1,0.3,1,0.9c0,0.1,0,0.1,0,0.2l-0.2,1.9c-0.1,0.6-0.4,1.1-1.2,1.1
			c-0.6,0-1.1-0.3-1.3-0.4L12,10.2c0,0.1-0.1,0.2-0.2,0.2h-0.5c-0.1,0-0.2,0-0.1-0.2L11.8,5c0-0.1,0.1-0.2,0.2-0.2h0.4
			C12.5,4.8,12.6,4.8,12.6,5z M14.1,6c0-0.1,0-0.1,0-0.1c0-0.2-0.1-0.4-0.5-0.4c-0.5,0-0.9,0.3-1.1,0.4l-0.2,1.9
			c0.1,0.1,0.5,0.4,1,0.4c0.4,0,0.6-0.2,0.6-0.5L14.1,6z"/>
		<path class="st1" d="M16.2,5.8c0.1-0.6,0.6-1.1,1.7-1.1c1,0,1.5,0.4,1.5,0.9v0.1l-0.2,1.9c-0.1,0.6-0.5,1.1-1.7,1.1
			c-1,0-1.5-0.4-1.5-0.9V7.7L16.2,5.8z M18.6,5.9L18.6,5.9c0-0.4-0.2-0.5-0.8-0.5c-0.6,0-0.9,0.2-0.9,0.5l-0.2,1.8v0.1
			c0,0.3,0.2,0.4,0.8,0.4c0.6,0,0.9-0.2,0.9-0.5L18.6,5.9z"/>
		<path class="st1" d="M20.4,7.9c0-0.1,0-0.1,0-0.2l0.2-1.9c0.1-0.6,0.4-1.1,1.2-1.1c0.6,0,1.1,0.3,1.3,0.5V4.9
			c0-0.1,0.1-0.2,0.2-0.2h0.4c0.1,0,0.1,0.1,0.1,0.2l-0.5,4.3c-0.1,0.6-0.5,1.1-1.7,1.1h-1.1c-0.1,0-0.2,0-0.1-0.2V9.8
			c0-0.1,0.1-0.1,0.2-0.1h1.1c0.6,0,0.8-0.2,0.9-0.5l0.1-0.8c-0.3,0.2-0.7,0.4-1.3,0.4C20.8,8.8,20.4,8.4,20.4,7.9z M21.2,7.5
			c0,0.1,0,0.1,0,0.1c0,0.2,0.1,0.4,0.5,0.4c0.5,0,0.9-0.3,1.1-0.4L23,5.7c-0.2-0.1-0.5-0.4-1-0.4c-0.4,0-0.6,0.2-0.7,0.5L21.2,7.5z
			"/>
		<path class="st1" d="M27.6,4.9v0.4c0,0.1-0.1,0.1-0.2,0.1c-0.6,0-1.1,0.3-1.3,0.5l-0.3,2.6c0,0.1-0.1,0.2-0.2,0.2h-0.5
			c-0.1,0-0.1,0-0.1-0.2l0.4-3.6c0-0.1,0.1-0.1,0.2-0.1H26c0.1,0,0.1,0,0.1,0.1v0.3c0.2-0.2,0.7-0.5,1.3-0.5
			C27.5,4.7,27.6,4.8,27.6,4.9z"/>
		<path class="st1" d="M30.5,8.3c-0.3,0.2-0.7,0.5-1.3,0.5c-0.7,0-1-0.3-1-0.9c0-0.1,0-0.1,0-0.2l0.2-1.9c0.1-0.6,0.4-1.1,1.2-1.1
			c0.6,0,1.1,0.3,1.3,0.5V4.9c0-0.1,0.1-0.2,0.2-0.2h0.4c0.1,0,0.1,0,0.1,0.2l-0.4,3.6c0,0.1-0.1,0.2-0.2,0.2h-0.4
			c-0.1,0-0.1,0-0.1-0.2L30.5,8.3z M28.9,7.6v0.1c0,0.2,0.1,0.4,0.5,0.4c0.5,0,0.9-0.3,1.1-0.4l0.2-1.9c-0.2-0.1-0.5-0.4-1-0.4
			c-0.4,0-0.6,0.2-0.7,0.5L28.9,7.6z"/>
		<path class="st1" d="M33.4,4.8l0.1-0.6c0.1-0.6,0.5-1.1,1.7-1.1h0.1c0.1,0,0.2,0,0.1,0.1v0.3c0,0.1-0.1,0.2-0.2,0.2h-0.1
			c-0.6,0-0.8,0.2-0.9,0.5l-0.1,0.5H35c0.1,0,0.2,0,0.1,0.1v0.3c0,0.1-0.1,0.2-0.2,0.2h-0.8L33.5,10c0,0.1-0.1,0.2-0.2,0.2h-0.5
			c-0.1,0-0.1,0-0.1-0.2l0.6-4.7h-0.5c-0.1,0-0.1,0-0.1-0.2V4.8c0-0.1,0.1-0.1,0.2-0.1L33.4,4.8L33.4,4.8z"/>
		<path class="st1" d="M36.5,8.6c0,0.1-0.1,0.1-0.2,0.1h-0.5c-0.1,0-0.1,0-0.1-0.1L36.1,5c0-0.1,0.1-0.2,0.2-0.2h0.5
			c0.1,0,0.1,0,0.1,0.2L36.5,8.6z M37,4.2c0,0-0.1,0.1-0.2,0.1h-0.4c-0.1,0-0.1,0-0.1-0.1l0.6-0.8C37,3.3,37,3.3,37.1,3.3h0.5
			c0.1,0,0.1,0.1,0.1,0.1L37,4.2z"/>
		<path class="st1" d="M40.3,8.3C40,8.5,39.6,8.8,39,8.8c-0.7,0-1-0.3-1-0.9c0-0.1,0-0.1,0-0.2l0.2-1.9c0.1-0.6,0.4-1.1,1.2-1.1
			c0.6,0,1.1,0.3,1.3,0.5V4.9c0-0.1,0.1-0.2,0.2-0.2h0.4c0.1,0,0.1,0,0.1,0.2L41,8.6c0,0.1-0.1,0.2-0.2,0.2h-0.4
			c-0.1,0-0.1,0-0.1-0.2V8.3z M38.7,7.6v0.1c0,0.2,0.1,0.4,0.5,0.4c0.5,0,0.9-0.3,1.1-0.4l0.2-1.9c-0.2-0.1-0.5-0.4-1-0.4
			c-0.4,0-0.6,0.2-0.7,0.5L38.7,7.6z"/>
	</g>
</g>
</svg>
