<?xml version="1.0" encoding="utf-8"?>
<!-- Generator: Adobe Illustrator 19.2.1, SVG Export Plug-In . SVG Version: 6.00 Build 0)  -->
<svg version="1.1" id="Capa_1" xmlns="http://www.w3.org/2000/svg" xmlns:xlink="http://www.w3.org/1999/xlink" x="0px" y="0px"
	 viewBox="0 0 50 50" style="enable-background:new 0 0 50 50;" xml:space="preserve">
<style type="text/css">
	.st0{fill:#EFEC8E;}
	.st1{fill:#434142;}
	.st2{fill:#FFFFFF;}
	.st3{fill:#5A7E9E;}
	.st4{fill:#81AEA4;}
	.st5{fill:#D89796;}
	.st6{fill:#8077AC;}
	.st7{fill:#80AEA4;}
	.st8{fill:#EEEB8B;}
</style>
<g>
	<path class="st4" d="M3.5,10.9h42.9c0.4,0,0.7,0.3,0.7,0.7v3H2.8v-3C2.8,11.2,3.2,10.9,3.5,10.9z"/>
	<path class="st2" d="M46.5,41.8H3.5c-0.4,0-0.7-0.3-0.7-0.7V16.6h44.3v24.5C47.2,41.5,46.8,41.8,46.5,41.8z"/>
	<g>
		<path class="st3" d="M46.5,8.9H3.5c-1.5,0-2.7,1.2-2.7,2.7v29.5c0,1.5,1.2,2.7,2.7,2.7h42.9c1.5,0,2.7-1.2,2.7-2.7V11.6
			C49.1,10.1,47.9,8.9,46.5,8.9z M3.5,10.9h42.9c0.4,0,0.7,0.3,0.7,0.7v3H2.8v-3C2.8,11.2,3.2,10.9,3.5,10.9z M46.5,41.8H3.5
			c-0.4,0-0.7-0.3-0.7-0.7V16.6h44.3v24.5C47.2,41.5,46.8,41.8,46.5,41.8z"/>
		<path class="st3" d="M19.4,22.9c-0.4-0.4-1-0.4-1.4,0l-4.4,4.4c-0.2,0.2-0.3,0.4-0.3,0.7c0,0.3,0.1,0.5,0.3,0.7l4.4,4.4
			c0.2,0.2,0.4,0.3,0.7,0.3c0.3,0,0.5-0.1,0.7-0.3c0.4-0.4,0.4-1,0-1.4l-3.8-3.8l3.8-3.8C19.8,23.9,19.8,23.3,19.4,22.9z"/>
		<path class="st3" d="M31.3,22.9c-0.4-0.4-1-0.4-1.4,0c-0.4,0.4-0.4,1,0,1.4l3.8,3.8l-3.8,3.8c-0.4,0.4-0.4,1,0,1.4
			c0.2,0.2,0.4,0.3,0.7,0.3c0.3,0,0.5-0.1,0.7-0.3l4.4-4.4c0.2-0.2,0.3-0.4,0.3-0.7c0-0.3-0.1-0.5-0.3-0.7L31.3,22.9z"/>
		<path class="st3" d="M27.4,22.7c-0.5-0.2-1.1-0.1-1.3,0.4l-4.7,9.2c-0.2,0.5-0.1,1.1,0.4,1.3c0.1,0.1,0.3,0.1,0.4,0.1
			c0.4,0,0.7-0.2,0.9-0.5l4.7-9.2C28.1,23.6,27.9,23,27.4,22.7z"/>
	</g>
</g>
</svg>
