<?xml version="1.0" encoding="utf-8"?>
<!-- Generator: Adobe Illustrator 19.2.1, SVG Export Plug-In . SVG Version: 6.00 Build 0)  -->
<svg version="1.1" id="Capa_1" xmlns="http://www.w3.org/2000/svg" xmlns:xlink="http://www.w3.org/1999/xlink" x="0px" y="0px"
	 viewBox="0 0 50 15.1" style="enable-background:new 0 0 50 15.1;" xml:space="preserve">
<style type="text/css">
	.st0{fill:#FFFFFF;}
	.st1{fill:#5A7E9E;}
</style>
<g>
	<g>
		<g>
			<rect x="1.6" y="4.5" class="st0" width="42.9" height="9.3"/>
		</g>
		<g>
			<path class="st1" d="M44.7,14.1H1.4V4.4h43.3V14.1z M1.9,13.6h42.4V4.8H1.9V13.6z"/>
		</g>
	</g>
	<g>
		<g>
			<rect x="3.3" y="2.8" class="st0" width="42.9" height="9.3"/>
		</g>
		<g>
			<path class="st1" d="M46.4,12.3H3.1V2.6h43.3C46.4,2.6,46.4,12.3,46.4,12.3z M3.6,11.9H46V3.1H3.6V11.9z"/>
		</g>
	</g>
	<g>
		<g>
			<rect x="5.5" y="1" class="st0" width="42.9" height="9.3"/>
		</g>
		<g>
			<path class="st1" d="M48.6,10.5H5.3V0.8h43.3V10.5z M5.7,10h42.4V1.2H5.7V10z"/>
		</g>
	</g>
	<g>
		<path class="st1" d="M20.1,3.7c0.2,0,0.2,0.1,0.2,0.2l-1.6,3.9C18.6,7.9,18.6,8,18.5,8h-0.9c-0.1,0-0.2-0.1-0.2-0.2l-0.2-2
			c0-0.2,0-0.4,0-0.5c0,0-0.1,0.3-0.2,0.5l-0.9,2C16,7.9,16,8,15.9,8h-0.8c-0.1,0-0.2-0.1-0.2-0.2l-0.6-3.9c0-0.1,0.1-0.2,0.2-0.2
			h0.7c0.2,0,0.2,0.1,0.2,0.2l0.3,2.3c0,0.2,0,0.4,0,0.4s0.1-0.3,0.1-0.4l0.9-2.3c0.1-0.1,0.1-0.2,0.3-0.2h0.7
			c0.2,0,0.2,0.1,0.2,0.2l0.2,2.3c0,0.2,0,0.4,0,0.4s0.1-0.3,0.1-0.4l0.9-2.3c0.1-0.1,0.1-0.2,0.3-0.2H20.1z"/>
		<path class="st1" d="M22.4,4.9c0.1-0.8,0.7-1.3,2-1.3c1.1,0,1.7,0.4,1.7,1.1c0,0.1,0,0.1,0,0.2l-0.2,1.9c-0.1,0.8-0.7,1.3-2,1.3
			c-1.1,0-1.7-0.4-1.7-1.1V6.9L22.4,4.9z M25,5.1C25,5,25,5,25,5c0-0.3-0.3-0.4-0.7-0.4c-0.5,0-0.7,0.1-0.8,0.5l-0.2,1.6
			c0,0.1,0,0.1,0,0.1c0,0.3,0.2,0.4,0.7,0.4s0.7-0.1,0.8-0.5L25,5.1z"/>
		<path class="st1" d="M28.6,4.9c0.1-0.8,0.7-1.3,2-1.3c1.1,0,1.7,0.4,1.7,1.1c0,0.1,0,0.1,0,0.2l-0.2,1.9c-0.1,0.8-0.7,1.3-2,1.3
			c-1.1,0-1.7-0.4-1.7-1.1V6.9L28.6,4.9z M31.2,5.1c0-0.1,0-0.1,0-0.1c0-0.3-0.3-0.4-0.7-0.4c-0.5,0-0.7,0.1-0.8,0.5l-0.2,1.6
			c0,0.1,0,0.1,0,0.1c0,0.3,0.2,0.4,0.7,0.4s0.7-0.1,0.8-0.5L31.2,5.1z"/>
		<path class="st1" d="M35.4,3.7l0.1-0.5c0.1-0.8,0.7-1.3,2-1.3h0.1c0.1,0,0.2,0.1,0.2,0.2l-0.1,0.5c0,0.2-0.1,0.2-0.2,0.2h-0.1
			c-0.5,0-0.7,0.1-0.8,0.5l-0.1,0.4h0.7c0.2,0,0.2,0.1,0.2,0.2l0,0.5c0,0.2-0.1,0.2-0.2,0.2h-0.7l-0.6,4.9c0,0.2-0.1,0.2-0.2,0.2H35
			c-0.2,0-0.2-0.1-0.2-0.2l0.6-4.9h-0.5c-0.2,0-0.2-0.1-0.2-0.2L34.8,4c0-0.1,0.1-0.2,0.2-0.2L35.4,3.7L35.4,3.7z"/>
	</g>
</g>
</svg>
