<?xml version="1.0" encoding="utf-8"?>
<!-- Generator: Adobe Illustrator 19.2.1, SVG Export Plug-In . SVG Version: 6.00 Build 0)  -->
<svg version="1.1" id="Capa_1" xmlns="http://www.w3.org/2000/svg" xmlns:xlink="http://www.w3.org/1999/xlink" x="0px" y="0px"
	 viewBox="0 0 50 18.3" style="enable-background:new 0 0 50 18.3;" xml:space="preserve">
<style type="text/css">
	.st0{fill:#FFFFFF;}
	.st1{fill:#8077AC;}
</style>
<g>
	<g>
		<rect x="3.9" y="5" class="st0" width="44.7" height="12.1"/>
		<path class="st1" d="M48.9,17.5H3.5V4.5h45.4V17.5z M4.2,16.7h44V5.3h-44C4.2,5.3,4.2,16.7,4.2,16.7z"/>
	</g>
	<g>
		<rect x="1.4" y="1.5" class="st0" width="44.7" height="12.1"/>
		<path class="st1" d="M46.5,14H1.1V1h45.4V14z M1.8,13.3h44V1.9h-44C1.8,1.9,1.8,13.3,1.8,13.3z"/>
	</g>
	<g>
		<path class="st1" d="M18.7,5c0.2,0,0.3,0.1,0.2,0.2l-1.8,4.5C17,10,17,10,16.8,10h-1c-0.2,0-0.2-0.1-0.2-0.2l-0.3-2.4
			c0-0.2,0-0.5,0-0.5s-0.1,0.3-0.2,0.5l-1,2.4C14,9.9,14,10,13.8,10h-1c-0.2,0-0.2-0.1-0.2-0.2l-0.5-4.5C12.1,5,12.2,5,12.4,5h0.8
			c0.2,0,0.2,0.1,0.2,0.2l0.4,2.6c0,0.2,0,0.5,0,0.5s0.1-0.3,0.2-0.5l1-2.6C15.1,5.1,15.1,5,15.3,5H16c0.2,0,0.2,0.1,0.2,0.2
			l0.3,2.6c0,0.2,0,0.5,0,0.5s0.1-0.3,0.2-0.5l1-2.6C17.8,5.1,17.8,5,18,5H18.7z"/>
		<path class="st1" d="M20,6.5C20.1,5.6,20.8,5,22.3,5c1.3,0,2,0.5,2,1.3c0,0.1,0,0.1,0,0.2L24,8.5c-0.1,0.9-0.8,1.5-2.3,1.5
			c-1.3,0-2-0.5-2-1.3c0,0,0-0.1,0-0.2L20,6.5z M23,6.6c0-0.1,0-0.1,0-0.2c0-0.3-0.3-0.5-0.8-0.5c-0.6,0-0.9,0.2-0.9,0.5L21,8.4
			c0,0.1,0,0.1,0,0.2c0,0.3,0.3,0.5,0.8,0.5c0.6,0,0.9-0.2,0.9-0.5L23,6.6z"/>
		<path class="st1" d="M25.9,6.5C26,5.6,26.7,5,28.2,5c1.3,0,2,0.5,2,1.3c0,0.1,0,0.1,0,0.2l-0.3,2.2c-0.1,0.9-0.8,1.5-2.3,1.5
			c-1.3,0-2-0.5-2-1.3c0,0,0-0.1,0-0.2L25.9,6.5z M28.8,6.6c0-0.1,0-0.1,0-0.2c0-0.3-0.3-0.5-0.8-0.5c-0.6,0-0.9,0.2-0.9,0.5
			l-0.2,1.9c0,0.1,0,0.1,0,0.2c0,0.3,0.3,0.5,0.8,0.5c0.6,0,0.9-0.2,0.9-0.5L28.8,6.6z"/>
		<path class="st1" d="M32.4,5l0.1-0.6c0.1-0.9,0.8-1.5,2.3-1.5h0.1c0.2,0,0.2,0.1,0.2,0.2L35,3.9c0,0.2-0.1,0.2-0.3,0.2h-0.1
			c-0.6,0-0.8,0.2-0.9,0.5L33.6,5h0.8c0.2,0,0.2,0.1,0.2,0.2l-0.1,0.6C34.5,6,34.4,6,34.2,6h-0.8l-0.7,5.6c0,0.2-0.1,0.2-0.3,0.2
			h-0.8c-0.2,0-0.2-0.1-0.2-0.2L32.1,6h-0.5c-0.2,0-0.2-0.1-0.2-0.2l0.1-0.5c0-0.2,0.1-0.2,0.3-0.2L32.4,5L32.4,5z"/>
	</g>
</g>
</svg>
