<?xml version="1.0" encoding="utf-8"?>
<!-- Generator: Adobe Illustrator 19.2.1, SVG Export Plug-In . SVG Version: 6.00 Build 0)  -->
<svg version="1.1" id="Capa_1" xmlns="http://www.w3.org/2000/svg" xmlns:xlink="http://www.w3.org/1999/xlink" x="0px" y="0px"
	 viewBox="0 0 50 50" style="enable-background:new 0 0 50 50;" xml:space="preserve">
<style type="text/css">
	.st0{fill:#434142;}
</style>
<g>
	<path class="st0" d="M49.2,17.7C42.7,11.5,34.1,8,25,8l0,0l0,0c-9.1,0-17.7,3.5-24.2,9.8c-0.6,0.6-0.6,1.6,0,2.2
		c0.3,0.3,0.7,0.5,1.1,0.5s0.8-0.1,1.1-0.4c5.9-5.7,13.8-8.9,22-8.9c8.3,0,16.1,3.2,22,8.9c0.6,0.6,1.6,0.6,2.2,0
		C49.8,19.3,49.8,18.3,49.2,17.7z"/>
	<path class="st0" d="M25,19.1c-10.7,0-18.7,7.3-21.7,10.4c-0.6,0.6-0.6,1.5,0,2.1C6.3,34.8,14.3,42,25,42s18.7-7.3,21.7-10.4
		c0.6-0.6,0.6-1.5,0-2.1C43.7,26.4,35.7,19.1,25,19.1z M15.1,24.6c-1.1,1.8-1.6,3.9-1.6,6.2c0,2,0.5,4,1.4,5.7
		c-3.6-1.8-6.5-4.1-8.3-5.9C8.5,28.8,11.4,26.4,15.1,24.6z M21,38.6c-2.8-1.5-4.5-4.5-4.5-7.8c0-3.8,2.3-7.1,5.6-8.3
		c0.9-0.1,1.9-0.2,2.8-0.2c0.7,0,1.4,0,2.1,0.1c3.5,1.1,5.9,4.5,5.9,8.4c0,3.4-1.8,6.5-4.7,7.9C27.1,38.9,26,39,24.9,39
		C23.6,38.9,22.3,38.8,21,38.6z M34.5,36.8c1-1.8,1.6-3.9,1.6-6c0-2.3-0.6-4.5-1.8-6.5c4,1.8,7.2,4.4,9.1,6.3
		C41.5,32.4,38.4,35,34.5,36.8z"/>
	<path class="st0" d="M28.7,30.7c-2.2,0-3.9-1.7-3.9-3.9c-2.2,0-3.9,1.7-3.9,3.9s1.7,3.9,3.9,3.9C26.9,34.6,28.7,32.9,28.7,30.7z"/>
</g>
</svg>
