<?xml version="1.0" standalone="no"?>
<!DOCTYPE svg PUBLIC "-//W3C//DTD SVG 1.1//EN" "http://www.w3.org/Graphics/SVG/1.1/DTD/svg11.dtd" >
<svg xmlns="http://www.w3.org/2000/svg">
<metadata>Generated by IcoMoon</metadata>
<defs>
<font id="iconitos" horiz-adv-x="1024">
<font-face units-per-em="1024" ascent="960" descent="-64" />
<missing-glyph horiz-adv-x="1024" />
<glyph unicode="&#x20;" horiz-adv-x="512" d="" />
<glyph unicode="&#xe900;" d="M24.576 507.392h894.976v-194.56h-894.976v194.56z" />
<glyph unicode="&#xe901;" d="M923.648 308.736h-903.168v202.752h905.216v-202.752zM28.672 318.976h884.736v184.32h-884.736v-184.32z" />
<glyph unicode="&#xe902;" d="M59.392 544.256h894.976v-194.56h-894.976v194.56z" />
<glyph unicode="&#xe903;" d="M958.464 345.6h-903.168v202.752h905.216v-202.752zM65.536 353.792h884.736v184.32h-884.736v-184.32z" />
<glyph unicode="&#xe904;" d="M104.448 583.168h894.976v-194.56h-894.976v194.56z" />
<glyph unicode="&#xe905;" d="M1003.52 384.512h-903.168v202.752h903.168v-202.752zM110.592 392.704h884.736v184.32h-884.736v-184.32z" />
<glyph unicode="&#xe906;" d="M268.288 435.712c-6.144-4.096-14.336-10.24-28.672-10.24-16.384 0-24.576 8.192-24.576 22.528 0 2.048 0 2.048 0 4.096l4.096 38.912c2.048 16.384 10.24 26.624 28.672 26.624 14.336 0 22.528-6.144 28.672-10.24v4.096c0 2.048 2.048 4.096 4.096 4.096h14.336c2.048 0 4.096-2.048 4.096-4.096l-10.24-79.872c0-4.096-2.048-4.096-4.096-4.096h-14.336c-2.048 0-4.096 2.048-4.096 4.096l2.048 4.096zM239.616 456.192c0 0 0-2.048 0-2.048 0-4.096 2.048-6.144 8.192-6.144 8.192 0 18.432 6.144 22.528 8.192l4.096 34.816c-4.096 2.048-10.24 8.192-20.48 8.192-8.192 0-10.24-4.096-10.24-10.24l-4.096-32.768z" />
<glyph unicode="&#xe907;" d="M370.688 431.616c0-4.096-2.048-4.096-4.096-4.096h-14.336c-4.096 0-4.096 2.048-4.096 4.096l14.336 116.736c0 4.096 2.048 4.096 4.096 4.096h14.336c4.096 0 4.096-2.048 4.096-4.096l-14.336-116.736z" />
<glyph unicode="&#xe908;" d="M540.672 495.104c0-2.048 0-2.048 0-4.096v-2.048c0-4.096-2.048-4.096-4.096-4.096h-14.336c-2.048 0-4.096 2.048-4.096 4.096v2.048c0 2.048 0 2.048 0 2.048 0 4.096-4.096 8.192-12.288 8.192-10.24 0-14.336-2.048-14.336-10.24l-4.096-32.768c0-2.048 0-4.096 0-4.096 0-6.144 4.096-8.192 12.288-8.192 10.24 0 14.336 2.048 14.336 10.24v2.048c0 4.096 2.048 4.096 4.096 4.096h14.336c4.096 0 4.096-2.048 4.096-4.096v-4.096c-2.048-16.384-12.288-26.624-38.912-26.624-24.576 0-34.816 8.192-34.816 22.528 0 2.048 0 2.048 0 4.096l4.096 38.912c2.048 16.384 12.288 26.624 38.912 26.624 24.576-2.048 34.816-10.24 34.816-24.576z" />
<glyph unicode="&#xe909;" d="M589.824 491.008c2.048 16.384 14.336 26.624 40.96 26.624 24.576 0 36.864-8.192 36.864-22.528 0-2.048 0-2.048 0-4.096l-4.096-38.912c-2.048-16.384-14.336-26.624-40.96-26.624-24.576 0-36.864 8.192-36.864 24.576 0 0 0 2.048 0 2.048l4.096 38.912zM643.072 488.96c0 2.048 0 2.048 0 2.048 0 6.144-6.144 8.192-14.336 8.192-10.24 0-16.384-2.048-16.384-10.24l-4.096-34.816c0-2.048 0-2.048 0-2.048 0-6.144 4.096-8.192 14.336-8.192s16.384 2.048 16.384 10.24l4.096 34.816z" />
<glyph unicode="&#xe90a;" d="M739.328 431.616c-2.048-4.096-2.048-4.096-6.144-4.096h-14.336c-4.096 0-4.096 2.048-4.096 4.096l14.336 116.736c0 4.096 2.048 4.096 4.096 4.096h14.336c4.096 0 4.096-2.048 4.096-4.096l-12.288-116.736z" />
<glyph unicode="&#xe90b;" d="M870.4 470.528c0-2.048-2.048-4.096-4.096-4.096h-47.104v-10.24c0-2.048 0-2.048 0-4.096 0-6.144 4.096-8.192 12.288-8.192 10.24 0 14.336 4.096 14.336 8.192v2.048c0 2.048 2.048 4.096 4.096 4.096h12.288c4.096 0 4.096-2.048 4.096-4.096v-2.048c-2.048-16.384-10.24-26.624-38.912-26.624-24.576 0-34.816 8.192-34.816 22.528 0 2.048 0 2.048 0 4.096l4.096 38.912c2.048 16.384 12.288 26.624 38.912 26.624 22.528 0 34.816-8.192 34.816-22.528 0-2.048 0-2.048 0-4.096v-20.48zM821.248 482.816h28.672v6.144c0 0 0 2.048 0 2.048 0 6.144-4.096 8.192-12.288 8.192-10.24 0-14.336-4.096-14.336-10.24l-2.048-6.144z" />
<glyph unicode="&#xe90c;" d="M83.968 542.208h899.072v-243.712h-899.072v243.712z" />
<glyph unicode="&#xe90d;" d="M989.184 292.352h-911.36v256h913.408v-256zM90.112 304.64h884.736v231.424h-884.736v-231.424z" />
<glyph unicode="&#xe90e;" d="M40.96 597.504h899.072v-243.712h-899.072v243.712z" />
<glyph unicode="&#xe90f;" d="M946.176 347.648h-911.36v256h913.408v-256zM47.104 359.936h884.736v231.424h-884.736v-231.424z" />
<glyph unicode="&#xe910;" d="M241.664 431.616c-6.144-4.096-16.384-10.24-32.768-10.24s-26.624 8.192-26.624 24.576c0 2.048 0 4.096 0 4.096l6.144 45.056c2.048 18.432 10.24 28.672 30.72 28.672 14.336 0 24.576-6.144 30.72-10.24v4.096c0 4.096 2.048 4.096 6.144 4.096h16.384c2.048 0 4.096-2.048 4.096-4.096l-8.192-90.112c0-4.096-2.048-6.144-6.144-6.144h-16.384c-2.048 0-4.096 2.048-4.096 6.144v4.096zM210.944 454.144c0 0 0-2.048 0-2.048 0-4.096 2.048-8.192 10.24-8.192 10.24 0 18.432 6.144 24.576 8.192l4.096 38.912c-4.096 4.096-12.288 8.192-22.528 8.192-8.192 0-12.288-4.096-12.288-10.24l-4.096-34.816z" />
<glyph unicode="&#xe911;" d="M329.728 427.52c0-4.096-2.048-6.144-6.144-6.144h-16.384c-4.096 0-4.096 2.048-4.096 6.144l16.384 129.024c0 4.096 2.048 6.144 6.144 6.144h16.384c4.096 0 4.096-2.048 4.096-6.144l-16.384-129.024z" />
<glyph unicode="&#xe912;" d="M503.808 497.152c0-2.048 0-2.048 0-4.096v-2.048c0-4.096-2.048-4.096-6.144-4.096h-14.336c-4.096 0-4.096 2.048-4.096 4.096v2.048c0 2.048 0 2.048 0 2.048 0 6.144-4.096 8.192-14.336 8.192-12.288 0-16.384-4.096-16.384-10.24l-4.096-36.864c0-2.048 0-4.096 0-4.096 0-6.144 4.096-8.192 14.336-8.192 12.288 0 16.384 4.096 16.384 10.24v2.048c0 4.096 2.048 4.096 6.144 4.096h14.336c4.096 0 4.096-2.048 4.096-4.096v-4.096c-2.048-18.432-12.288-28.672-43.008-28.672-26.624 0-38.912 10.24-38.912 24.576 0 2.048 0 2.048 0 4.096l6.144 43.008c2.048 18.432 14.336 28.672 45.056 28.672 24.576-2.048 34.816-12.288 34.816-26.624z" />
<glyph unicode="&#xe913;" d="M532.48 493.056c2.048 18.432 16.384 28.672 45.056 28.672 26.624 0 40.96-10.24 40.96-26.624 0-2.048 0-2.048 0-4.096l-4.096-40.96c-2.048-18.432-16.384-28.672-45.056-28.672-26.624 0-40.96 10.24-40.96 26.624 0 0 0 2.048 0 4.096l4.096 40.96zM591.872 488.96c0 2.048 0 2.048 0 4.096 0 6.144-6.144 8.192-16.384 8.192s-16.384-4.096-18.432-10.24l-4.096-36.864c0-2.048 0-2.048 0-4.096 0-6.144 6.144-8.192 16.384-8.192s16.384 4.096 18.432 10.24l4.096 36.864z" />
<glyph unicode="&#xe914;" d="M671.744 427.52c0-4.096-2.048-6.144-6.144-6.144h-16.384c-4.096 0-4.096 2.048-4.096 6.144l16.384 129.024c0 4.096 2.048 6.144 6.144 6.144h16.384c4.096 0 4.096-2.048 4.096-6.144l-16.384-129.024z" />
<glyph unicode="&#xe915;" d="M790.528 470.528c0-4.096-2.048-4.096-6.144-4.096h-51.2l-2.048-12.288c0-2.048 0-4.096 0-4.096 0-6.144 4.096-8.192 14.336-8.192 12.288 0 16.384 4.096 16.384 10.24v2.048c0 4.096 2.048 4.096 6.144 4.096h14.336c4.096 0 4.096-2.048 4.096-4.096v-2.048c-2.048-16.384-12.288-28.672-43.008-28.672-26.624 0-38.912 10.24-38.912 24.576 0 2.048 0 2.048 0 4.096l6.144 43.008c2.048 18.432 14.336 28.672 43.008 28.672 24.576 0 36.864-10.24 36.864-24.576 0-2.048 0-2.048 0-4.096v-24.576zM737.28 482.816h30.72v8.192c0 0 0 2.048 0 4.096 0 6.144-4.096 8.192-14.336 8.192s-16.384-4.096-16.384-10.24v-10.24z" />
<glyph unicode="&#xe916;" glyph-name="Cristian_asterisco" d="M933.888 204.288c-14.336-24.576-40.96-38.912-67.584-38.912-14.336 0-26.624 4.096-38.912 10.24l-235.52 135.168v-272.384c0-43.008-34.816-77.824-77.824-77.824s-77.824 34.816-77.824 77.824v272.384l-237.568-135.168c-12.288-6.144-26.624-10.24-38.912-10.24-26.624 0-53.248 14.336-67.584 38.912-22.528 36.864-8.192 86.016 28.672 106.496l233.472 137.216-235.52 135.168c-36.864 22.528-51.2 69.632-28.672 108.544s69.632 51.2 108.544 28.672l235.52-135.168v270.336c0 43.008 34.816 77.824 77.824 77.824s77.824-34.816 77.824-77.824v-272.384l235.52 135.168c36.864 22.528 86.016 8.192 108.544-28.672s8.192-86.016-28.672-106.496l-235.52-135.168 235.52-135.168c36.864-22.528 51.2-71.68 28.672-108.544z" />
<glyph unicode="&#xe917;" glyph-name="Cristian_behance" d="M182.272 658.944c-12.288 0-22.528-10.24-22.528-22.528v-126.976c0-12.288 10.24-22.528 22.528-22.528h122.88c28.672 0 53.248 6.144 71.68 18.432 16.384 10.24 34.816 28.672 34.816 69.632 0 47.104-28.672 67.584-45.056 73.728h-2.048c-20.48 6.144-45.056 10.24-75.776 10.24h-106.496zM366.592 572.928c0-20.48-8.192-28.672-12.288-30.72-12.288-8.192-28.672-10.24-49.152-10.24h-100.352v81.92h83.968c24.576 0 45.056-2.048 59.392-8.192 8.192-2.048 18.432-10.24 18.432-32.768zM372.736 423.424c-16.384 8.192-38.912 12.288-67.584 12.288h-122.88c-12.288 0-22.528-10.24-22.528-22.528v-153.6c0-12.288 10.24-22.528 22.528-22.528h120.832c28.672 0 51.2 4.096 67.584 12.288 22.528 12.288 51.2 36.864 51.2 92.16 0 38.912-16.384 67.584-49.152 81.92zM352.256 290.304c-8.192-4.096-22.528-8.192-49.152-8.192h-98.304v108.544h100.352c22.528 0 38.912-2.048 49.152-8.192 10.24-4.096 22.528-14.336 22.528-40.96 0-34.816-14.336-45.056-24.576-51.2zM659.456 423.424c4.096-4.096 10.24-8.192 16.384-8.192h186.368c6.144 0 12.288 2.048 16.384 8.192 4.096 4.096 6.144 10.24 6.144 16.384-2.048 30.72-14.336 55.296-36.864 71.68-20.48 16.384-47.104 22.528-77.824 22.528-32.768 0-59.392-8.192-79.872-24.576-18.432-16.384-30.72-38.912-36.864-67.584 0-6.144 2.048-12.288 6.144-18.432zM714.752 470.528c2.048 2.048 4.096 4.096 4.096 4.096 10.24 10.24 28.672 14.336 49.152 14.336s36.864-4.096 51.2-14.336c2.048-2.048 4.096-2.048 6.144-4.096l10.24-10.24h-129.024l8.192 10.24zM884.736 706.048h-231.424c-12.288 0-22.528-10.24-22.528-22.528s10.24-22.528 22.528-22.528h231.424c12.288 0 22.528 10.24 22.528 22.528s-10.24 22.528-22.528 22.528zM993.28 439.808c-6.144 34.816-18.432 67.584-36.864 94.208-20.48 30.72-47.104 55.296-79.872 69.632-30.72 14.336-67.584 20.48-106.496 20.48-65.536 0-120.832-20.48-163.84-63.488-36.864-38.912-59.392-90.112-63.488-157.696l-2.048-28.672-8.192 26.624c-4.096 10.24-8.192 20.48-14.336 30.72-8.192 14.336-20.48 26.624-34.816 36.864l-6.144 4.096 6.144 4.096c4.096 4.096 8.192 8.192 10.24 12.288 20.48 24.576 32.768 59.392 32.768 98.304s-10.24 73.728-30.72 100.352c-32.768 45.056-90.112 69.632-165.888 69.632h-280.576c-12.288 0-22.528-10.24-22.528-22.528v-575.488c0-12.288 10.24-22.528 22.528-22.528h260.096c30.72 0 59.392 2.048 86.016 8.192 28.672 6.144 53.248 16.384 73.728 32.768 18.432 14.336 34.816 30.72 47.104 51.2s22.528 45.056 26.624 69.632l4.096 28.672 6.144-26.624c10.24-43.008 32.768-77.824 61.44-102.4 45.056-36.864 100.352-55.296 159.744-55.296 71.68 0 131.072 22.528 172.032 67.584 18.432 20.48 32.768 40.96 38.912 61.44 2.048 6.144 2.048 14.336-2.048 20.48s-10.24 10.24-18.432 10.24h-118.784c-6.144 0-12.288-2.048-16.384-8.192l-2.048-2.048c-2.048-2.048-2.048-2.048-4.096-4.096-12.288-10.24-26.624-14.336-45.056-14.336s-34.816 4.096-47.104 12.288c-14.336 8.192-22.528 20.48-28.672 38.912l-2.048 8.192h276.48c12.288 0 22.528 10.24 22.528 22.528-2.048 34.816-4.096 63.488-6.144 83.968zM477.184 253.44c-10.24-16.384-20.48-28.672-34.816-38.912-16.384-12.288-34.816-20.48-55.296-24.576-22.528-4.096-49.152-8.192-75.776-8.192h-239.616v532.48h256c63.488-2.048 106.496-18.432 131.072-51.2 14.336-20.48 22.528-45.056 22.528-75.776s-6.144-53.248-20.48-69.632c-8.192-10.24-20.48-18.432-36.864-26.624-8.192-4.096-12.288-12.288-12.288-20.48s6.144-16.384 14.336-20.48c24.576-8.192 43.008-22.528 55.296-40.96 12.288-20.48 18.432-43.008 18.432-71.68 0-32.768-8.192-59.392-22.528-83.968zM673.792 376.32c-6.144 0-12.288-2.048-16.384-6.144s-6.144-10.24-6.144-16.384c2.048-49.152 20.48-83.968 53.248-104.448 20.48-12.288 43.008-18.432 71.68-18.432 30.72 0 55.296 8.192 73.728 24.576l4.096 2.048h71.68l-8.192-10.24c-2.048-2.048-4.096-4.096-6.144-6.144-32.768-34.816-77.824-53.248-139.264-53.248-49.152 0-92.16 14.336-131.072 45.056-36.864 28.672-55.296 79.872-55.296 147.456 0 65.536 16.384 114.688 51.2 149.504s77.824 51.2 131.072 51.2c32.768 0 61.44-6.144 88.064-16.384 24.576-12.288 45.056-28.672 61.44-53.248 14.336-22.528 24.576-47.104 28.672-75.776 2.048-12.288 2.048-28.672 4.096-51.2v-6.144h-276.48z" />
<glyph unicode="&#xe918;" d="M28.672 501.248h884.736v-174.080h-884.736v174.080z" />
<glyph unicode="&#xe919;" d="M919.552 325.12h-892.928v180.224h892.928v-180.224zM32.768 331.264h878.592v165.888h-878.592v-165.888z" />
<glyph unicode="&#xe91a;" d="M65.536 534.016h884.736v-174.080h-884.736v174.080z" />
<glyph unicode="&#xe91b;" d="M954.368 355.84h-892.928v180.224h892.928v-180.224zM67.584 364.032h878.592v165.888h-878.592v-165.888z" />
<glyph unicode="&#xe91c;" d="M108.544 568.832h884.736v-174.080h-884.736v174.080z" />
<glyph unicode="&#xe91d;" d="M997.376 390.656h-892.928v180.224h892.928v-180.224zM112.64 398.848h878.592v165.888h-878.592v-165.888z" />
<glyph unicode="&#xe91e;" d="M161.792 439.808c-2.048 0-4.096 0-4.096 4.096l10.24 88.064c0 2.048 2.048 4.096 4.096 4.096h24.576c22.528 0 32.768-8.192 32.768-20.48 0 0 0-2.048 0-4.096v-8.192c0-8.192-4.096-12.288-12.288-16.384 8.192-2.048 12.288-10.24 12.288-16.384 0 0 0-2.048 0-2.048l-2.048-10.24c-2.048-12.288-10.24-22.528-36.864-22.528h-28.672zM182.272 482.816l-4.096-26.624h14.336c10.24 0 16.384 2.048 16.384 10.24v6.144c0 2.048 0 2.048 0 2.048 0 6.144-4.096 8.192-14.336 8.192h-12.288zM186.368 521.728l-2.048-24.576h10.24c8.192 0 14.336 2.048 16.384 10.24v4.096c0 2.048 0 2.048 0 2.048 0 6.144-4.096 8.192-14.336 8.192h-10.24z" />
<glyph unicode="&#xe91f;" d="M268.288 443.904c0-2.048-2.048-4.096-4.096-4.096h-12.288c-2.048 0-4.096 2.048-2.048 4.096l8.192 63.488c0 2.048 2.048 4.096 4.096 4.096h12.288c2.048 0 4.096 0 2.048-4.096l-8.192-63.488zM276.48 523.776c0-2.048-2.048-4.096-4.096-4.096h-12.288c-2.048 0-4.096 0-2.048 4.096l2.048 12.288c0 2.048 2.048 4.096 4.096 4.096h12.288c2.048 0 4.096-2.048 2.048-4.096l-2.048-12.288z" />
<glyph unicode="&#xe920;" d="M352.256 474.624c0-2.048-2.048-4.096-4.096-4.096h-36.864v-8.192c0-2.048 0-2.048 0-4.096 0-4.096 2.048-6.144 10.24-6.144s12.288 2.048 12.288 8.192v2.048c0 2.048 2.048 4.096 4.096 4.096h10.24c2.048 0 4.096-2.048 2.048-4.096v-2.048c-2.048-12.288-8.192-20.48-30.72-20.48-18.432 0-26.624 6.144-26.624 18.432 0 0 0 2.048 0 2.048l4.096 30.72c2.048 12.288 10.24 20.48 30.72 20.48 18.432 0 26.624-6.144 26.624-18.432 0 0 0-2.048 0-2.048l-2.048-16.384zM313.344 484.864h22.528v6.144c0 0 0 2.048 0 2.048 0 4.096-2.048 6.144-10.24 6.144s-12.288-2.048-12.288-8.192v-6.144z" />
<glyph unicode="&#xe921;" d="M393.216 511.488c2.048 0 4.096 0 4.096-4.096v-4.096c4.096 4.096 12.288 8.192 22.528 8.192s18.432-6.144 18.432-16.384c0 0 0-2.048 0-4.096l-6.144-47.104c0-2.048-2.048-4.096-4.096-4.096h-12.288c-2.048 0-4.096 0-4.096 4.096l6.144 43.008c0 2.048 0 2.048 0 4.096 0 4.096-2.048 6.144-6.144 6.144-6.144 0-14.336-4.096-16.384-6.144l-6.144-47.104c0-2.048-2.048-4.096-4.096-4.096h-12.288c-2.048 0-4.096 0-2.048 4.096l8.192 63.488c0 2.048 2.048 4.096 4.096 4.096h10.24z" />
<glyph unicode="&#xe922;" d="M473.088 439.808c-2.048 0-2.048 0-4.096 4.096l-14.336 63.488c0 2.048 2.048 4.096 4.096 4.096h12.288c2.048 0 2.048-2.048 4.096-4.096l6.144-32.768c0-4.096 2.048-12.288 2.048-12.288s2.048 8.192 4.096 12.288l14.336 32.768c0 2.048 2.048 4.096 4.096 4.096h10.24c2.048 0 4.096-2.048 2.048-4.096l-26.624-63.488c-2.048-2.048-2.048-4.096-4.096-4.096h-14.336z" />
<glyph unicode="&#xe923;" d="M589.824 474.624c0-2.048-2.048-4.096-4.096-4.096h-36.864v-8.192c0-2.048 0-2.048 0-4.096 0-4.096 2.048-6.144 10.24-6.144s12.288 2.048 12.288 8.192v2.048c0 2.048 2.048 4.096 4.096 4.096h10.24c2.048 0 4.096-2.048 2.048-4.096v-2.048c-2.048-12.288-8.192-20.48-30.72-20.48-18.432 0-26.624 6.144-26.624 18.432 0 0 0 2.048 0 2.048l4.096 30.72c2.048 12.288 10.24 20.48 30.72 20.48 18.432 0 26.624-6.144 26.624-18.432 0 0 0-2.048 0-2.048l-2.048-16.384zM550.912 484.864h22.528v6.144c0 0 0 2.048 0 2.048 0 4.096-2.048 6.144-10.24 6.144s-12.288-2.048-12.288-8.192v-6.144z" />
<glyph unicode="&#xe924;" d="M630.784 511.488c2.048 0 4.096 0 4.096-4.096v-4.096c4.096 4.096 12.288 8.192 22.528 8.192s18.432-6.144 18.432-16.384c0 0 0-2.048 0-4.096l-6.144-47.104c0-2.048-2.048-4.096-4.096-4.096h-10.24c-2.048 0-4.096 0-4.096 4.096l6.144 43.008c0 2.048 0 2.048 0 4.096 0 4.096-2.048 6.144-6.144 6.144-6.144 0-14.336-4.096-16.384-6.144l-6.144-45.056c0-2.048-2.048-4.096-4.096-4.096h-12.288c-2.048 0-4.096 0-2.048 4.096l8.192 63.488c0 2.048 2.048 4.096 4.096 4.096h8.192z" />
<glyph unicode="&#xe925;" d="M712.704 443.904c0-2.048-2.048-4.096-4.096-4.096h-12.288c-2.048 0-4.096 2.048-2.048 4.096l8.192 63.488c0 2.048 2.048 4.096 4.096 4.096h10.24c2.048 0 4.096 0 2.048-4.096l-6.144-63.488zM722.944 523.776c0-2.048-2.048-4.096-4.096-4.096h-12.288c-2.048 0-4.096 0-2.048 4.096l2.048 12.288c0 2.048 2.048 4.096 4.096 4.096h12.288c2.048 0 4.096-2.048 2.048-4.096l-2.048-12.288z" />
<glyph unicode="&#xe926;" d="M778.24 448c-4.096-4.096-10.24-8.192-22.528-8.192s-18.432 6.144-18.432 16.384c0 2.048 0 2.048 0 4.096l4.096 30.72c2.048 12.288 8.192 20.48 22.528 20.48 10.24 0 18.432-4.096 22.528-8.192l4.096 30.72c0 2.048 2.048 4.096 4.096 4.096h12.288c2.048 0 4.096-2.048 2.048-4.096l-10.24-92.16c0-2.048-2.048-4.096-4.096-4.096h-10.24c-2.048 0-2.048 2.048-2.048 4.096v6.144zM755.712 464.384c0-2.048 0-2.048 0-2.048 0-2.048 2.048-6.144 6.144-6.144 6.144 0 14.336 4.096 16.384 6.144l4.096 26.624c-2.048 2.048-8.192 6.144-16.384 6.144-6.144 0-8.192-4.096-8.192-8.192l-2.048-22.528z" />
<glyph unicode="&#xe927;" d="M825.344 491.008c2.048 12.288 12.288 20.48 32.768 20.48 18.432 0 28.672-6.144 28.672-18.432 0 0 0-2.048 0-2.048l-4.096-30.72c-2.048-12.288-10.24-20.48-32.768-20.48-18.432 0-28.672 8.192-28.672 18.432 0 0 0 2.048 0 2.048l4.096 30.72zM868.352 488.96c0 2.048 0 2.048 0 2.048 0 4.096-4.096 6.144-10.24 6.144-8.192 0-12.288-2.048-12.288-8.192l-4.096-26.624c0-2.048 0-2.048 0-2.048 0-4.096 4.096-6.144 10.24-6.144 8.192 0 12.288 2.048 12.288 8.192l4.096 26.624z" />
<glyph unicode="&#xe928;" d="M946.176 493.056c0 0 0 0 0 0 0 6.144-4.096 6.144-10.24 6.144s-10.24 0-10.24-6.144v0c0 0 0-2.048 0-2.048 0-2.048 0-4.096 4.096-4.096l20.48-6.144c8.192-2.048 12.288-8.192 12.288-12.288 0 0 0-2.048 0-4.096v-6.144c0-8.192-8.192-16.384-30.72-16.384-18.432 0-26.624 8.192-26.624 16.384 0 0 0 0 0 2.048v4.096c0 2.048 2.048 4.096 4.096 4.096h10.24c2.048 0 2.048 0 2.048-4.096v-2.048c0-2.048 0-2.048 0-2.048 0-4.096 4.096-4.096 10.24-4.096s12.288 2.048 12.288 6.144v0c0 2.048 0 2.048 0 2.048 0 2.048-2.048 4.096-6.144 4.096l-18.432 8.192c-6.144 2.048-10.24 8.192-10.24 14.336 0 0 0 0 0 2.048v4.096c0 8.192 8.192 18.432 28.672 18.432 18.432 0 26.624-8.192 26.624-16.384 0 0 0 0 0-2.048v-2.048c0-2.048-2.048-4.096-4.096-4.096h-10.24c-4.096-4.096-4.096-2.048-4.096 2.048v0z" />
<glyph unicode="&#xe929;" glyph-name="Cristian_bio" d="M995.328 448c0 266.24-217.088 483.328-483.328 483.328s-483.328-217.088-483.328-483.328c0-147.456 67.584-278.528 169.984-366.592 2.048-2.048 2.048-2.048 4.096-4.096 83.968-69.632 190.464-112.64 309.248-112.64 116.736 0 223.232 40.96 307.2 110.592 4.096 2.048 8.192 4.096 10.24 8.192 102.4 90.112 165.888 219.136 165.888 364.544zM73.728 448c0 241.664 196.608 438.272 438.272 438.272s438.272-196.608 438.272-438.272c0-118.784-47.104-225.28-122.88-305.152-12.288 57.344-49.152 155.648-161.792 221.184 26.624 32.768 40.96 73.728 40.96 118.784 0 106.496-86.016 192.512-192.512 192.512s-192.512-86.016-192.512-192.512c0-45.056 16.384-86.016 40.96-118.784-114.688-63.488-151.552-161.792-161.792-221.184-79.872 77.824-126.976 186.368-126.976 305.152zM364.544 480.768c0 81.92 67.584 147.456 147.456 147.456s147.456-67.584 147.456-147.456-65.536-147.456-147.456-147.456-147.456 67.584-147.456 147.456zM237.568 105.984c2.048 34.816 22.528 155.648 155.648 225.28 32.768-26.624 73.728-40.96 118.784-40.96s86.016 16.384 118.784 40.96c131.072-67.584 153.6-186.368 155.648-225.28-75.776-59.392-172.032-98.304-274.432-98.304-104.448 2.048-198.656 36.864-274.432 98.304zM514.048-45.568c-116.736 0-227.328 38.912-315.392 114.688-4.096 2.048-6.144 4.096-6.144 4.096-110.592 94.208-174.080 231.424-174.080 374.784 0 272.384 221.184 493.568 493.568 493.568s493.568-221.184 493.568-493.568c0-141.312-61.44-276.48-165.888-372.736-4.096-6.144-8.192-10.24-14.336-10.24-88.064-71.68-200.704-110.592-311.296-110.592zM512 921.088c-260.096 0-473.088-212.992-473.088-473.088 0-137.216 61.44-268.288 165.888-358.4 2.048-2.048 2.048-2.048 2.048-2.048l2.048-2.048c86.016-71.68 190.464-110.592 303.104-110.592 108.544 0 215.040 38.912 301.056 106.496l4.096 2.048c2.048 0 4.096 2.048 4.096 4.096l2.048 2.048c102.4 92.16 159.744 221.184 159.744 356.352 2.048 262.144-210.944 475.136-471.040 475.136zM512-2.56c-104.448 0-200.704 34.816-280.576 98.304l-4.096 4.096v6.144c2.048 36.864 22.528 161.792 161.792 233.472l6.144 4.096 6.144-4.096c32.768-24.576 71.68-38.912 112.64-38.912s79.872 14.336 112.64 38.912l6.144 4.096 6.144-4.096c133.12-67.584 157.696-186.368 161.792-233.472v-6.144l-4.096-4.096c-81.92-61.44-182.272-98.304-284.672-98.304zM249.856 110.080c75.776-59.392 167.936-90.112 264.192-90.112 94.208 0 188.416 32.768 264.192 92.16-6.144 47.104-30.72 145.408-143.36 206.848-34.816-26.624-77.824-38.912-120.832-38.912s-83.968 14.336-118.784 38.912c-120.832-65.536-141.312-169.984-145.408-208.896zM821.248 120.32l-4.096 20.48c-14.336 65.536-51.2 153.6-157.696 212.992l-12.288 6.144 8.192 10.24c24.576 30.72 38.912 69.632 38.912 110.592 0 100.352-81.92 182.272-182.272 182.272s-182.272-81.92-182.272-182.272c0-38.912 12.288-77.824 38.912-112.64l8.192-10.24-10.24-6.144c-112.64-63.488-147.456-161.792-157.696-212.992l-4.096-18.432-14.336 14.336c-81.92 83.968-129.024 194.56-129.024 313.344 0 247.808 202.752 450.56 450.56 450.56s450.56-202.752 450.56-450.56c0-116.736-45.056-227.328-126.976-311.296l-14.336-16.384zM512 876.032c-235.52 0-428.032-192.512-428.032-428.032 0-106.496 38.912-204.8 108.544-282.624 14.336 57.344 53.248 141.312 153.6 202.752-22.528 34.816-34.816 75.776-34.816 114.688 0 112.64 92.16 202.752 202.752 202.752 112.64 0 202.752-92.16 202.752-202.752 0-40.96-12.288-81.92-34.816-114.688 98.304-59.392 137.216-145.408 151.552-200.704 69.632 77.824 106.496 178.176 106.496 282.624 0 233.472-192.512 425.984-428.032 425.984zM512 323.072c-88.064 0-159.744 71.68-159.744 159.744s71.68 159.744 159.744 159.744 159.744-71.68 159.744-159.744c0-90.112-71.68-159.744-159.744-159.744zM512 617.984c-75.776 0-137.216-61.44-137.216-137.216s61.44-137.216 137.216-137.216c75.776 0 137.216 61.44 137.216 137.216s-61.44 137.216-137.216 137.216z" />
<glyph unicode="&#xe92a;" d="M899.072 540.16h-61.44c-6.144 0-12.288 4.096-14.336 10.24l-36.864 73.728c-14.336 26.624-40.96 43.008-71.68 43.008h-210.944c-30.72 0-57.344-16.384-71.68-43.008l-36.864-73.728c-2.048-6.144-8.192-10.24-14.336-10.24h-110.592v16.384c0 16.384-14.336 30.72-30.72 30.72h-98.304c-16.384 0-30.72-14.336-30.72-30.72v-18.432c-36.864-6.144-65.536-38.912-65.536-75.776v-411.648c0-43.008 34.816-77.824 79.872-77.824h776.192c43.008 0 79.872 34.816 79.872 77.824v411.648c-2.048 43.008-36.864 77.824-81.92 77.824z" />
<glyph unicode="&#xe92b;" d="M133.12 577.024h118.784v-36.864h-118.784v36.864z" />
<glyph unicode="&#xe92c;" d="M608.256 54.784c-124.928 0-227.328 102.4-227.328 227.328s102.4 227.328 227.328 227.328 227.328-102.4 227.328-227.328-100.352-227.328-227.328-227.328z" />
<glyph unicode="&#xe92d;" d="M884.736 419.328c0-13.573-11.003-24.576-24.576-24.576s-24.576 11.003-24.576 24.576c0 13.573 11.003 24.576 24.576 24.576s24.576-11.003 24.576-24.576z" />
<glyph unicode="&#xe92e;" d="M890.88 421.376c0-16.966-13.754-30.72-30.72-30.72s-30.72 13.754-30.72 30.72c0 16.966 13.754 30.72 30.72 30.72s30.72-13.754 30.72-30.72z" />
<glyph unicode="&#xe92f;" d="M608.256 476.672c-106.496 0-192.512-86.016-192.512-192.512s86.016-192.512 192.512-192.512 192.512 86.016 192.512 192.512-86.016 192.512-192.512 192.512zM608.256 120.32c-90.112 0-161.792 73.728-161.792 161.792s73.728 161.792 161.792 161.792 161.792-73.728 161.792-161.792-71.68-161.792-161.792-161.792z" />
<glyph unicode="&#xe930;" d="M608.256 378.368c-53.248 0-96.256-43.008-96.256-96.256s43.008-96.256 96.256-96.256c53.248 0 96.256 43.008 96.256 96.256s-43.008 96.256-96.256 96.256zM608.256 216.576c-36.864 0-65.536 28.672-65.536 65.536s28.672 65.536 65.536 65.536c36.864 0 65.536-28.672 65.536-65.536 0-34.816-28.672-65.536-65.536-65.536z" />
<glyph unicode="&#xe931;" d="M608.256 312.832c-16.384 0-28.672-12.288-28.672-28.672s12.288-28.672 28.672-28.672c16.384 0 28.672 12.288 28.672 28.672 2.048 14.336-12.288 28.672-28.672 28.672z" />
<glyph unicode="&#xe932;" d="M899.072 540.16h-61.44c-6.144 0-12.288 4.096-14.336 10.24l-36.864 75.776c-14.336 26.624-40.96 45.056-71.68 45.056h-210.944c-30.72 0-57.344-16.384-71.68-45.056l-36.864-75.776c-2.048-6.144-8.192-10.24-14.336-10.24h-110.592v16.384c0 16.384-14.336 30.72-30.72 30.72h-98.304c-16.384 0-30.72-14.336-30.72-30.72v-18.432c-36.864-6.144-65.536-38.912-65.536-77.824v-419.84c0-43.008 34.816-79.872 79.872-79.872h776.192c43.008 0 79.872 34.816 79.872 79.872v419.84c-2.048 45.056-36.864 79.872-81.92 79.872zM503.808 640.512h210.944c18.432 0 34.816-10.24 45.056-26.624l4.096-6.144h-307.2l4.096 6.144c6.144 14.336 24.576 26.624 43.008 26.624zM141.312 558.592h96.256c0 0 0 0 0 0v-16.384h-98.304l2.048 16.384c-2.048 0-2.048 0 0 0zM73.728 40.448v419.84c0 28.672 22.528 49.152 51.2 49.152h147.456v-520.192h-147.456c-28.672 2.048-51.2 24.576-51.2 51.2zM950.272 40.448c0-26.624-22.528-49.152-49.152-49.152h-600.064v518.144h77.824c18.432 0 34.816 10.24 43.008 26.624l18.432 38.912h337.92l18.432-38.912c8.192-16.384 24.576-26.624 43.008-26.624h61.44c26.624 0 49.152-22.528 49.152-49.152v-419.84z" />
<glyph unicode="&#xe933;" d="M860.16 476.672c-22.528 0-40.96-12.288-49.152-30.72-47.104 59.392-118.784 96.256-200.704 96.256-141.312 0-258.048-114.688-258.048-258.048s114.688-258.048 258.048-258.048 256 114.688 256 256c0 28.672-4.096 57.344-14.336 81.92 2.048 0 4.096 0 6.144 0 30.72 0 55.296 24.576 55.296 55.296 2.048 30.72-22.528 57.344-53.248 57.344zM608.256 54.784c-124.928 0-227.328 102.4-227.328 227.328s102.4 227.328 227.328 227.328 227.328-102.4 227.328-227.328-100.352-227.328-227.328-227.328zM860.16 394.752c-14.336 0-24.576 12.288-24.576 24.576 0 14.336 12.288 24.576 24.576 24.576 14.336 0 24.576-12.288 24.576-24.576s-12.288-24.576-24.576-24.576z" />
<glyph unicode="&#xe934;" d="M221.184 476.672c-8.192 0-14.336-6.144-14.336-14.336v-419.84c0-8.192 6.144-14.336 14.336-14.336s14.336 6.144 14.336 14.336v417.792c0 8.192-6.144 16.384-14.336 16.384z" />
<glyph unicode="&#xe935;" d="M425.984 685.568c-6.144 0-10.24 2.048-14.336 8.192l-106.496 184.32c-4.096 8.192-2.048 16.384 6.144 20.48s16.384 2.048 20.48-6.144l106.496-186.368c4.096-8.192 2.048-16.384-6.144-20.48 0 0-4.096 0-6.144 0z" />
<glyph unicode="&#xe936;" d="M546.816 699.904c-8.192 0-14.336 6.144-14.336 12.288l-30.72 202.752c-2.048 8.192 4.096 16.384 12.288 18.432 10.24 2.048 18.432-2.048 18.432-12.288l30.72-202.752c2.048-8.192-4.096-16.384-12.288-18.432-2.048 0-2.048 0-4.096 0z" />
<glyph unicode="&#xe937;" d="M667.648 701.952c-2.048 0-2.048 0-4.096 0-8.192 2.048-12.288 10.24-10.24 18.432l53.248 202.752c2.048 8.192 10.24 12.288 18.432 10.24s12.288-10.24 10.24-18.432l-53.248-202.752c-2.048-6.144-8.192-10.24-14.336-10.24z" />
<glyph unicode="&#xe938;" d="M788.48 673.28c-2.048 0-6.144 0-8.192 2.048-6.144 4.096-8.192 14.336-4.096 20.48l122.88 186.368c4.096 6.144 14.336 8.192 20.48 4.096s8.192-14.336 4.096-20.48l-122.88-186.368c-2.048-4.096-6.144-6.144-12.288-6.144z" />
<glyph unicode="&#xe939;" d="M915.456 681.472h-63.488c-6.144 0-12.288 4.096-16.384 10.24l-38.912 77.824c-14.336 28.672-43.008 45.056-73.728 45.056h-219.136c-30.72 0-59.392-16.384-73.728-45.056l-40.96-77.824c-2.048-6.144-8.192-10.24-16.384-10.24h-114.688v18.432c0 18.432-14.336 32.768-32.768 32.768h-100.352c-18.432 0-32.768-14.336-32.768-32.768v-18.432c-38.912-8.192-67.584-40.96-67.584-79.872v-428.032c0-45.056 36.864-81.92 83.968-81.92h808.96c45.056 0 83.968 36.864 83.968 81.92v428.032c-2.048 45.056-38.912 79.872-86.016 79.872z" />
<glyph unicode="&#xe93a;" d="M118.784 720.384h122.88v-38.912h-122.88v38.912z" />
<glyph unicode="&#xe93b;" d="M612.352 177.664c-131.072 0-237.568 106.496-237.568 237.568s106.496 237.568 237.568 237.568 237.568-106.496 237.568-237.568-106.496-237.568-237.568-237.568z" />
<glyph unicode="&#xe93c;" d="M901.12 556.544c0-14.704-11.92-26.624-26.624-26.624s-26.624 11.92-26.624 26.624c0 14.704 11.92 26.624 26.624 26.624s26.624-11.92 26.624-26.624z" />
<glyph unicode="&#xe93d;" d="M905.216 558.592c0-16.966-13.754-30.72-30.72-30.72s-30.72 13.754-30.72 30.72c0 16.966 13.754 30.72 30.72 30.72s30.72-13.754 30.72-30.72z" />
<glyph unicode="&#xe93e;" d="M612.352 615.936c-110.592 0-200.704-90.112-200.704-200.704s90.112-200.704 200.704-200.704 200.704 90.112 200.704 200.704-90.112 200.704-200.704 200.704zM612.352 245.248c-94.208 0-169.984 75.776-169.984 169.984s75.776 169.984 169.984 169.984 169.984-75.776 169.984-169.984-75.776-169.984-169.984-169.984z" />
<glyph unicode="&#xe93f;" d="M612.352 513.536c-55.296 0-100.352-45.056-100.352-100.352s45.056-100.352 100.352-100.352 100.352 45.056 100.352 100.352-45.056 100.352-100.352 100.352zM612.352 345.6c-36.864 0-67.584 30.72-67.584 67.584s30.72 67.584 67.584 67.584c36.864 0 67.584-30.72 67.584-67.584 2.048-36.864-28.672-67.584-67.584-67.584z" />
<glyph unicode="&#xe940;" d="M612.352 443.904c-16.384 0-30.72-14.336-30.72-30.72s14.336-30.72 30.72-30.72c16.384 0 30.72 14.336 30.72 30.72s-12.288 30.72-30.72 30.72z" />
<glyph unicode="&#xe941;" d="M915.456 683.52h-63.488c-6.144 0-12.288 4.096-16.384 10.24l-38.912 77.824c-14.336 28.672-43.008 45.056-73.728 45.056h-219.136c-30.72 0-59.392-18.432-73.728-45.056l-40.96-79.872c-2.048-6.144-8.192-10.24-16.384-10.24h-114.688v18.432c0 18.432-14.336 32.768-32.768 32.768h-100.352c-18.432 0-32.768-14.336-32.768-32.768v-18.432c-38.912-8.192-67.584-40.96-67.584-81.92v-438.272c0-45.056 36.864-81.92 83.968-81.92h808.96c45.056 0 83.968 36.864 83.968 83.968v436.224c-2.048 45.056-38.912 83.968-86.016 83.968zM503.808 785.92h219.136c20.48 0 36.864-10.24 47.104-28.672l4.096-8.192h-321.536l4.096 8.192c8.192 18.432 26.624 28.672 47.104 28.672zM124.928 701.952h100.352c0 0 2.048 0 2.048-2.048v-18.432h-104.448l2.048 20.48c-2.048 0 0 0 0 0zM57.344 161.28v438.272c0 28.672 22.528 51.2 51.2 51.2h151.552v-540.672h-151.552c-28.672 0-51.2 22.528-51.2 51.2zM966.656 161.28c0-28.672-22.528-51.2-51.2-51.2h-622.592v540.672h81.92c18.432 0 34.816 10.24 45.056 26.624l20.48 40.96h350.208l20.48-40.96c8.192-16.384 24.576-26.624 45.056-26.624h63.488c28.672 0 51.2-22.528 51.2-51.2v-438.272z" />
<glyph unicode="&#xe942;" d="M874.496 615.936c-22.528 0-43.008-14.336-51.2-32.768-49.152 61.44-124.928 100.352-208.896 100.352-147.456 0-268.288-120.832-268.288-268.288s120.832-268.288 268.288-268.288 266.24 118.784 266.24 268.288c0 30.72-4.096 59.392-14.336 86.016 2.048 0 4.096 0 6.144 0 32.768 0 57.344 26.624 57.344 57.344s-24.576 57.344-55.296 57.344zM612.352 177.664c-131.072 0-237.568 106.496-237.568 237.568s106.496 237.568 237.568 237.568 237.568-106.496 237.568-237.568-106.496-237.568-237.568-237.568zM874.496 531.968c-14.336 0-26.624 12.288-26.624 26.624s12.288 26.624 26.624 26.624 26.624-12.288 26.624-26.624c0-16.384-12.288-26.624-26.624-26.624z" />
<glyph unicode="&#xe943;" d="M208.896 615.936c-8.192 0-16.384-6.144-16.384-16.384v-438.272c0-8.192 6.144-16.384 16.384-16.384s16.384 8.192 16.384 16.384v438.272c0 8.192-8.192 16.384-16.384 16.384z" />
<glyph unicode="&#xe944;" d="M106.496 187.904c-14.336 0-26.624 12.288-26.624 26.624v583.68c0 14.336 12.288 26.624 26.624 26.624h813.056c14.336 0 26.624-12.288 26.624-26.624v-583.68c0-14.336-12.288-26.624-26.624-26.624h-65.536v100.352l2.048 2.048c24.576 28.672 38.912 63.488 38.912 100.352 0 83.968-67.584 151.552-151.552 151.552s-151.552-67.584-151.552-151.552c0-36.864 14.336-73.728 38.912-100.352l2.048-2.048v-100.352h-526.336z" />
<glyph unicode="&#xe945;" d="M872.448 392.704c0-72.389-58.683-131.072-131.072-131.072s-131.072 58.683-131.072 131.072c0 72.389 58.683 131.072 131.072 131.072s131.072-58.683 131.072-131.072z" />
<glyph unicode="&#xe946;" d="M659.456 79.36v210.944c0 0 104.448-28.672 108.544-28.672 4.096 2.048 51.2 20.48 51.2 20.48l16.384-145.408-14.336-81.92-79.872 55.296-81.92-30.72z" />
<glyph unicode="&#xe947;" d="M512 701.952h-344.064c-14.336 0-24.576-12.288-24.576-24.576 0-14.336 12.288-24.576 24.576-24.576h344.064c14.336 0 24.576 12.288 24.576 24.576 0 14.336-10.24 24.576-24.576 24.576z" />
<glyph unicode="&#xe948;" d="M512 587.264h-344.064c-14.336 0-24.576-12.288-24.576-24.576 0-14.336 12.288-24.576 24.576-24.576h344.064c14.336 0 24.576 12.288 24.576 24.576 0 14.336-10.24 24.576-24.576 24.576z" />
<glyph unicode="&#xe949;" d="M512 472.576h-344.064c-14.336 0-24.576-10.24-24.576-24.576s12.288-24.576 24.576-24.576h344.064c14.336 0 24.576 12.288 24.576 24.576 0 14.336-10.24 24.576-24.576 24.576z" />
<glyph unicode="&#xe94a;" d="M643.072 24.064c8.192-4.096 18.432-4.096 26.624 2.048l71.68 47.104 71.68-47.104c8.192-4.096 18.432-6.144 26.624-2.048s14.336 12.288 14.336 22.528v90.112h65.536c43.008 0 77.824 34.816 77.824 77.824v581.632c0 20.48-8.192 40.96-22.528 55.296s-34.816 22.528-55.296 22.528h-813.056c-43.008 0-77.824-34.816-77.824-77.824v-583.68c0-43.008 34.816-77.824 77.824-77.824h524.288v-90.112c0-6.144 4.096-16.384 12.288-20.48zM800.768 93.696l-47.104 30.72c-8.192 6.144-20.48 6.144-28.672 0l-47.104-30.72v155.648l12.288-4.096c30.72-10.24 65.536-10.24 96.256 0l12.288 4.096v-155.648zM741.376 288.256c-55.296 0-100.352 45.056-100.352 102.4 0 55.296 45.056 102.4 100.352 102.4s100.352-45.056 100.352-102.4c0-55.296-45.056-102.4-100.352-102.4zM106.496 187.904c-14.336 0-26.624 12.288-26.624 26.624v581.632c0 14.336 12.288 26.624 26.624 26.624h813.056c14.336 0 26.624-12.288 26.624-26.624v-583.68c0-14.336-12.288-26.624-26.624-26.624h-65.536v100.352l2.048 2.048c24.576 28.672 38.912 63.488 38.912 100.352 0 83.968-67.584 151.552-151.552 151.552s-151.552-67.584-151.552-151.552c0-36.864 14.336-73.728 38.912-100.352l2.048-2.048v-100.352h-526.336z" />
<glyph unicode="&#xe94b;" glyph-name="Cristian_circulo" d="M512-31.232c264.192 0 479.232 215.040 479.232 479.232 0 266.24-215.040 479.232-479.232 479.232s-479.232-215.040-479.232-479.232c0-264.192 215.040-479.232 479.232-479.232z" />
<glyph unicode="&#xe94c;" glyph-name="Cristian_close" d="M514.048 910.848c-260.096 0-471.040-210.944-471.040-471.040s210.944-471.040 471.040-471.040c260.096 0 471.040 210.944 471.040 471.040s-210.944 471.040-471.040 471.040zM514.048 40.448c-219.136 0-399.36 178.176-399.36 399.36s180.224 399.36 399.36 399.36c219.136 0 399.36-178.176 399.36-399.36s-178.176-399.36-399.36-399.36zM741.376 275.968c18.432-18.432 18.432-45.056 0-63.488-8.192-8.192-20.48-12.288-32.768-12.288s-22.528 4.096-32.768 12.288l-163.84 163.84-163.84-163.84c-8.192-8.192-20.48-12.288-32.768-12.288s-22.528 4.096-30.72 12.288c-18.432 18.432-18.432 45.056 0 63.488l163.84 163.84-163.84 163.84c-18.432 18.432-18.432 45.056 0 63.488s45.056 18.432 63.488 0l163.84-163.84 163.84 163.84c18.432 18.432 47.104 18.432 63.488 0 18.432-18.432 18.432-45.056 0-63.488l-163.84-163.84 165.888-163.84z" />
<glyph unicode="&#xe94d;" d="M75.776 513.536h913.408v-174.080h-913.408v174.080z" />
<glyph unicode="&#xe94e;" d="M995.328 333.312h-923.648v186.368h925.696v-186.368zM81.92 343.552h903.168v163.84h-903.168v-163.84z" />
<glyph unicode="&#xe94f;" d="M32.768 558.592h913.408v-174.080h-913.408v174.080z" />
<glyph unicode="&#xe950;" d="M952.32 378.368h-923.648v186.368h925.696v-186.368zM38.912 388.608h903.168v163.84h-903.168v-163.84z" />
<glyph unicode="&#xe951;" d="M161.792 491.008c0 0 0-2.048 0-2.048v-2.048c0-2.048-2.048-2.048-2.048-2.048h-8.192c-2.048 0-2.048 0-2.048 2.048v2.048c0 2.048 0 2.048 0 2.048 0 4.096-2.048 6.144-12.288 6.144s-14.336-4.096-14.336-8.192l-4.096-28.672c0-2.048 0-2.048 0-2.048 0-4.096 4.096-8.192 12.288-8.192 10.24 0 14.336 4.096 14.336 8.192v2.048c0 2.048 0 2.048 2.048 2.048h8.192c2.048 0 2.048-2.048 2.048-2.048v-4.096c-2.048-10.24-8.192-18.432-28.672-18.432-16.384 0-24.576 6.144-24.576 16.384 0 0 0 2.048 0 2.048l4.096 32.768c2.048 12.288 8.192 18.432 28.672 18.432 18.432 0 24.576-8.192 24.576-16.384z" />
<glyph unicode="&#xe952;" d="M182.272 486.912c2.048 12.288 10.24 18.432 28.672 18.432 16.384 0 26.624-6.144 26.624-16.384 0 0 0-2.048 0-2.048l-4.096-32.768c-2.048-12.288-10.24-18.432-28.672-18.432s-26.624 6.144-26.624 16.384c0 0 0 2.048 0 2.048l4.096 32.768zM225.28 486.912v0c0 6.144-4.096 10.24-14.336 10.24s-14.336-4.096-16.384-10.24l-4.096-30.72c0 0 0-2.048 0-2.048 0-6.144 4.096-8.192 14.336-8.192s14.336 4.096 16.384 10.24l4.096 30.72z" />
<glyph unicode="&#xe953;" d="M274.432 505.344c2.048 0 2.048 0 2.048-2.048v-4.096c4.096 4.096 10.24 8.192 22.528 8.192 8.192 0 14.336-4.096 16.384-10.24 4.096 4.096 10.24 10.24 24.576 10.24 10.24 0 18.432-6.144 18.432-14.336 0 0 0-2.048 0-2.048l-6.144-49.152c0-2.048-2.048-2.048-2.048-2.048h-8.192c-2.048 0-2.048 0-2.048 2.048l6.144 45.056c0 2.048 0 2.048 0 2.048 0 4.096-2.048 8.192-10.24 8.192s-16.384-4.096-18.432-8.192c0 0 0-2.048 0-2.048l-6.144-45.056c0-2.048-2.048-2.048-2.048-2.048h-8.192c-2.048 0-2.048 0-2.048 2.048l6.144 45.056c0 2.048 0 2.048 0 2.048 0 4.096-2.048 8.192-10.24 8.192s-16.384-4.096-18.432-6.144l-6.144-47.104c0-2.048 0-2.048-2.048-2.048h-8.192c-2.048 0-2.048 0-2.048 2.048l8.192 63.488c0 2.048 0 2.048 2.048 2.048h6.144z" />
<glyph unicode="&#xe954;" d="M397.312 503.296v-4.096c4.096 2.048 12.288 8.192 24.576 8.192s18.432-6.144 18.432-16.384c0 0 0-2.048 0-2.048l-4.096-32.768c-2.048-12.288-8.192-18.432-20.48-18.432-10.24 0-18.432 4.096-22.528 8.192l-4.096-32.768c0-2.048 0-2.048-2.048-2.048h-8.192c-2.048 0-2.048 0-2.048 2.048l12.288 90.112c0 2.048 0 2.048 2.048 2.048h8.192c-2.048 0-2.048 0-2.048-2.048zM423.936 484.864c0 0 0 2.048 0 2.048 0 4.096-2.048 6.144-10.24 6.144s-16.384-4.096-20.48-8.192l-4.096-32.768c2.048-2.048 8.192-6.144 18.432-6.144 8.192 0 10.24 4.096 12.288 8.192l4.096 30.72z" />
<glyph unicode="&#xe955;" d="M460.8 486.912c2.048 12.288 10.24 18.432 28.672 18.432 16.384 0 26.624-6.144 26.624-16.384 0 0 0-2.048 0-2.048l-4.096-32.768c-2.048-12.288-10.24-18.432-28.672-18.432s-26.624 6.144-26.624 16.384c0 0 0 2.048 0 2.048l4.096 32.768zM503.808 486.912v0c0 6.144-4.096 10.24-14.336 10.24s-14.336-4.096-16.384-10.24l-2.048-30.72c0 0 0-2.048 0-2.048 0-6.144 4.096-8.192 14.336-8.192s14.336 4.096 16.384 10.24l2.048 30.72z" />
<glyph unicode="&#xe956;" d="M577.536 488.96c0 0 0 2.048 0 2.048 0 4.096-4.096 6.144-12.288 6.144s-12.288-2.048-14.336-6.144v-2.048c0-2.048 0-2.048 0-2.048 0-2.048 0-4.096 4.096-6.144l20.48-6.144c8.192-2.048 10.24-8.192 10.24-12.288 0 0 0-2.048 0-4.096v-6.144c0-8.192-8.192-16.384-28.672-16.384-16.384 0-24.576 6.144-24.576 14.336 0 0 0 0 0 2.048v4.096c0 2.048 0 2.048 2.048 2.048h8.192c2.048 0 2.048 0 2.048-2.048v-2.048c0 0 0-2.048 0-2.048 0-4.096 4.096-6.144 12.288-6.144s14.336 2.048 14.336 6.144v4.096c0 2.048 0 2.048 0 2.048 0 2.048-2.048 4.096-6.144 6.144l-18.432 6.144c-6.144 2.048-10.24 6.144-10.24 12.288 0 0 0 0 0 2.048v4.096c0 8.192 8.192 16.384 26.624 16.384 16.384 0 24.576-8.192 24.576-14.336 0 0 0 0 0-2.048v-2.048c0-2.048 0-2.048-2.048-2.048h-8.192c-2.048 0-2.048 0-2.048 2.048l2.048 2.048z" />
<glyph unicode="&#xe957;" d="M618.496 439.808c0-2.048-2.048-2.048-2.048-2.048h-8.192c-2.048 0-2.048 0-2.048 2.048l8.192 63.488c0 2.048 0 2.048 2.048 2.048h8.192c2.048 0 2.048 0 2.048-2.048l-8.192-63.488zM628.736 517.632c0-2.048 0-2.048-2.048-2.048h-8.192c-2.048 0-2.048 0-2.048 2.048l2.048 12.288c0 2.048 2.048 2.048 2.048 2.048h8.192c2.048 0 2.048 0 2.048-2.048l-2.048-12.288z" />
<glyph unicode="&#xe958;" d="M702.464 491.008c0 0 0-2.048 0-2.048v-2.048c0-2.048-2.048-2.048-2.048-2.048h-8.192c-2.048 0-2.048 0-2.048 2.048v2.048c0 2.048 0 2.048 0 2.048 0 4.096-2.048 6.144-12.288 6.144s-14.336-4.096-14.336-8.192l-4.096-28.672c0-2.048 0-2.048 0-2.048 0-4.096 4.096-8.192 12.288-8.192 10.24 0 14.336 4.096 14.336 8.192v2.048c0 2.048 0 2.048 2.048 2.048h8.192c2.048 0 2.048-2.048 2.048-2.048v-4.096c-2.048-10.24-8.192-18.432-28.672-18.432-16.384 0-24.576 6.144-24.576 16.384 0 0 0 2.048 0 2.048l4.096 32.768c2.048 12.288 8.192 18.432 28.672 18.432 18.432 0 24.576-8.192 24.576-16.384z" />
<glyph unicode="&#xe959;" d="M731.136 439.808c0-2.048-2.048-2.048-2.048-2.048h-8.192c-2.048 0-2.048 0-2.048 2.048l8.192 63.488c0 2.048 0 2.048 2.048 2.048h8.192c2.048 0 2.048 0 2.048-2.048l-8.192-63.488zM741.376 517.632c0-2.048 0-2.048-2.048-2.048h-8.192c-2.048 0-2.048 0-2.048 2.048l2.048 12.288c0 2.048 2.048 2.048 2.048 2.048h8.192c2.048 0 2.048 0 2.048-2.048l-2.048-12.288z" />
<glyph unicode="&#xe95a;" d="M761.856 486.912c2.048 12.288 10.24 18.432 28.672 18.432 16.384 0 26.624-6.144 26.624-16.384 0 0 0-2.048 0-2.048l-4.096-32.768c-2.048-12.288-10.24-18.432-28.672-18.432s-26.624 6.144-26.624 16.384c0 0 0 2.048 0 2.048l4.096 32.768zM804.864 486.912v0c0 6.144-4.096 10.24-14.336 10.24s-14.336-4.096-16.384-10.24l-4.096-30.72c0 0 0-2.048 0-2.048 0-6.144 4.096-8.192 14.336-8.192s14.336 4.096 16.384 10.24l4.096 30.72zM798.72 517.632c0 0-2.048-2.048-4.096-2.048h-6.144c-2.048 0-2.048 0-2.048 2.048l10.24 14.336c0 2.048 2.048 2.048 4.096 2.048h8.192c2.048 0 2.048-2.048 0-2.048l-10.24-14.336z" />
<glyph unicode="&#xe95b;" d="M854.016 505.344c2.048 0 2.048 0 2.048-2.048v-4.096c4.096 4.096 12.288 8.192 22.528 8.192s18.432-6.144 18.432-14.336c0 0 0-2.048 0-2.048l-6.144-49.152c0-2.048-2.048-2.048-2.048-2.048h-8.192c-2.048 0-2.048 0-2.048 2.048l6.144 45.056c0 0 0 2.048 0 2.048 0 4.096-2.048 8.192-10.24 8.192s-16.384-4.096-20.48-6.144l-6.144-47.104c0-2.048-2.048-2.048-2.048-2.048h-8.192c-2.048 0-2.048 0-2.048 2.048l8.192 63.488c0 2.048 0 2.048 2.048 2.048h8.192z" />
<glyph unicode="&#xe95c;" d="M927.744 511.488l-75.776 10.24c-14.336 2.048-24.576 12.288-28.672 24.576-12.288 34.816-8.192 18.432-22.528 51.2-6.144 14.336-4.096 26.624 4.096 38.912l47.104 61.44c-10.24 12.288-22.528 28.672-43.008 47.104-18.432 18.432-34.816 30.72-45.056 40.96l-61.44-45.056c-12.288-8.192-26.624-10.24-40.96-4.096-28.672 14.336-18.432 10.24-51.2 20.48-14.336 4.096-22.528 16.384-24.576 30.72l-10.24 75.776c-14.336 2.048-36.864 4.096-63.488 4.096s-47.104-2.048-63.488-4.096l-10.24-75.776c-2.048-14.336-12.288-26.624-24.576-30.72-32.768-12.288-22.528-6.144-51.2-20.48-14.336-6.144-26.624-4.096-38.912 4.096l-61.44 45.056c-12.288-10.24-28.672-20.48-47.104-40.96-18.432-18.432-30.72-36.864-40.96-47.104l45.056-61.44c8.192-12.288 10.24-24.576 4.096-38.912-6.144-12.288-12.288-24.576-12.288-24.576 0-2.048-6.144-14.336-10.24-26.624-4.096-14.336-16.384-22.528-30.72-24.576l-75.776-10.24c-2.048-14.336-4.096-36.864-4.096-63.488s2.048-47.104 4.096-63.488l75.776-10.24c14.336-2.048 26.624-12.288 30.72-24.576 12.288-32.768 6.144-22.528 20.48-51.2 6.144-14.336 4.096-28.672-4.096-40.96l-45.056-61.44c10.24-12.288 20.48-26.624 40.96-45.056 18.432-18.432 36.864-32.768 47.104-43.008l61.44 47.104c12.288 8.192 24.576 10.24 38.912 4.096 28.672-14.336 18.432-10.24 51.2-20.48 14.336-4.096 22.528-16.384 24.576-30.72l10.24-75.776c14.336-2.048 36.864-4.096 63.488-4.096s47.104 2.048 63.488 4.096l10.24 75.776c2.048 14.336 12.288 26.624 24.576 30.72 34.816 12.288 18.432 6.144 51.2 20.48 14.336 6.144 28.672 4.096 40.96-4.096l61.44-47.104c12.288 10.24 26.624 22.528 45.056 43.008 18.432 18.432 32.768 36.864 43.008 47.104l-47.104 59.392c-8.192 12.288-10.24 26.624-4.096 40.96 14.336 28.672 10.24 18.432 20.48 51.2 4.096 14.336 16.384 22.528 30.72 24.576l75.776 10.24c2.048 14.336 4.096 36.864 4.096 63.488s0 47.104-2.048 63.488zM512 288.256c-90.112 0-159.744 71.68-159.744 159.744 0 90.112 71.68 159.744 159.744 159.744s159.744-71.68 159.744-159.744c0-90.112-69.632-159.744-159.744-159.744z" />
<glyph unicode="&#xe95d;" d="M993.28 552.448c-4.096 14.336-14.336 24.576-30.72 26.624l-79.872 12.288c-4.096 12.288-2.048 6.144-8.192 16.384l49.152 65.536c10.24 12.288 10.24 28.672 2.048 43.008 0 2.048-20.48 34.816-67.584 79.872-45.056 45.056-77.824 67.584-79.872 67.584-14.336 8.192-30.72 8.192-43.008-2.048l-65.536-49.152c-8.192 4.096-2.048 2.048-14.336 6.144l-12.288 79.872c-2.048 14.336-12.288 26.624-26.624 30.72-2.048 0-40.96 12.288-104.448 12.288s-102.4-12.288-104.448-12.288c-14.336-4.096-24.576-14.336-26.624-30.72l-12.288-79.872c-12.288-4.096-6.144-2.048-16.384-8.192l-65.536 51.2c-12.288 10.24-28.672 10.24-43.008 2.048-2.048 0-34.816-20.48-79.872-67.584s-67.584-77.824-67.584-79.872c-8.192-14.336-8.192-30.72 2.048-43.008l49.152-65.536c-6.144-12.288-4.096-8.192-8.192-18.432l-77.824-10.24c-14.336-2.048-26.624-12.288-30.72-26.624 0-2.048-12.288-40.96-12.288-104.448s12.288-102.4 12.288-104.448c4.096-14.336 14.336-24.576 30.72-26.624l79.872-12.288c4.096-12.288 2.048-6.144 8.192-16.384l-51.2-65.536c-10.24-12.288-10.24-28.672-2.048-43.008 0-2.048 20.48-34.816 67.584-79.872 45.056-45.056 77.824-67.584 79.872-67.584 14.336-8.192 30.72-8.192 43.008 2.048l65.536 49.152c12.288-6.144 8.192-4.096 18.432-8.192l10.24-79.872c2.048-14.336 12.288-26.624 26.624-30.72 2.048 0 40.96-12.288 104.448-12.288s102.4 12.288 104.448 12.288c14.336 4.096 24.576 14.336 26.624 30.72l12.288 79.872c12.288 4.096 6.144 2.048 16.384 8.192l65.536-49.152c12.288-10.24 28.672-10.24 43.008-2.048 2.048 0 34.816 20.48 79.872 67.584 45.056 45.056 67.584 77.824 67.584 79.872 8.192 14.336 8.192 30.72-2.048 43.008l-49.152 65.536c6.144 12.288 4.096 6.144 8.192 16.384l79.872 12.288c14.336 2.048 26.624 12.288 30.72 26.624 0 2.048 12.288 40.96 12.288 104.448s-14.336 102.4-14.336 104.448zM927.744 384.512l-75.776-10.24c-14.336-2.048-26.624-12.288-30.72-24.576-12.288-32.768-8.192-22.528-20.48-51.2-6.144-14.336-4.096-28.672 4.096-40.96l47.104-59.392c-10.24-12.288-22.528-28.672-43.008-47.104s-34.816-32.768-45.056-43.008l-61.44 47.104c-12.288 8.192-26.624 10.24-40.96 4.096-32.768-14.336-16.384-10.24-51.2-20.48-14.336-4.096-22.528-16.384-24.576-30.72l-10.24-75.776c-14.336-2.048-36.864-4.096-63.488-4.096s-47.104 2.048-63.488 4.096l-10.24 75.776c-2.048 14.336-12.288 26.624-24.576 30.72-32.768 12.288-22.528 8.192-51.2 20.48-14.336 6.144-26.624 4.096-38.912-4.096l-61.44-47.104c-12.288 10.24-28.672 22.528-47.104 43.008s-30.72 34.816-40.96 45.056l45.056 61.44c8.192 12.288 10.24 26.624 4.096 40.96-14.336 28.672-10.24 18.432-20.48 51.2-4.096 14.336-16.384 22.528-30.72 24.576l-75.776 10.24c-2.048 14.336-4.096 36.864-4.096 63.488s2.048 47.104 4.096 63.488l75.776 10.24c14.336 2.048 26.624 12.288 30.72 24.576 4.096 14.336 10.24 24.576 10.24 26.624 0 0 6.144 14.336 12.288 24.576 6.144 14.336 4.096 26.624-4.096 38.912l-45.056 61.44c10.24 12.288 20.48 28.672 40.96 47.104s36.864 30.72 47.104 40.96l61.44-45.056c12.288-8.192 24.576-10.24 38.912-4.096 28.672 14.336 18.432 10.24 51.2 20.48 14.336 4.096 22.528 16.384 24.576 30.72l10.24 75.776c14.336 2.048 36.864 4.096 63.488 4.096s47.104-2.048 63.488-4.096l10.24-75.776c2.048-14.336 12.288-26.624 24.576-30.72 32.768-12.288 22.528-8.192 51.2-20.48 14.336-6.144 28.672-4.096 40.96 4.096l61.44 45.056c12.288-10.24 26.624-20.48 45.056-40.96s32.768-36.864 43.008-47.104l-47.104-61.44c-8.192-12.288-10.24-24.576-4.096-38.912 14.336-32.768 12.288-16.384 22.528-51.2 4.096-14.336 14.336-22.528 28.672-24.576l75.776-10.24c2.048-14.336 4.096-36.864 4.096-63.488s-4.096-47.104-6.144-63.488z" />
<glyph unicode="&#xe95e;" d="M512 683.52c-129.024 0-235.52-104.448-235.52-235.52s106.496-235.52 235.52-235.52 235.52 106.496 235.52 235.52-106.496 235.52-235.52 235.52zM512 288.256c-90.112 0-159.744 71.68-159.744 159.744s71.68 159.744 159.744 159.744 159.744-71.68 159.744-159.744-69.632-159.744-159.744-159.744z" />
<glyph unicode="&#xe95f;" glyph-name="Cristian_contact" d="M964.608 800.256h-905.216c-18.432 0-32.768-14.336-32.768-32.768v-638.976c0-18.432 14.336-32.768 32.768-32.768h903.168c18.432 0 32.768 14.336 32.768 32.768v638.976c2.048 18.432-14.336 32.768-30.72 32.768zM931.84 161.28h-839.68v573.44h837.632v-573.44zM964.608 89.6h-905.216c-22.528 0-38.912 18.432-38.912 38.912v638.976c0 22.528 18.432 38.912 38.912 38.912h903.168c22.528 0 38.912-18.432 38.912-38.912v-638.976c2.048-22.528-16.384-38.912-36.864-38.912zM59.392 794.112c-14.336 0-26.624-12.288-26.624-26.624v-638.976c0-14.336 12.288-26.624 26.624-26.624h903.168c14.336 0 26.624 12.288 26.624 26.624v638.976c0 14.336-12.288 26.624-26.624 26.624h-903.168zM937.984 155.136h-851.968v585.728h849.92v-585.728zM98.304 167.424h825.344v561.152h-825.344v-561.152zM178.176 579.072l315.392-194.56c6.144-4.096 10.24-4.096 16.384-4.096s12.288 2.048 16.384 4.096l315.392 194.56c16.384 10.24 20.48 30.72 10.24 45.056-10.24 16.384-30.72 20.48-45.056 10.24l-299.008-184.32-299.008 184.32c-16.384 10.24-34.816 4.096-45.056-10.24-4.096-14.336 0-34.816 14.336-45.056zM512 374.272c-8.192 0-14.336 2.048-20.48 6.144l-315.392 194.56c-8.192 6.144-14.336 14.336-18.432 24.576s0 20.48 4.096 28.672c12.288 18.432 34.816 24.576 53.248 12.288l296.96-180.224 294.912 182.272c8.192 6.144 18.432 8.192 28.672 4.096 10.24-2.048 18.432-8.192 24.576-18.432 6.144-8.192 8.192-18.432 4.096-28.672-2.048-10.24-8.192-18.432-18.432-24.576l-313.344-194.56c-6.144-4.096-12.288-6.144-20.48-6.144zM196.608 634.368c-8.192 0-18.432-4.096-22.528-12.288-4.096-6.144-4.096-12.288-4.096-20.48 2.048-6.144 6.144-12.288 12.288-16.384v0l315.392-194.56c8.192-6.144 20.48-6.144 28.672 0l315.392 194.56c6.144 4.096 10.24 10.24 12.288 16.384s0 14.336-4.096 20.48c-4.096 6.144-10.24 10.24-16.384 12.288s-14.336 0-20.48-4.096l-301.056-186.368-301.056 186.368c-4.096 2.048-10.24 4.096-14.336 4.096z" />
<glyph unicode="&#xe960;" d="M26.624 507.392h890.88v-192.512h-890.88v192.512z" />
<glyph unicode="&#xe961;" d="M923.648 308.736h-903.168v202.752h901.12v-202.752zM30.72 318.976h882.688v184.32h-882.688v-184.32z" />
<glyph unicode="&#xe962;" d="M61.44 544.256h890.88v-192.512h-890.88v192.512z" />
<glyph unicode="&#xe963;" d="M958.464 345.6h-901.12v202.752h901.12v-202.752zM65.536 355.84h882.688v184.32h-882.688v-184.32z" />
<glyph unicode="&#xe964;" d="M106.496 581.12h890.88v-192.512h-890.88v192.512z" />
<glyph unicode="&#xe965;" d="M1003.52 384.512h-901.12v202.752h901.12v-202.752zM110.592 392.704h882.688v184.32h-882.688v-184.32z" />
<glyph unicode="&#xe966;" d="M282.624 491.008c0 0 0-2.048 0-2.048v-2.048c0-2.048-2.048-4.096-4.096-4.096h-10.24c-2.048 0-4.096 0-2.048 4.096v2.048c0 0 0 2.048 0 2.048 0 4.096-2.048 6.144-10.24 6.144s-12.288-2.048-12.288-8.192l-4.096-26.624c0-2.048 0-2.048 0-4.096 0-4.096 2.048-6.144 10.24-6.144s12.288 2.048 12.288 8.192v2.048c0 2.048 2.048 4.096 4.096 4.096h10.24c2.048 0 4.096-2.048 2.048-4.096v-4.096c-2.048-12.288-10.24-22.528-32.768-22.528-18.432 0-28.672 8.192-28.672 18.432 0 0 0 2.048 0 2.048l4.096 32.768c2.048 12.288 10.24 20.48 32.768 20.48 20.48 0 28.672-8.192 28.672-18.432z" />
<glyph unicode="&#xe967;" d="M303.104 486.912c2.048 12.288 12.288 20.48 32.768 20.48 18.432 0 28.672-8.192 28.672-18.432 0 0 0-2.048 0-2.048l-4.096-32.768c-2.048-12.288-12.288-22.528-32.768-22.528-18.432 0-28.672 8.192-28.672 18.432 0 0 0 2.048 0 2.048l4.096 34.816zM348.16 484.864c0 2.048 0 2.048 0 2.048 0 4.096-4.096 6.144-12.288 6.144s-12.288-2.048-12.288-8.192l-4.096-26.624c0-2.048 0-2.048 0-2.048 0-4.096 4.096-6.144 12.288-6.144s12.288 2.048 12.288 8.192l4.096 26.624z" />
<glyph unicode="&#xe968;" d="M407.552 507.392c2.048 0 4.096 0 4.096-4.096v-4.096c4.096 4.096 12.288 8.192 24.576 8.192s18.432-6.144 18.432-16.384c0 0 0-2.048 0-4.096l-6.144-49.152c0-2.048-2.048-4.096-4.096-4.096h-12.288c-2.048 0-4.096 0-4.096 4.096l6.144 45.056c0 2.048 0 2.048 0 4.096 0 4.096-2.048 6.144-6.144 6.144-8.192 0-14.336-4.096-18.432-6.144l-6.144-47.104c0-2.048-2.048-4.096-4.096-4.096h-12.288c-2.048 0-4.096 0-2.048 4.096l8.192 65.536c0 2.048 2.048 4.096 4.096 4.096h10.24z" />
<glyph unicode="&#xe969;" d="M499.712 460.288c0-2.048 0-2.048 0-2.048 0-4.096 2.048-6.144 10.24-6.144h2.048c2.048 0 4.096-2.048 4.096-4.096v-8.192c0-2.048-2.048-4.096-4.096-4.096h-6.144c-18.432 0-24.576 6.144-24.576 16.384 0 2.048 0 2.048 0 4.096l4.096 34.816h-6.144c-2.048 0-4.096 2.048-2.048 4.096v8.192c0 2.048 2.048 4.096 4.096 4.096h6.144l2.048 14.336c0 2.048 2.048 4.096 4.096 4.096h12.288c2.048 0 4.096-2.048 2.048-4.096l-2.048-14.336h12.288c2.048 0 4.096-2.048 4.096-4.096v-8.192c0-2.048-2.048-4.096-4.096-4.096h-12.288l-6.144-30.72z" />
<glyph unicode="&#xe96a;" d="M577.536 441.856c-4.096-4.096-12.288-8.192-24.576-8.192s-18.432 6.144-18.432 18.432c0 0 0 2.048 0 4.096l4.096 32.768c2.048 12.288 8.192 20.48 22.528 20.48 10.24 0 18.432-4.096 22.528-8.192v4.096c0 2.048 2.048 4.096 4.096 4.096h12.288c2.048 0 4.096 0 2.048-4.096l-8.192-65.536c0-2.048-2.048-4.096-4.096-4.096h-10.24c-2.048 0-2.048 0-2.048 4.096v2.048zM555.008 458.24c0 0 0-2.048 0 0 0-4.096 2.048-8.192 6.144-8.192 6.144 0 14.336 4.096 18.432 6.144l4.096 28.672c-2.048 2.048-8.192 6.144-16.384 6.144-6.144 0-8.192-4.096-8.192-8.192l-4.096-24.576z" />
<glyph unicode="&#xe96b;" d="M686.080 491.008c0 0 0-2.048 0-2.048v-2.048c0-2.048-2.048-4.096-4.096-4.096h-10.24c-2.048 0-4.096 0-2.048 4.096v2.048c0 0 0 2.048 0 2.048 0 4.096-2.048 6.144-10.24 6.144s-12.288-2.048-12.288-8.192l-4.096-26.624c0-2.048 0-2.048 0-4.096 0-4.096 2.048-6.144 10.24-6.144s12.288 2.048 12.288 8.192v2.048c0 2.048 2.048 4.096 4.096 4.096h10.24c2.048 0 4.096-2.048 2.048-4.096v-4.096c-2.048-12.288-10.24-22.528-32.768-22.528-18.432 0-28.672 8.192-28.672 18.432 0 0 0 2.048 0 2.048l4.096 32.768c2.048 12.288 10.24 20.48 32.768 20.48 20.48 0 28.672-8.192 28.672-18.432z" />
<glyph unicode="&#xe96c;" d="M727.040 460.288c0-2.048 0-2.048 0-2.048 0-4.096 2.048-6.144 10.24-6.144h4.096c2.048 0 4.096-2.048 4.096-4.096v-8.192c0-2.048-2.048-4.096-4.096-4.096h-6.144c-18.432 0-24.576 6.144-24.576 16.384 0 2.048 0 2.048 0 4.096l4.096 34.816h-6.144c-2.048 0-4.096 2.048-2.048 4.096v8.192c0 2.048 2.048 4.096 4.096 4.096h6.144l2.048 14.336c0 2.048 2.048 4.096 4.096 4.096h12.288c2.048 0 4.096-2.048 2.048-4.096l-2.048-14.336h12.288c2.048 0 4.096-2.048 4.096-4.096v-8.192c0-2.048-2.048-4.096-4.096-4.096h-12.288l-8.192-30.72z" />
<glyph unicode="&#xe96d;" d="M768 486.912c2.048 12.288 12.288 20.48 32.768 20.48 18.432 0 28.672-8.192 28.672-18.432 0 0 0-2.048 0-2.048l-4.096-32.768c-2.048-12.288-12.288-22.528-32.768-22.528-18.432 0-28.672 8.192-28.672 18.432 0 0 0 2.048 0 2.048l4.096 34.816zM811.008 484.864c0 2.048 0 2.048 0 2.048 0 4.096-4.096 6.144-12.288 6.144s-12.288-2.048-12.288-8.192l-4.096-26.624c0-2.048 0-2.048 0-2.048 0-4.096 4.096-6.144 12.288-6.144s12.288 2.048 12.288 8.192l4.096 26.624z" />
<glyph unicode="&#xe96e;" d="M86.016 515.584h903.168v-184.32h-903.168v184.32z" />
<glyph unicode="&#xe96f;" d="M995.328 325.12h-913.408v196.608h915.456v-196.608zM92.16 337.408h890.88v172.032h-890.88v-172.032z" />
<glyph unicode="&#xe970;" d="M45.056 564.736h903.168v-184.32h-903.168v184.32z" />
<glyph unicode="&#xe971;" d="M954.368 374.272h-915.456v196.608h915.456v-196.608zM49.152 386.56h892.928v172.032h-892.928v-172.032z" />
<glyph unicode="&#xe972;" d="M212.992 468.48c0-2.048-2.048-2.048-2.048-2.048h-40.96l-2.048-12.288c0-2.048 0-2.048 0-4.096 0-4.096 4.096-8.192 14.336-8.192 12.288 0 16.384 4.096 16.384 10.24v2.048c0 2.048 2.048 2.048 4.096 2.048h8.192c2.048 0 2.048-2.048 2.048-2.048v-2.048c-2.048-12.288-8.192-20.48-30.72-20.48-18.432 0-26.624 6.144-26.624 18.432 0 2.048 0 2.048 0 2.048l4.096 34.816c2.048 12.288 10.24 20.48 30.72 20.48 18.432 0 26.624-6.144 26.624-18.432 0 0 0-2.048 0-2.048l-4.096-18.432zM169.984 476.672h30.72l2.048 8.192c0 0 0 2.048 0 2.048 0 4.096-4.096 8.192-14.336 8.192-12.288 0-16.384-4.096-16.384-10.24l-2.048-8.192z" />
<glyph unicode="&#xe973;" d="M280.576 439.808c-4.096-4.096-12.288-8.192-24.576-8.192s-18.432 6.144-18.432 16.384c0 2.048 0 2.048 0 4.096l4.096 36.864c2.048 12.288 8.192 20.48 22.528 20.48 12.288 0 20.48-6.144 24.576-8.192l4.096 34.816c0 2.048 2.048 2.048 4.096 2.048h8.192c2.048 0 2.048-2.048 2.048-2.048l-12.288-98.304c0-2.048-2.048-2.048-4.096-2.048h-8.192c-2.048 0-2.048 0-2.048 2.048v2.048zM249.856 454.144c0-2.048 0-2.048 0-2.048 0-4.096 2.048-8.192 10.24-8.192 10.24 0 18.432 6.144 20.48 8.192l4.096 36.864c-2.048 2.048-10.24 8.192-18.432 8.192s-12.288-4.096-12.288-10.24l-4.096-32.768z" />
<glyph unicode="&#xe974;" d="M366.592 437.76c-4.096-4.096-12.288-8.192-24.576-8.192s-20.48 6.144-20.48 16.384c0 0 0 2.048 0 2.048l6.144 53.248c0 2.048 2.048 2.048 4.096 2.048h8.192c2.048 0 2.048 0 2.048-2.048l-6.144-49.152c0 0 0-2.048 0-2.048 0-4.096 2.048-8.192 10.24-8.192 10.24 0 16.384 4.096 20.48 8.192l6.144 53.248c0 2.048 2.048 2.048 4.096 2.048h8.192c2.048 0 2.048-2.048 2.048-2.048l-8.192-69.632c0-2.048-2.048-2.048-4.096-2.048h-6.144c-2.048 0-2.048 0-2.048 2.048v4.096z" />
<glyph unicode="&#xe975;" d="M471.040 488.96c0 0 0-2.048 0-4.096v-2.048c0-2.048-2.048-2.048-4.096-2.048h-8.192c-2.048 0-2.048 0-2.048 2.048v2.048c0 2.048 0 2.048 0 2.048 0 4.096-4.096 8.192-14.336 8.192-12.288 0-14.336-4.096-16.384-10.24l-4.096-32.768c0-2.048 0-2.048 0-4.096 0-6.144 4.096-8.192 14.336-8.192 12.288 0 14.336 4.096 16.384 10.24v2.048c0 2.048 2.048 2.048 2.048 2.048h8.192c2.048 0 2.048-2.048 2.048-2.048v-4.096c-2.048-12.288-8.192-20.48-30.72-20.48-18.432 0-26.624 6.144-26.624 18.432 0 0 0 2.048 0 2.048l4.096 34.816c2.048 12.288 10.24 20.48 30.72 20.48 22.528 4.096 28.672-4.096 28.672-14.336z" />
<glyph unicode="&#xe976;" d="M534.528 439.808c-4.096-4.096-12.288-8.192-26.624-8.192-12.288 0-18.432 6.144-18.432 16.384 0 2.048 0 2.048 0 4.096l4.096 36.864c2.048 12.288 8.192 20.48 22.528 20.48 12.288 0 20.48-6.144 24.576-8.192v4.096c0 2.048 2.048 2.048 4.096 2.048h8.192c2.048 0 2.048 0 2.048-2.048l-8.192-69.632c0-2.048-2.048-2.048-4.096-2.048h-8.192c-2.048 0-2.048 0-2.048 2.048l2.048 4.096zM503.808 452.096c0 0 0-2.048 0-2.048 0-4.096 2.048-8.192 10.24-8.192 10.24 0 18.432 6.144 20.48 8.192l4.096 36.864c-2.048 2.048-10.24 8.192-18.432 8.192s-12.288-4.096-12.288-10.24l-4.096-32.768z" />
<glyph unicode="&#xe977;" d="M638.976 488.96c0 0 0-2.048 0-4.096v-2.048c0-2.048-2.048-2.048-4.096-2.048h-8.192c-2.048 0-2.048 0-2.048 2.048v2.048c0 2.048 0 2.048 0 2.048 0 4.096-4.096 8.192-14.336 8.192-12.288 0-14.336-4.096-16.384-10.24l-4.096-32.768c0-2.048 0-2.048 0-4.096 0-6.144 4.096-8.192 14.336-8.192 12.288 0 14.336 4.096 16.384 10.24v2.048c0 2.048 2.048 2.048 2.048 2.048h8.192c2.048 0 2.048-2.048 2.048-2.048v-4.096c-2.048-12.288-8.192-20.48-30.72-20.48-18.432 0-26.624 6.144-26.624 18.432 0 0 0 2.048 0 2.048l4.096 34.816c2.048 12.288 10.24 20.48 30.72 20.48 20.48 4.096 28.672-4.096 28.672-14.336z" />
<glyph unicode="&#xe978;" d="M669.696 433.664c0-2.048-2.048-2.048-4.096-2.048h-8.192c-2.048 0-2.048 0-2.048 2.048l8.192 69.632c0 2.048 2.048 2.048 2.048 2.048h10.24c2.048 0 2.048 0 2.048-2.048l-8.192-69.632zM679.936 519.68c0-2.048-2.048-2.048-2.048-2.048h-8.192c-2.048 0-2.048 0-2.048 2.048l2.048 14.336c0 2.048 2.048 2.048 4.096 2.048h8.192c2.048 0 2.048 0 2.048-2.048l-4.096-14.336z" />
<glyph unicode="&#xe979;" d="M702.464 486.912c2.048 12.288 10.24 20.48 32.768 20.48 18.432 0 28.672-6.144 28.672-18.432 0 0 0-2.048 0-2.048l-4.096-34.816c-2.048-12.288-10.24-20.48-32.768-20.48-18.432 0-28.672 8.192-28.672 18.432 0 0 0 2.048 0 2.048l4.096 34.816zM749.568 484.864v0c0 8.192-4.096 10.24-14.336 10.24-12.288 0-16.384-4.096-16.384-10.24l-4.096-32.768c0 0 0-2.048 0-2.048 0-6.144 4.096-8.192 14.336-8.192 12.288 0 16.384 4.096 16.384 10.24l4.096 32.768zM743.424 517.632c0 0-2.048-2.048-4.096-2.048h-8.192c-2.048 0-2.048 0-2.048 2.048l10.24 16.384c2.048 2.048 2.048 2.048 4.096 2.048h10.24c2.048 0 2.048-2.048 2.048-2.048l-12.288-16.384z" />
<glyph unicode="&#xe97a;" d="M804.864 505.344c2.048 0 2.048 0 2.048-2.048v-4.096c4.096 4.096 12.288 8.192 24.576 8.192s18.432-6.144 18.432-16.384c0 0 0-2.048 0-4.096l-6.144-53.248c0-2.048-2.048-2.048-4.096-2.048h-8.192c-2.048 0-2.048 0-2.048 2.048l6.144 49.152c0 2.048 0 2.048 0 2.048 0 4.096-2.048 8.192-10.24 8.192-10.24 0-18.432-4.096-22.528-8.192l-4.096-51.2c0-2.048-2.048-2.048-4.096-2.048h-8.192c-2.048 0-2.048 0-2.048 2.048l8.192 69.632c0 2.048 2.048 2.048 2.048 2.048h10.24z" />
<glyph unicode="&#xe97b;" glyph-name="Cristian_facebook" d="M389.12-41.472h190.464c16.384 0 28.672 12.288 28.672 28.672v430.080h98.304c14.336 0 28.672 12.288 28.672 26.624l16.384 161.792c0 8.192-2.048 16.384-8.192 22.528s-14.336 10.24-22.528 10.24h-116.736v65.536c0 14.336 4.096 14.336 10.24 14.336h102.4c16.384 0 28.672 12.288 28.672 28.672v159.744c0 16.384-12.288 28.672-28.672 28.672h-141.312c-98.304 0-151.552-43.008-180.224-79.872-36.864-51.2-43.008-110.592-43.008-141.312v-75.776h-61.44c-16.384 0-28.672-12.288-28.672-28.672v-161.792c0-16.384 12.288-28.672 28.672-28.672h61.44v-430.080c6.144-18.432 20.48-30.72 36.864-30.72zM327.68 476.672v102.4h61.44c16.384 0 28.672 12.288 28.672 28.672v104.448c0 18.432 4.096 67.584 30.72 106.496 28.672 40.96 73.728 59.392 133.12 59.392h112.64v-98.304h-73.728c-34.816 0-69.632-22.528-69.632-73.728v-96.256c0-16.384 12.288-28.672 28.672-28.672h112.64l-10.24-102.4h-102.4c-16.384 0-28.672-12.288-28.672-28.672v-430.080h-131.072v428.032c0 16.384-12.288 28.672-28.672 28.672h-63.488z" />
<glyph unicode="&#xe97c;" d="M862.208 259.584c-40.96 0-59.392 26.624-75.776 45.056-14.336 18.432-20.48 24.576-32.768 24.576s-18.432-6.144-32.768-24.576c-14.336-18.432-34.816-45.056-75.776-45.056s-59.392 26.624-75.776 45.056c-14.336 18.432-20.48 24.576-32.768 24.576-14.336 0-26.624 12.288-26.624 26.624s12.288 26.624 26.624 26.624c40.96 0 59.392-26.624 75.776-45.056 14.336-18.432 20.48-24.576 32.768-24.576s18.432 6.144 32.768 24.576c14.336 18.432 34.816 45.056 75.776 45.056s59.392-26.624 75.776-45.056c14.336-18.432 20.48-24.576 32.768-24.576s18.432 6.144 32.768 24.576c14.336 18.432 34.816 45.056 75.776 45.056 14.336 0 26.624-12.288 26.624-26.624s-12.288-26.624-26.624-26.624c-12.288 0-18.432-6.144-32.768-24.576-16.384-18.432-36.864-45.056-75.776-45.056z" />
<glyph unicode="&#xe97d;" d="M604.16 431.616c81.92 0 149.504 67.584 149.504 149.504s-67.584 149.504-149.504 149.504-149.504-67.584-149.504-149.504 67.584-149.504 149.504-149.504z" />
<glyph unicode="&#xe97e;" d="M391.168 165.376c67.584 0 120.832 53.248 120.832 120.832s-53.248 120.832-120.832 120.832-120.832-53.248-120.832-120.832c0-67.584 55.296-120.832 120.832-120.832z" />
<glyph unicode="&#xe97f;" d="M378.88 462.336c-40.96 0-61.44 26.624-75.776 47.104-14.336 18.432-20.48 24.576-32.768 24.576s-18.432-6.144-30.72-24.576c-14.336-20.48-34.816-47.104-75.776-47.104s-61.44 26.624-75.776 47.104c-14.336 18.432-20.48 24.576-30.72 24.576-14.336 0-28.672 12.288-28.672 28.672s12.288 28.672 28.672 28.672c40.96 0 61.44-26.624 75.776-47.104 14.336-18.432 20.48-24.576 30.72-24.576 12.288 0 18.432 6.144 32.768 24.576 14.336 20.48 34.816 47.104 75.776 47.104s61.44-26.624 75.776-47.104c14.336-18.432 20.48-24.576 32.768-24.576s18.432 6.144 30.72 24.576c14.336 20.48 34.816 47.104 75.776 47.104 14.336 0 28.672-12.288 28.672-28.672s-12.288-28.672-28.672-28.672c-12.288 0-18.432-6.144-30.72-24.576-16.384-20.48-36.864-47.104-77.824-47.104z" />
<glyph unicode="&#xe980;" d="M811.008 257.536c104.448 0 190.464 86.016 190.464 190.464s-86.016 190.464-190.464 190.464-190.464-86.016-190.464-190.464c0-104.448 86.016-190.464 190.464-190.464z" />
<glyph unicode="&#xe981;" d="M573.44 439.808c-63.488 0-94.208 40.96-118.784 71.68-22.528 28.672-30.72 38.912-51.2 38.912s-30.72-10.24-51.2-38.912c-22.528-30.72-55.296-71.68-118.784-71.68s-94.208 40.96-118.784 71.68c-20.48 28.672-30.72 38.912-49.152 38.912-22.528 0-40.96 18.432-40.96 40.96s18.432 40.96 40.96 40.96c63.488 0 94.208-40.96 118.784-71.68 22.528-28.672 30.72-38.912 51.2-38.912s30.72 10.24 51.2 38.912c22.528 30.72 55.296 71.68 118.784 71.68s94.208-40.96 118.784-71.68c22.528-28.672 30.72-38.912 51.2-38.912s30.72 10.24 51.2 38.912c22.528 30.72 55.296 71.68 118.784 71.68 22.528 0 40.96-18.432 40.96-40.96s-18.432-40.96-40.96-40.96c-20.48 0-30.72-10.24-51.2-38.912-26.624-30.72-57.344-71.68-120.832-71.68z" />
<glyph unicode="&#xe982;" d="M731.136 114.176c149.504 0 270.336 120.832 270.336 270.336s-120.832 270.336-270.336 270.336-270.336-120.832-270.336-270.336 120.832-270.336 270.336-270.336z" />
<glyph unicode="&#xe983;" d="M659.456 554.496c-73.728 0-110.592 49.152-137.216 83.968-24.576 32.768-34.816 45.056-57.344 45.056s-32.768-12.288-57.344-43.008c-26.624-34.816-63.488-83.968-137.216-83.968s-110.592 49.152-137.216 83.968c-24.576 32.768-34.816 43.008-57.344 43.008-28.672 0-51.2 22.528-51.2 51.2s22.528 51.2 51.2 51.2c73.728 0 110.592-49.152 137.216-83.968 24.576-32.768 34.816-43.008 57.344-43.008s32.768 12.288 57.344 45.056c26.624 34.816 63.488 83.968 137.216 83.968s110.592-49.152 137.216-83.968c24.576-32.768 34.816-43.008 57.344-43.008s32.768 12.288 57.344 43.008c26.624 34.816 63.488 83.968 137.216 83.968 28.672 0 51.2-22.528 51.2-51.2s-22.528-51.2-51.2-51.2c-22.528 0-32.768-12.288-57.344-43.008-28.672-38.912-65.536-88.064-137.216-88.064z" />
<glyph unicode="&#xe984;" d="M819.2 257.536c106.496 0 192.512 86.016 192.512 192.512s-86.016 192.512-192.512 192.512-192.512-86.016-192.512-192.512c0-106.496 86.016-192.512 192.512-192.512z" />
<glyph unicode="&#xe985;" d="M145.408 253.44c73.728 0 131.072 59.392 131.072 131.072 0 73.728-59.392 131.072-131.072 131.072s-133.12-57.344-133.12-129.024c0-73.728 59.392-133.12 133.12-133.12z" />
<glyph unicode="&#xe986;" d="M579.584 458.24c-55.296 0-81.92 36.864-104.448 65.536s-36.864 47.104-65.536 47.104c-28.672 0-45.056-18.432-65.536-47.104-22.528-28.672-49.152-65.536-104.448-65.536s-81.92 36.864-104.448 65.536c-24.576 28.672-40.96 47.104-69.632 47.104-14.336 0-24.576 10.24-24.576 24.576s10.24 24.576 24.576 24.576c55.296 0 81.92-36.864 104.448-65.536s36.864-47.104 65.536-47.104c28.672 0 45.056 18.432 65.536 47.104 22.528 28.672 49.152 65.536 104.448 65.536s81.92-36.864 104.448-65.536c22.528-28.672 36.864-47.104 65.536-47.104s45.056 18.432 65.536 47.104c22.528 28.672 49.152 65.536 104.448 65.536 14.336 0 24.576-10.24 24.576-24.576s-10.24-24.576-24.576-24.576c-28.672 0-45.056-18.432-65.536-47.104-18.432-28.672-47.104-65.536-100.352-65.536z" />
<glyph unicode="&#xe987;" d="M239.616 448c0-58.816-47.68-106.496-106.496-106.496s-106.496 47.68-106.496 106.496c0 58.816 47.68 106.496 106.496 106.496s106.496-47.68 106.496-106.496z" />
<glyph unicode="&#xe988;" d="M983.040 402.944c-36.864 0-53.248 18.432-69.632 34.816-14.336 14.336-26.624 26.624-51.2 26.624s-36.864-12.288-51.2-26.624c-16.384-16.384-34.816-34.816-69.632-34.816-36.864 0-53.248 18.432-69.632 34.816-14.336 14.336-26.624 26.624-51.2 26.624s-36.864-12.288-51.2-26.624c-16.384-16.384-34.816-34.816-69.632-34.816-36.864 0-53.248 18.432-69.632 34.816-14.336 14.336-26.624 26.624-51.2 26.624s-36.864-12.288-51.2-26.624c-16.384-16.384-34.816-34.816-69.632-34.816-36.864 0-53.248 18.432-69.632 34.816-14.336 14.336-26.624 26.624-51.2 26.624-6.144 0-12.288 6.144-12.288 12.288s6.144 12.288 12.288 12.288c36.864 0 53.248-18.432 69.632-34.816 14.336-14.336 26.624-26.624 51.2-26.624s36.864 12.288 51.2 26.624c16.384 16.384 34.816 34.816 69.632 34.816 36.864 0 53.248-18.432 69.632-34.816 14.336-14.336 26.624-26.624 51.2-26.624s36.864 12.288 51.2 26.624c16.384 16.384 34.816 34.816 69.632 34.816 36.864 0 53.248-18.432 69.632-34.816 14.336-14.336 26.624-26.624 51.2-26.624s36.864 12.288 51.2 26.624c16.384 16.384 34.816 34.816 69.632 34.816s53.248-18.432 69.632-34.816c14.336-14.336 26.624-26.624 51.2-26.624 6.144 0 12.288-6.144 12.288-12.288 2.048-6.144-4.096-12.288-12.288-12.288z" />
<glyph unicode="&#xe989;" d="M980.992 448c0-58.816-47.68-106.496-106.496-106.496s-106.496 47.68-106.496 106.496c0 58.816 47.68 106.496 106.496 106.496s106.496-47.68 106.496-106.496z" />
<glyph unicode="&#xe98a;" d="M851.968 429.568c-34.816 0-51.2 18.432-65.536 34.816-14.336 14.336-24.576 24.576-49.152 24.576-22.528 0-32.768-12.288-47.104-26.624-14.336-16.384-32.768-34.816-65.536-34.816-34.816 0-51.2 18.432-65.536 34.816s-24.576 26.624-47.104 26.624c-22.528 0-32.768-12.288-47.104-26.624-14.336-16.384-32.768-34.816-65.536-34.816s-51.2 18.432-65.536 34.816c-16.384 16.384-26.624 26.624-49.152 26.624s-32.768-12.288-47.104-26.624c-14.336-16.384-32.768-34.816-65.536-34.816-34.816 0-51.2 18.432-65.536 34.816-16.384 16.384-26.624 26.624-49.152 26.624-6.144 0-12.288 6.144-12.288 12.288s6.144 12.288 12.288 12.288c34.816 0 51.2-18.432 65.536-34.816 14.336-14.336 24.576-26.624 47.104-26.624s32.768 12.288 47.104 26.624c14.336 16.384 32.768 34.816 65.536 34.816s51.2-18.432 65.536-34.816c14.336-14.336 24.576-26.624 47.104-26.624s32.768 12.288 47.104 26.624c14.336 16.384 32.768 34.816 65.536 34.816 34.816 0 51.2-18.432 65.536-34.816 14.336-14.336 24.576-26.624 47.104-26.624s32.768 12.288 47.104 26.624c14.336 16.384 32.768 34.816 65.536 34.816 34.816 0 51.2-18.432 65.536-34.816 14.336-14.336 24.576-26.624 47.104-26.624 6.144 0 12.288-6.144 12.288-12.288 6.144-4.096 0-10.24-6.144-10.24z" />
<glyph unicode="&#xe98b;" d="M907.264 261.632c-30.72 0-45.056 20.48-57.344 36.864s-20.48 26.624-38.912 26.624c-16.384 0-24.576-10.24-36.864-26.624s-28.672-36.864-57.344-36.864c-30.72 0-45.056 20.48-57.344 36.864s-20.48 26.624-36.864 26.624c-6.144 0-12.288 6.144-12.288 12.288s6.144 12.288 12.288 12.288c30.72 0 45.056-20.48 57.344-36.864s20.48-26.624 36.864-26.624c16.384 0 24.576 10.24 38.912 26.624 12.288 16.384 28.672 36.864 57.344 36.864 30.72 0 45.056-20.48 57.344-36.864s20.48-26.624 36.864-26.624c16.384 0 24.576 10.24 36.864 26.624s28.672 36.864 57.344 36.864c6.144 0 12.288-6.144 12.288-12.288s-6.144-12.288-12.288-12.288c-16.384 0-24.576-10.24-36.864-26.624s-28.672-36.864-57.344-36.864z" />
<glyph unicode="&#xe98c;" d="M677.888 402.944c73.728 0 133.12 59.392 133.12 133.12s-59.392 133.12-133.12 133.12-133.12-59.392-133.12-133.12 59.392-133.12 133.12-133.12z" />
<glyph unicode="&#xe98d;" d="M489.472 134.656c59.392 0 106.496 47.104 106.496 106.496s-47.104 106.496-106.496 106.496-106.496-47.104-106.496-106.496c-2.048-57.344 47.104-106.496 106.496-106.496z" />
<glyph unicode="&#xe98e;" d="M321.536 493.056c-6.144-10.24-14.336-14.336-24.576-14.336-4.096 0-10.24 2.048-14.336 4.096l-86.016 49.152v-100.352c0-16.384-12.288-28.672-28.672-28.672s-28.672 12.288-28.672 28.672v100.352l-86.016-49.152c-4.096-2.048-10.24-4.096-14.336-4.096-10.24 0-20.48 6.144-24.576 14.336-8.192 14.336-4.096 30.72 10.24 38.912l86.016 49.152-88.064 51.2c-14.336 8.192-18.432 26.624-10.24 38.912 8.192 14.336 24.576 18.432 38.912 10.24l86.016-49.152v100.352c0 16.384 12.288 28.672 28.672 28.672s28.672-12.288 28.672-28.672v-100.352l86.016 49.152c14.336 8.192 30.72 4.096 38.912-10.24s4.096-30.72-10.24-38.912l-86.016-49.152 86.016-49.152c14.336-10.24 18.432-26.624 12.288-40.96z" />
<glyph unicode="&#xe98f;" d="M477.184 443.904c-30.72 0-45.056 20.48-57.344 36.864s-20.48 26.624-38.912 26.624c-16.384 0-24.576-10.24-36.864-26.624s-28.672-36.864-57.344-36.864c-30.72 0-45.056 20.48-57.344 36.864s-20.48 26.624-36.864 26.624c-6.144 0-12.288 6.144-12.288 12.288-2.048 6.144 4.096 10.24 10.24 10.24 30.72 0 45.056-20.48 57.344-36.864s20.48-26.624 36.864-26.624c16.384 0 24.576 10.24 38.912 26.624 12.288 16.384 28.672 36.864 57.344 36.864 30.72 0 45.056-20.48 57.344-36.864s20.48-26.624 36.864-26.624c16.384 0 24.576 10.24 36.864 26.624s28.672 36.864 57.344 36.864c6.144 0 12.288-6.144 12.288-12.288s-6.144-12.288-12.288-12.288c-16.384 0-24.576-10.24-36.864-26.624-10.24-16.384-24.576-34.816-55.296-34.816z" />
<glyph unicode="&#xe990;" d="M67.584 519.68h933.888v-192.512h-933.888v192.512z" />
<glyph unicode="&#xe991;" d="M1007.616 321.024h-946.176v204.8h946.176v-204.8zM73.728 333.312h921.6v180.224h-921.6v-180.224z" />
<glyph unicode="&#xe992;" d="M22.528 568.832h933.888v-192.512h-933.888v192.512z" />
<glyph unicode="&#xe993;" d="M962.56 370.176h-946.176v204.8h946.176v-204.8zM28.672 382.464h921.6v180.224h-921.6v-180.224z" />
<glyph unicode="&#xe994;" d="M100.352 439.808c0 2.048 0 2.048 0 4.096l4.096 36.864c2.048 12.288 8.192 20.48 22.528 20.48 12.288 0 20.48-6.144 24.576-8.192v4.096c0 2.048 2.048 2.048 2.048 2.048h8.192c2.048 0 2.048-2.048 2.048-2.048l-10.24-81.92c-2.048-12.288-10.24-20.48-32.768-20.48h-20.48c-2.048 0-2.048 0-2.048 2.048v6.144c0 2.048 2.048 2.048 4.096 2.048h20.48c12.288 0 16.384 4.096 16.384 10.24l2.048 16.384c-4.096-4.096-12.288-8.192-24.576-8.192-8.192 0-16.384 6.144-16.384 16.384zM116.736 448c0-2.048 0-2.048 0-2.048 0-4.096 2.048-8.192 10.24-8.192 10.24 0 18.432 6.144 22.528 8.192l4.096 36.864c-2.048 2.048-10.24 8.192-20.48 8.192-8.192 0-12.288-4.096-12.288-10.24l-4.096-32.768z" />
<glyph unicode="&#xe995;" d="M233.472 431.616c-4.096-4.096-12.288-8.192-26.624-8.192-12.288 0-20.48 6.144-20.48 16.384 0 2.048 0 2.048 0 4.096l4.096 36.864c2.048 12.288 8.192 20.48 22.528 20.48 12.288 0 20.48-6.144 24.576-8.192v4.096c0 2.048 2.048 2.048 4.096 2.048h8.192c2.048 0 2.048 0 2.048-2.048l-4.096-69.632c0-2.048-2.048-2.048-4.096-2.048h-8.192c-2.048 0-2.048 0-2.048 2.048v4.096zM202.752 445.952c0 0 0-2.048 0-2.048 0-4.096 2.048-8.192 10.24-8.192 10.24 0 18.432 6.144 22.528 8.192l4.096 36.864c-2.048 2.048-10.24 8.192-20.48 8.192-8.192 0-12.288-4.096-12.288-10.24l-4.096-32.768z" />
<glyph unicode="&#xe996;" d="M296.96 499.2c2.048 0 2.048 0 2.048-2.048v-4.096c4.096 4.096 12.288 8.192 24.576 8.192 10.24 0 16.384-4.096 18.432-10.24 4.096 4.096 12.288 10.24 26.624 10.24 12.288 0 20.48-6.144 20.48-16.384 0 0 0-2.048 0-2.048l-8.192-55.296c0-2.048-2.048-2.048-4.096-2.048h-8.192c-2.048 0-2.048 0-2.048 2.048l6.144 49.152c0 2.048 0 2.048 0 2.048 0 4.096-4.096 8.192-10.24 8.192-10.24 0-18.432-6.144-20.48-8.192 0 0 0-2.048 0-2.048l-6.144-49.152c0-2.048-2.048-2.048-4.096-2.048h-8.192c-2.048 0-2.048 0-2.048 2.048l6.144 49.152c0 2.048 0 2.048 0 2.048 0 4.096-4.096 8.192-10.24 8.192-10.24 0-16.384-6.144-20.48-8.192l-6.144-51.2c0-2.048-2.048-2.048-4.096-2.048h-8.192c-2.048 0-2.048 0-2.048 2.048l8.192 69.632c0 2.048 2.048 2.048 2.048 2.048h10.24z" />
<glyph unicode="&#xe997;" d="M454.656 431.616c-4.096-4.096-12.288-8.192-26.624-8.192-12.288 0-20.48 6.144-20.48 16.384 0 2.048 0 2.048 0 4.096l4.096 36.864c2.048 12.288 8.192 20.48 22.528 20.48 12.288 0 20.48-6.144 24.576-8.192v4.096c0 2.048 2.048 2.048 4.096 2.048h8.192c2.048 0 2.048 0 2.048-2.048l-4.096-69.632c0-2.048-2.048-2.048-4.096-2.048h-8.192c-2.048 0-2.048 0-2.048 2.048v4.096zM423.936 445.952c0 0 0-2.048 0-2.048 0-4.096 2.048-8.192 10.24-8.192 10.24 0 18.432 6.144 22.528 8.192l4.096 36.864c-2.048 2.048-10.24 8.192-20.48 8.192-8.192 0-12.288-4.096-12.288-10.24l-4.096-32.768z" />
<glyph unicode="&#xe998;" d="M557.056 448c0-2.048 0-2.048 0-2.048 0-6.144 4.096-8.192 14.336-8.192h2.048c2.048 0 2.048-2.048 2.048-2.048v-6.144c0-2.048-2.048-2.048-4.096-2.048h-4.096c-18.432 0-24.576 6.144-24.576 16.384 0 2.048 0 2.048 0 4.096l6.144 43.008h-8.192c-2.048 0-2.048 2.048-2.048 2.048v6.144c0 2.048 2.048 2.048 4.096 2.048h8.192l2.048 14.336c0 2.048 2.048 2.048 4.096 2.048h8.192c2.048 0 2.048-2.048 2.048-2.048l-2.048-14.336h16.384c2.048 0 2.048-2.048 2.048-2.048v-6.144c0-2.048-2.048-2.048-4.096-2.048h-16.384l-6.144-43.008z" />
<glyph unicode="&#xe999;" d="M602.112 480.768c2.048 12.288 10.24 20.48 32.768 20.48 18.432 0 28.672-6.144 28.672-18.432 0 0 0-2.048 0-2.048l-4.096-36.864c-2.048-12.288-10.24-20.48-32.768-20.48-18.432 0-28.672 8.192-28.672 18.432 0 0 0 2.048 0 2.048l4.096 36.864zM647.168 478.72v0c0 8.192-4.096 10.24-14.336 10.24-12.288 0-16.384-4.096-16.384-10.24l-4.096-32.768c0 0 0-2.048 0-2.048 0-6.144 4.096-8.192 14.336-8.192 12.288 0 16.384 4.096 16.384 10.24l4.096 32.768z" />
<glyph unicode="&#xe99a;" d="M702.464 499.2c2.048 0 2.048 0 2.048-2.048v-4.096c4.096 4.096 14.336 8.192 26.624 8.192s20.48-6.144 20.48-16.384c0 0 0-2.048 0-4.096l-8.192-53.248c0-2.048-2.048-2.048-4.096-2.048h-8.192c-2.048 0-2.048 0-2.048 2.048l6.144 49.152c0 2.048 0 2.048 0 2.048 0 4.096-2.048 8.192-10.24 8.192-10.24 0-18.432-6.144-22.528-8.192l-6.144-51.2c0-2.048-2.048-2.048-4.096-2.048h-8.192c-2.048 0-2.048 0-2.048 2.048l8.192 69.632c0 2.048 2.048 2.048 2.048 2.048h10.24z" />
<glyph unicode="&#xe99b;" d="M817.152 431.616c-4.096-4.096-12.288-8.192-26.624-8.192-12.288 0-20.48 6.144-20.48 16.384 0 2.048 0 2.048 0 4.096l4.096 36.864c2.048 12.288 8.192 20.48 22.528 20.48 12.288 0 20.48-6.144 24.576-8.192v4.096c0 2.048 2.048 2.048 4.096 2.048h8.192c2.048 0 2.048 0 2.048-2.048l-6.144-69.632c0-2.048-2.048-2.048-4.096-2.048h-6.144c-2.048 0-2.048 0-2.048 2.048v4.096zM786.432 445.952c0 0 0-2.048 0-2.048 0-4.096 2.048-8.192 10.24-8.192 10.24 0 18.432 6.144 22.528 8.192l4.096 36.864c-2.048 2.048-10.24 8.192-20.48 8.192-8.192 0-12.288-4.096-12.288-10.24l-4.096-32.768z" />
<glyph unicode="&#xe99c;" d="M872.448 427.52c0-2.048-2.048-2.048-4.096-2.048h-8.192c-2.048 0-2.048 0-2.048 2.048l12.288 100.352c0 2.048 2.048 2.048 4.096 2.048h8.192c2.048 0 2.048 0 2.048-2.048l-12.288-100.352z" />
<glyph unicode="&#xe99d;" glyph-name="Cristian_gotero" d="M884.736 826.88c0 26.624-10.24 53.248-30.72 71.68-18.432 18.432-45.056 30.72-71.68 30.72s-53.248-10.24-71.68-30.72l-73.728-73.728-18.432 18.432c-4.096 4.096-14.336 10.24-28.672 10.24-18.432 0-40.96-10.24-55.296-22.528-10.24-10.24-14.336-22.528-14.336-36.864s6.144-26.624 14.336-36.864l28.672-28.672-315.392-311.296c-16.384-16.384-26.624-38.912-26.624-63.488s8.192-45.056 26.624-63.488c16.384-16.384 38.912-26.624 63.488-26.624 22.528 0 45.056 8.192 63.488 26.624l315.392 315.392 28.672-28.672c10.24-10.24 22.528-14.336 36.864-14.336s26.624 6.144 36.864 14.336c8.192 8.192 16.384 22.528 20.48 36.864 4.096 20.48 2.048 36.864-8.192 47.104l-18.432 18.432 73.728 73.728c12.288 20.48 24.576 47.104 24.576 73.728zM344.064 318.976c-18.432-18.432-49.152-18.432-69.632 0-10.24 10.24-14.336 20.48-14.336 34.816s4.096 24.576 14.336 34.816l315.392 315.392 69.632-69.632-315.392-315.392zM759.808 605.696c-2.048-2.048-6.144-4.096-8.192-4.096-4.096 0-6.144 2.048-8.192 4.096l-182.272 182.272c-2.048 2.048-4.096 6.144-4.096 8.192 0 4.096 2.048 6.144 4.096 8.192 4.096 4.096 18.432 10.24 26.624 10.24 2.048 0 2.048 0 2.048 0l182.272-182.272c0-2.048-4.096-18.432-12.288-26.624zM825.344 781.824l-73.728-73.728-88.064 88.064 73.728 73.728c12.288 12.288 26.624 18.432 43.008 18.432s32.768-6.144 43.008-18.432c12.288-12.288 18.432-26.624 18.432-43.008 2.048-16.384-4.096-32.768-16.384-45.056zM309.248 261.632c-24.576 0-47.104 10.24-65.536 26.624-16.384 16.384-26.624 40.96-26.624 65.536s10.24 47.104 26.624 65.536l311.296 311.296-22.528 26.624c-10.24 10.24-16.384 24.576-16.384 38.912s6.144 28.672 16.384 38.912c12.288 12.288 36.864 22.528 55.296 22.528 16.384 0 26.624-6.144 32.768-12.288l16.384-16.384 71.68 71.68c20.48 20.48 47.104 30.72 73.728 30.72 28.672 0 55.296-10.24 73.728-30.72 20.48-20.48 30.72-47.104 30.72-73.728v0c0-28.672-10.24-55.296-30.72-73.728l-71.68-71.68 16.384-16.384c12.288-12.288 14.336-28.672 10.24-49.152-4.096-14.336-12.288-28.672-20.48-38.912-10.24-10.24-24.576-16.384-38.912-16.384s-28.672 6.144-38.912 16.384l-26.624 26.624-311.296-315.392c-16.384-16.384-40.96-26.624-65.536-26.624zM587.776 851.456c-18.432 0-38.912-8.192-51.2-20.48-8.192-8.192-14.336-20.48-14.336-34.816 0-12.288 4.096-24.576 14.336-34.816l30.72-30.72-317.44-315.392c-16.384-16.384-24.576-36.864-24.576-59.392s8.192-45.056 24.576-59.392c16.384-16.384 36.864-24.576 59.392-24.576s45.056 8.192 59.392 24.576l317.44 315.392 30.72-30.72c8.192-8.192 20.48-14.336 34.816-14.336s24.576 4.096 34.816 14.336c8.192 8.192 16.384 22.528 18.432 34.816 4.096 18.432 2.048 34.816-8.192 43.008l-20.48 20.48 75.776 75.776c18.432 20.48 28.672 45.056 28.672 71.68s-10.24 51.2-28.672 69.632c-18.432 18.432-43.008 28.672-69.632 28.672s-51.2-10.24-69.632-28.672l-75.776-75.776-20.48 20.48c-6.144 4.096-14.336 10.24-28.672 10.24zM309.248 302.592c-14.336 0-26.624 6.144-36.864 14.336-10.24 10.24-14.336 22.528-14.336 36.864s6.144 26.624 14.336 36.864l317.44 317.44 73.728-73.728-317.44-317.44c-10.24-10.24-22.528-14.336-36.864-14.336zM589.824 697.856l-311.296-311.296c-8.192-8.192-14.336-20.48-14.336-32.768s4.096-24.576 14.336-32.768c8.192-8.192 20.48-14.336 32.768-14.336s24.576 4.096 32.768 14.336l311.296 311.296-65.536 65.536zM751.616 599.552c-4.096 0-8.192 2.048-10.24 4.096l-180.224 180.224c-2.048 2.048-4.096 6.144-4.096 10.24s2.048 8.192 4.096 10.24c6.144 6.144 18.432 12.288 28.672 12.288 2.048 0 2.048 0 2.048 0v0l180.224-180.224c2.048-6.144-4.096-24.576-12.288-32.768 0-2.048-4.096-4.096-8.192-4.096zM587.776 812.544c-8.192 0-20.48-6.144-24.576-10.24-2.048-2.048-2.048-4.096-2.048-6.144s0-4.096 2.048-6.144l180.224-180.224c4.096-4.096 8.192-4.096 12.288 0 6.144 6.144 10.24 20.48 10.24 24.576l-178.176 178.176c0 0 0 0 0 0zM751.616 704l-92.16 92.16 75.776 75.776c12.288 12.288 28.672 18.432 47.104 18.432s34.816-6.144 47.104-18.432c12.288-12.288 18.432-28.672 18.432-47.104s-6.144-34.816-18.432-47.104v0l-77.824-73.728zM669.696 796.16l83.968-83.968 71.68 71.68c10.24 10.24 16.384 26.624 16.384 40.96 0 16.384-6.144 30.72-16.384 40.96s-26.624 16.384-40.96 16.384c-16.384 0-30.72-6.144-40.96-16.384l-73.728-69.632zM241.664 243.2c-6.144 0-12.288-2.048-16.384-8.192-14.336-18.432-86.016-116.736-86.016-165.888 0-55.296 45.056-102.4 102.4-102.4s102.4 45.056 102.4 102.4c0 49.152-71.68 145.408-86.016 165.888-4.096 4.096-10.24 8.192-16.384 8.192zM241.664 7.68c-34.816 0-61.44 28.672-61.44 61.44 0 22.528 32.768 77.824 61.44 118.784 28.672-43.008 61.44-96.256 61.44-118.784 0-34.816-26.624-61.44-61.44-61.44zM241.664-35.328c-57.344 0-104.448 47.104-104.448 104.448 0 51.2 71.68 147.456 86.016 167.936 4.096 6.144 10.24 8.192 18.432 8.192s14.336-4.096 18.432-8.192c14.336-18.432 86.016-116.736 86.016-167.936 0-57.344-47.104-104.448-104.448-104.448zM241.664 239.104c-6.144 0-10.24-2.048-12.288-6.144-14.336-18.432-86.016-114.688-86.016-163.84 0-53.248 45.056-98.304 98.304-98.304s98.304 45.056 98.304 98.304c0 49.152-71.68 143.36-86.016 163.84-2.048 4.096-6.144 6.144-12.288 6.144zM241.664 3.584c-36.864 0-65.536 28.672-65.536 65.536 0 24.576 32.768 77.824 63.488 120.832l2.048 4.096 2.048-4.096c30.72-43.008 63.488-98.304 63.488-120.832 0-34.816-28.672-65.536-65.536-65.536zM241.664 183.808c-28.672-43.008-59.392-94.208-59.392-114.688 0-32.768 26.624-59.392 59.392-59.392s59.392 26.624 59.392 59.392c0 20.48-28.672 71.68-59.392 114.688z" />
<glyph unicode="&#xe99e;" glyph-name="Cristian_guion" d="M915.456 364.032h-806.912c-47.104 0-83.968 38.912-83.968 83.968s38.912 83.968 83.968 83.968h806.912c47.104 0 83.968-38.912 83.968-83.968s-36.864-83.968-83.968-83.968z" />
<glyph unicode="&#xe99f;" glyph-name="Cristian_guion-curvo" d="M727.040 323.072c-81.92 0-126.976 51.2-155.648 83.968-26.624 30.72-36.864 40.96-59.392 40.96s-32.768-10.24-59.392-40.96c-28.672-32.768-71.68-83.968-155.648-83.968-81.92 0-126.976 51.2-155.648 83.968-26.624 30.72-36.864 40.96-59.392 40.96-32.768 0-61.44 26.624-61.44 61.44s28.672 63.488 63.488 63.488c81.92 0 126.976-51.2 155.648-83.968 26.624-30.72 36.864-40.96 59.392-40.96s32.768 10.24 59.392 40.96c28.672 32.768 71.68 83.968 155.648 83.968 81.92 0 126.976-51.2 155.648-83.968 26.624-30.72 36.864-40.96 59.392-40.96s32.768 10.24 59.392 40.96c28.672 32.768 71.68 83.968 155.648 83.968 34.816 0 63.488-28.672 63.488-63.488s-28.672-63.488-63.488-63.488c-22.528 0-32.768-10.24-59.392-40.96-32.768-32.768-75.776-81.92-157.696-81.92z" />
<glyph unicode="&#xe9a0;" d="M28.672 517.632h866.304v-247.808h-866.304v247.808z" />
<glyph unicode="&#xe9a1;" d="M901.12 263.68h-878.592v260.096h878.592v-260.096zM34.816 275.968h854.016v235.52h-854.016v-235.52z" />
<glyph unicode="&#xe9a2;" d="M77.824 568.832h866.304v-247.808h-866.304v247.808z" />
<glyph unicode="&#xe9a3;" d="M950.272 314.88h-878.592v260.096h878.592v-260.096zM83.968 327.168h854.016v235.52h-854.016v-235.52z" />
<glyph unicode="&#xe9a4;" d="M129.024 626.176h866.304v-247.808h-866.304v247.808z" />
<glyph unicode="&#xe9a5;" d="M1001.472 372.224h-878.592v260.096h878.592v-260.096zM135.168 384.512h854.016v235.52h-854.016v-235.52z" />
<glyph unicode="&#xe9a6;" d="M391.168 513.536h43.008l6.144 51.2c0 4.096 2.048 6.144 6.144 6.144h18.432c4.096 0 4.096-2.048 4.096-6.144l-16.384-126.976c0-4.096-2.048-6.144-4.096-6.144h-18.432c-4.096 0-4.096 2.048-4.096 6.144l6.144 53.248h-43.008l-6.144-53.248c0-4.096-2.048-6.144-6.144-6.144h-18.432c-4.096 0-4.096 2.048-4.096 6.144l16.384 126.976c0 4.096 2.048 6.144 6.144 6.144h18.432c4.096 0 4.096-2.048 4.096-6.144l-8.192-51.2z" />
<glyph unicode="&#xe9a7;" d="M497.664 503.296c2.048 18.432 16.384 30.72 47.104 30.72 26.624 0 40.96-10.24 40.96-26.624 0-2.048 0-2.048 0-4.096l-6.144-45.056c-2.048-18.432-16.384-30.72-47.104-30.72-26.624 0-40.96 10.24-40.96 26.624 0 0 0 2.048 0 4.096l6.144 45.056zM557.056 499.2c0 2.048 0 2.048 0 4.096 0 6.144-6.144 10.24-16.384 10.24-12.288 0-18.432-4.096-18.432-10.24l-4.096-38.912c0-2.048 0-2.048 0-4.096 0-6.144 6.144-10.24 16.384-10.24 12.288 0 18.432 4.096 18.432 10.24l4.096 38.912z" />
<glyph unicode="&#xe9a8;" d="M636.928 437.76c0-4.096-2.048-6.144-6.144-6.144h-16.384c-4.096 0-4.096 2.048-4.096 6.144l16.384 131.072c0 4.096 2.048 6.144 6.144 6.144h16.384c4.096 0 4.096-2.048 4.096-6.144l-16.384-131.072z" />
<glyph unicode="&#xe9a9;" d="M733.184 441.856c-6.144-4.096-16.384-12.288-32.768-12.288-18.432 0-26.624 10.24-26.624 24.576 0 2.048 0 4.096 0 4.096l6.144 45.056c2.048 18.432 10.24 28.672 32.768 28.672 16.384 0 26.624-6.144 30.72-10.24v4.096c0 4.096 2.048 4.096 6.144 4.096h16.384c2.048 0 4.096-2.048 4.096-4.096l-12.288-88.064c0-4.096-2.048-6.144-6.144-6.144h-14.336c-2.048 0-4.096 2.048-4.096 6.144v4.096zM700.416 464.384c0 0 0-2.048 0-2.048 0-4.096 2.048-8.192 10.24-8.192 10.24 0 20.48 6.144 24.576 8.192l4.096 38.912c-4.096 4.096-12.288 10.24-22.528 10.24-8.192 0-12.288-4.096-12.288-10.24l-4.096-36.864z" />
<glyph unicode="&#xe9aa;" glyph-name="Cristian_home" d="M991.232 552.448l-327.68 247.808c-8.192 6.144-20.48 6.144-28.672 0l-53.248-40.96-53.248 40.96c-8.192 6.144-20.48 6.144-28.672 0l-53.248-38.912-53.248 38.912c-8.192 6.144-20.48 6.144-28.672 0l-331.776-247.808c-6.144-4.096-10.24-12.288-10.24-20.48v-417.792c0-14.336 10.24-24.576 24.576-24.576h929.792c14.336 0 24.576 10.24 24.576 24.576v417.792c0 8.192-4.096 16.384-10.24 20.48v0zM952.32 140.8h-88.064v391.168c0 8.192-4.096 14.336-10.24 20.48l-233.472 176.128 28.672 20.48 305.152-229.376v-378.88zM729.088 140.8v391.168c0 8.192-4.096 14.336-10.24 20.48l-235.52 178.176 26.624 20.48 305.152-229.376v-380.928h-86.016zM415.744 140.8h-79.872v178.176h79.872v-178.176zM464.896 140.8v202.752c0 14.336-10.24 24.576-24.576 24.576h-129.024c-14.336 0-24.576-10.24-24.576-24.576v-202.752h-215.040v378.88l305.152 229.376 305.152-229.376v-378.88h-217.088zM976.896 81.408h-929.792c-18.432 0-34.816 14.336-34.816 34.816v415.744c0 10.24 4.096 20.48 14.336 26.624l327.68 249.856c12.288 8.192 28.672 8.192 40.96 0l47.104-34.816 47.104 34.816c12.288 8.192 28.672 8.192 40.96 0l49.152-36.864 49.152 36.864c12.288 8.192 28.672 8.192 40.96 0l329.728-247.808c8.192-6.144 14.336-16.384 14.336-26.624v-417.792c-2.048-20.48-18.432-34.816-36.864-34.816zM374.784 796.16c-4.096 0-6.144 0-8.192-2.048l-329.728-249.856c-4.096-2.048-6.144-8.192-6.144-12.288v-417.792c0-8.192 6.144-14.336 14.336-14.336h929.792c8.192 0 14.336 6.144 14.336 14.336v417.792c0 4.096-2.048 8.192-6.144 12.288l-325.632 247.808c-6.144 4.096-12.288 4.096-18.432 0l-59.392-45.056-59.392 45.056c-6.144 4.096-12.288 4.096-18.432 0l-59.392-45.056-59.392 45.056c0 2.048-4.096 4.096-8.192 4.096zM825.344 130.56h-104.448v401.408c0 4.096-2.048 8.192-6.144 12.288l-245.76 184.32 43.008 32.768 313.344-237.568v-393.216zM739.328 148.992h67.584v366.592l-296.96 223.232-10.24-8.192 225.28-169.984c8.192-6.144 14.336-16.384 14.336-26.624v-385.024zM962.56 130.56h-108.544v401.408c0 4.096-2.048 8.192-6.144 12.288l-243.712 184.32 43.008 32.768 315.392-235.52v-395.264zM872.448 148.992h69.632v366.592l-292.864 223.232-12.288-10.24 223.232-167.936c8.192-6.144 14.336-16.384 14.336-26.624v-385.024zM690.176 130.56h-235.52v212.992c0 8.192-6.144 14.336-14.336 14.336h-129.024c-8.192 0-14.336-6.144-14.336-14.336v-212.992h-235.52v395.264l313.344 235.52 313.344-237.568v-393.216zM475.136 148.992h196.608v366.592l-296.96 223.232-292.864-223.232v-366.592h196.608v192.512c0 18.432 14.336 34.816 34.816 34.816h129.024c18.432 0 34.816-14.336 34.816-34.816v-192.512zM425.984 130.56h-100.352v196.608h100.352v-196.608zM344.064 148.992h61.44v159.744h-61.44v-159.744z" />
<glyph unicode="&#xe9ab;" glyph-name="Cristian_instagram" d="M182.272 927.232c-81.92 0-149.504-67.584-149.504-149.504v-659.456c0-81.92 67.584-149.504 149.504-149.504h659.456c81.92 0 149.504 67.584 149.504 149.504v659.456c0 81.92-67.584 149.504-149.504 149.504h-659.456zM841.728 28.16h-659.456c-49.152 0-90.112 40.96-90.112 90.112v450.56h178.176c-18.432-36.864-28.672-77.824-28.672-120.832 0-149.504 120.832-270.336 270.336-270.336s270.336 120.832 270.336 270.336c0 43.008-10.24 83.968-28.672 120.832h178.176v-450.56c0-49.152-40.96-90.112-90.112-90.112zM722.944 448c0-116.736-94.208-210.944-210.944-210.944s-210.944 94.208-210.944 210.944 94.208 210.944 210.944 210.944 210.944-94.208 210.944-210.944zM931.84 777.728v-149.504h-219.136c-49.152 55.296-120.832 90.112-200.704 90.112s-151.552-34.816-200.704-90.112h-219.136v149.504c0 38.912 24.576 71.68 59.392 83.968v-174.080c0-16.384 14.336-30.72 30.72-30.72s30.72 14.336 30.72 30.72v180.224h30.72v-180.224c0-16.384 14.336-30.72 30.72-30.72s30.72 14.336 30.72 30.72v180.224h540.672c45.056 0 86.016-40.96 86.016-90.112zM512 597.504c-16.384 0-30.72-14.336-30.72-30.72s14.336-30.72 30.72-30.72c49.152 0 90.112-40.96 90.112-90.112 0-16.384 14.336-30.72 30.72-30.72s30.72 14.336 30.72 30.72c-2.048 83.968-69.632 151.552-151.552 151.552z" />
<glyph unicode="&#xe9ac;" glyph-name="Cristian_left" d="M688.128 937.472c30.72 0 59.392-10.24 83.968-32.768 49.152-47.104 51.2-122.88 4.096-172.032l-272.384-284.672 270.336-282.624c47.104-49.152 45.056-124.928-4.096-172.032s-124.928-45.056-172.032 4.096l-348.16 366.592c-45.056 47.104-45.056 120.832 0 167.936l350.208 366.592c22.528 26.624 55.296 38.912 88.064 38.912z" />
<glyph unicode="&#xe9ad;" d="M890.88 820.736c0 10.24-8.192 18.432-18.432 18.432h-43.008v-315.392h43.008c10.24 0 18.432 8.192 18.432 18.432v278.528z" />
<glyph unicode="&#xe9ae;" d="M796.672 888.32c0 4.096-2.048 6.144-6.144 6.144h-651.264c-4.096 0-6.144-2.048-6.144-6.144v-882.688c0-4.096 2.048-6.144 6.144-6.144h649.216c4.096 0 6.144 2.048 6.144 6.144v882.688z" />
<glyph unicode="&#xe9af;" d="M661.504 781.824h-397.312v-51.2h155.648c10.24 0 16.384-8.192 16.384-16.384v-339.968h51.2v337.92c0 10.24 8.192 16.384 16.384 16.384h155.648l2.048 53.248z" />
<glyph unicode="&#xe9b0;" d="M681.984 261.632c0-8.192-8.192-16.384-16.384-16.384h-401.408c-8.192 0-16.384 8.192-16.384 16.384s8.192 16.384 16.384 16.384h403.456c8.192 0 14.336-8.192 14.336-16.384zM464.896 114.176h-200.704c-8.192 0-16.384-8.192-16.384-16.384s8.192-16.384 16.384-16.384h200.704c8.192 0 16.384 8.192 16.384 16.384 0 10.24-6.144 16.384-16.384 16.384zM665.6 196.096h-401.408c-8.192 0-16.384-8.192-16.384-16.384s8.192-16.384 16.384-16.384h403.456c8.192 0 16.384 8.192 16.384 16.384-2.048 10.24-8.192 16.384-18.432 16.384zM681.984 798.208v-79.872c0-8.192-8.192-16.384-16.384-16.384h-145.408v-319.488c0-8.192-8.192-16.384-16.384-16.384h-79.872c-8.192 0-16.384 8.192-16.384 16.384v319.488h-145.408c-8.192 0-16.384 8.192-16.384 16.384v79.872c0 8.192 8.192 16.384 16.384 16.384h403.456c10.24 0 16.384-8.192 16.384-16.384zM651.264 781.824h-370.688v-49.152h145.408c8.192 0 16.384-8.192 16.384-16.384v-319.488h49.152v319.488c0 8.192 8.192 16.384 16.384 16.384h145.408l-2.048 49.152zM921.6 820.736v-280.576c0-26.624-22.528-49.152-49.152-49.152h-43.008v-483.328c0-20.48-16.384-38.912-38.912-38.912h-651.264c-20.48 0-38.912 16.384-38.912 38.912v880.64c0 20.48 16.384 38.912 38.912 38.912h649.216c20.48 0 38.912-16.384 38.912-38.912v-18.432h43.008c28.672 0 51.2-22.528 51.2-49.152zM796.672 888.32c0 4.096-2.048 6.144-6.144 6.144h-651.264c-4.096 0-6.144-2.048-6.144-6.144v-882.688c0-4.096 2.048-6.144 6.144-6.144h649.216c4.096 0 6.144 2.048 6.144 6.144v882.688zM890.88 820.736c0 10.24-8.192 18.432-18.432 18.432h-43.008v-315.392h43.008c10.24 0 18.432 8.192 18.432 18.432v278.528z" />
<glyph unicode="&#xe9b1;" glyph-name="Cristian_logotipo" d="M147.456 509.44c-2.048 2.048-4.096 4.096-8.192 4.096s-6.144-2.048-8.192-4.096v0c-10.24-10.24-24.576-16.384-40.96-16.384s-28.672 6.144-40.96 16.384c-10.24 10.24-16.384 24.576-16.384 40.96s6.144 28.672 16.384 40.96c10.24 10.24 24.576 16.384 40.96 16.384 14.336 0 28.672-4.096 38.912-14.336v0l2.048-2.048c2.048-2.048 4.096-4.096 8.192-4.096s6.144 2.048 8.192 4.096c2.048 2.048 4.096 4.096 4.096 8.192s0 6.144-2.048 8.192c0 0-2.048 2.048-2.048 2.048-16.384 14.336-32.768 22.528-55.296 22.528s-40.96-8.192-57.344-22.528c-16.384-16.384-22.528-34.816-22.528-57.344s8.192-40.96 22.528-57.344c14.336-18.432 32.768-26.624 55.296-26.624s40.96 8.192 57.344 22.528v0 0c2.048 2.048 4.096 4.096 4.096 8.192s-2.048 8.192-4.096 10.24zM309.248 660.992c2.048-2.048 4.096-4.096 8.192-4.096s6.144 2.048 8.192 4.096c2.048 2.048 4.096 4.096 4.096 8.192s-2.048 6.144-4.096 8.192c-2.048 2.048-4.096 4.096-8.192 4.096s-6.144-2.048-8.192-4.096c-2.048-2.048-2.048-4.096-2.048-6.144 0-4.096 0-6.144 2.048-10.24zM632.832 617.984c0 4.096-2.048 6.144-4.096 8.192s-4.096 4.096-8.192 4.096-6.144-2.048-8.192-4.096c-2.048-2.048-4.096-4.096-4.096-8.192v-137.216c0-4.096 2.048-6.144 4.096-8.192s4.096-4.096 8.192-4.096 6.144 2.048 8.192 4.096c2.048 2.048 4.096 4.096 4.096 8.192v137.216zM614.4 660.992c2.048-2.048 4.096-4.096 8.192-4.096s6.144 2.048 8.192 4.096c2.048 2.048 4.096 4.096 4.096 8.192s-2.048 6.144-4.096 8.192c-2.048 2.048-4.096 4.096-8.192 4.096s-6.144-2.048-8.192-4.096c-2.048-2.048-4.096-4.096-4.096-8.192 0-2.048 0-4.096 4.096-8.192zM825.344 550.4c0 22.528-8.192 40.96-22.528 55.296-16.384 16.384-34.816 22.528-57.344 22.528s-40.96-8.192-57.344-22.528c-16.384-16.384-22.528-34.816-22.528-57.344s8.192-40.96 22.528-57.344c16.384-16.384 34.816-22.528 57.344-22.528 18.432 0 34.816 6.144 47.104 16.384l10.24 6.144v-12.288c0-2.048 0-6.144 2.048-8.192s6.144-2.048 10.24-2.048 6.144 0 10.24 2.048 2.048 6.144 2.048 8.192v71.68zM802.816 552.448c0 0 0-2.048 0-2.048v-6.144c-2.048-12.288-6.144-24.576-16.384-32.768-10.24-10.24-24.576-16.384-40.96-16.384s-28.672 6.144-40.96 16.384c-10.24 10.24-16.384 24.576-16.384 40.96s6.144 28.672 16.384 40.96c10.24 10.24 24.576 16.384 40.96 16.384s28.672-6.144 40.96-16.384c10.24-14.336 14.336-26.624 16.384-40.96v0 0zM1013.76 550.4c0 22.528-8.192 40.96-22.528 55.296s-32.768 22.528-55.296 24.576h-2.048c-22.528-2.048-40.96-10.24-55.296-24.576-18.432-14.336-26.624-32.768-26.624-55.296v-67.584c0-4.096 2.048-8.192 4.096-10.24s4.096-4.096 8.192-4.096 6.144 2.048 8.192 4.096c2.048 2.048 4.096 6.144 4.096 10.24v67.584c0 0 0 2.048 0 2.048v0 0c0 14.336 6.144 26.624 16.384 36.864s24.576 16.384 40.96 16.384v0c16.384 0 28.672-6.144 40.96-16.384 10.24-10.24 16.384-22.528 16.384-36.864v0 0c0 0 0-2.048 0-2.048v-67.584c0-4.096 2.048-8.192 4.096-10.24s4.096-4.096 8.192-4.096 6.144 2.048 8.192 4.096c2.048 2.048 4.096 6.144 4.096 10.24v67.584zM327.68 624.128c-2.048 4.096-6.144 6.144-10.24 6.144h-57.344c-22.528-2.048-43.008-8.192-57.344-24.576-14.336-14.336-22.528-32.768-22.528-55.296v-67.584c0-4.096 2.048-8.192 4.096-10.24s4.096-4.096 6.144-4.096c4.096 0 6.144 2.048 8.192 4.096s4.096 6.144 4.096 10.24v67.584c0 0 0 2.048 0 2.048v0 0c0 14.336 6.144 26.624 16.384 36.864s24.576 16.384 40.96 16.384v0h47.104v-124.928c0-4.096 2.048-6.144 4.096-8.192s4.096-4.096 8.192-4.096c4.096 0 6.144 2.048 8.192 4.096s4.096 4.096 4.096 8.192v137.216c-2.048 2.048-2.048 4.096-4.096 6.144zM577.536 626.176c-2.048 2.048-4.096 4.096-8.192 4.096h-24.576v38.912c0 4.096-2.048 6.144-4.096 8.192s-4.096 4.096-8.192 4.096-6.144-2.048-8.192-4.096c-2.048-2.048-4.096-4.096-4.096-8.192v-38.912h-96.256c0 0 0 0 0 0-2.048 0-6.144 0-8.192 0-6.144-2.048-12.288-4.096-18.432-10.24-8.192-8.192-10.24-16.384-10.24-26.624s4.096-18.432 10.24-26.624c8.192-8.192 16.384-10.24 26.624-10.24 8.192 0 16.384-4.096 22.528-10.24s10.24-14.336 10.24-22.528c0-8.192-4.096-16.384-10.24-22.528s-14.336-10.24-22.528-10.24c-8.192 0-16.384 4.096-22.528 10.24s-10.24 14.336-10.24 22.528c0 4.096-2.048 6.144-4.096 8.192s-4.096 4.096-8.192 4.096c-4.096 0-6.144-2.048-8.192-4.096s-4.096-4.096-4.096-8.192c0-14.336 6.144-28.672 16.384-38.912s22.528-16.384 38.912-16.384c14.336 0 28.672 6.144 38.912 16.384s16.384 22.528 16.384 38.912c0 14.336-6.144 28.672-16.384 38.912s-22.528 16.384-38.912 16.384c-4.096 0-8.192 2.048-10.24 4.096s-4.096 6.144-4.096 10.24c0 4.096 2.048 8.192 4.096 10.24s4.096 2.048 6.144 4.096h71.68c0 0 2.048 0 2.048 0h26.624v-126.976c0-4.096 2.048-6.144 4.096-8.192 4.096-4.096 6.144-4.096 10.24-4.096s6.144 2.048 8.192 4.096c2.048 2.048 4.096 4.096 4.096 8.192v126.976h24.576c4.096 0 6.144 2.048 8.192 4.096s4.096 4.096 4.096 8.192c0 2.048-2.048 4.096-4.096 6.144zM317.44 495.104c-4.096 0-6.144-2.048-8.192-4.096s-2.048-4.096-2.048-8.192v-188.416c0-4.096 2.048-6.144 4.096-8.192s4.096-4.096 8.192-4.096 6.144 2.048 8.192 4.096c2.048 2.048 4.096 4.096 4.096 8.192v188.416c0 4.096-2.048 6.144-4.096 8.192-4.096 2.048-6.144 4.096-10.24 4.096zM491.52 419.328c-16.384 16.384-34.816 22.528-57.344 22.528s-40.96-8.192-57.344-22.528c-16.384-16.384-22.528-34.816-22.528-57.344s8.192-40.96 22.528-57.344c16.384-16.384 34.816-22.528 57.344-22.528s40.96 8.192 57.344 22.528c16.384 16.384 22.528 34.816 22.528 57.344 0 24.576-6.144 43.008-22.528 57.344zM475.136 323.072c-10.24-10.24-24.576-16.384-40.96-16.384s-28.672 6.144-40.96 16.384c-10.24 10.24-16.384 24.576-16.384 40.96s6.144 28.672 16.384 40.96c10.24 10.24 24.576 16.384 40.96 16.384s28.672-6.144 40.96-16.384c10.24-10.24 16.384-24.576 16.384-40.96s-6.144-28.672-16.384-40.96zM663.552 419.328c-16.384 16.384-34.816 22.528-57.344 22.528s-40.96-8.192-57.344-22.528c-16.384-16.384-22.528-34.816-22.528-55.296v-139.264c0-4.096 2.048-6.144 4.096-8.192s4.096-4.096 8.192-4.096c4.096 0 6.144 2.048 8.192 4.096s4.096 4.096 4.096 8.192v79.872l10.24-6.144c14.336-10.24 28.672-16.384 47.104-16.384 22.528 0 40.96 8.192 57.344 22.528 16.384 16.384 22.528 34.816 22.528 57.344-2.048 24.576-10.24 43.008-24.576 57.344zM647.168 323.072c-10.24-10.24-24.576-16.384-40.96-16.384s-28.672 6.144-40.96 16.384c-10.24 10.24-14.336 20.48-16.384 32.768v0 6.144c0 0 0 2.048 0 2.048v0 0c0 14.336 6.144 26.624 16.384 36.864s24.576 16.384 40.96 16.384c16.384 0 28.672-6.144 40.96-16.384 10.24-10.24 16.384-24.576 16.384-40.96 0-12.288-6.144-24.576-16.384-36.864zM720.896 306.688c16.384-16.384 34.816-22.528 57.344-22.528s40.96 8.192 57.344 22.528v0c2.048 2.048 4.096 4.096 4.096 8.192s-2.048 6.144-4.096 8.192c-2.048 2.048-4.096 4.096-8.192 4.096s-6.144-2.048-8.192-4.096v0c-10.24-10.24-24.576-16.384-40.96-16.384s-28.672 6.144-40.96 16.384c-10.24 10.24-16.384 24.576-16.384 40.96s6.144 28.672 16.384 40.96c10.24 10.24 24.576 16.384 40.96 16.384 8.192 0 16.384-2.048 22.528-4.096l8.192-4.096-40.96-40.96c-2.048-2.048-4.096-4.096-4.096-8.192s2.048-6.144 4.096-8.192c2.048-2.048 4.096-4.096 8.192-4.096s6.144 2.048 8.192 4.096l49.152 49.152c2.048 2.048 4.096 4.096 4.096 8.192 0 2.048 0 4.096-2.048 6.144l-4.096 4.096c-14.336 14.336-32.768 22.528-55.296 22.528s-40.96-8.192-57.344-22.528c-14.336-18.432-22.528-36.864-22.528-59.392s8.192-40.96 24.576-57.344zM1001.472 304.64h-110.592l118.784 114.688c2.048 2.048 4.096 4.096 4.096 8.192s-2.048 6.144-4.096 8.192c-2.048 2.048-4.096 4.096-8.192 4.096h-129.024c-4.096 0-6.144 0-8.192-4.096-4.096-2.048-4.096-6.144-4.096-8.192 0-4.096 2.048-6.144 4.096-8.192s4.096-4.096 8.192-4.096h102.4l-118.784-114.688c-2.048-2.048-4.096-4.096-4.096-8.192s2.048-6.144 4.096-8.192c2.048-2.048 4.096-4.096 8.192-4.096h137.216c4.096 0 6.144 2.048 8.192 4.096s4.096 4.096 4.096 8.192c0 4.096-2.048 6.144-4.096 8.192-4.096 4.096-6.144 4.096-8.192 4.096zM722.944 243.2v0c2.048 0 2.048 0 4.096 0h-4.096z" />
<glyph unicode="&#xe9b2;" d="M75.776 511.488h917.504v-174.080h-917.504v174.080z" />
<glyph unicode="&#xe9b3;" d="M997.376 333.312h-927.744v184.32h929.792v-184.32zM79.872 343.552h905.216v161.792h-905.216v-161.792z" />
<glyph unicode="&#xe9b4;" d="M30.72 556.544h917.504v-174.080h-917.504v174.080z" />
<glyph unicode="&#xe9b5;" d="M954.368 378.368h-927.744v184.32h929.792v-184.32zM36.864 390.656h905.216v161.792h-905.216v-161.792z" />
</font>
</defs>
</svg>
