<?xml version="1.0" encoding="utf-8"?>
<!-- Generator: Adobe Illustrator 19.2.1, SVG Export Plug-In . SVG Version: 6.00 Build 0)  -->
<svg version="1.1" id="Capa_1" xmlns="http://www.w3.org/2000/svg" xmlns:xlink="http://www.w3.org/1999/xlink" x="0px" y="0px"
	 viewBox="0 0 50 27.4" style="enable-background:new 0 0 50 27.4;" xml:space="preserve">
<style type="text/css">
	.st0{fill:#FFFFFF;}
</style>
<g>
	<g>
		<path class="st0" d="M7.2,10.5c-0.1-0.1-0.2-0.2-0.4-0.2c-0.2,0-0.3,0.1-0.4,0.2l0,0c-0.5,0.5-1.2,0.8-2,0.8S3,11,2.4,10.5
			c-0.5-0.5-0.8-1.2-0.8-2s0.3-1.4,0.8-2c0.5-0.5,1.2-0.8,2-0.8c0.7,0,1.4,0.2,1.9,0.7l0,0l0.1,0.1c0.1,0.1,0.2,0.2,0.4,0.2
			c0.2,0,0.3-0.1,0.4-0.2s0.2-0.2,0.2-0.4c0-0.2,0-0.3-0.1-0.4L7.2,5.6C6.4,4.9,5.6,4.5,4.5,4.5s-2,0.4-2.8,1.1
			C0.9,6.4,0.6,7.3,0.6,8.4s0.4,2,1.1,2.8c0.7,0.9,1.6,1.3,2.7,1.3s2-0.4,2.8-1.1l0,0l0,0c0.1-0.1,0.2-0.2,0.2-0.4
			C7.4,10.8,7.3,10.6,7.2,10.5z"/>
		<path class="st0" d="M15.1,3.1c0.1,0.1,0.2,0.2,0.4,0.2s0.3-0.1,0.4-0.2C16,3,16.1,2.9,16.1,2.7S16,2.4,15.9,2.3
			c-0.1-0.1-0.2-0.2-0.4-0.2s-0.3,0.1-0.4,0.2C15,2.4,15,2.5,15,2.6C15,2.8,15,2.9,15.1,3.1z"/>
		<g>
			<path class="st0" d="M30.9,5.2c0-0.2-0.1-0.3-0.2-0.4s-0.2-0.2-0.4-0.2S30,4.7,29.9,4.8S29.7,5,29.7,5.2v6.7
				c0,0.2,0.1,0.3,0.2,0.4s0.2,0.2,0.4,0.2s0.3-0.1,0.4-0.2s0.2-0.2,0.2-0.4C30.9,11.9,30.9,5.2,30.9,5.2z"/>
			<path class="st0" d="M30,3.1c0.1,0.1,0.2,0.2,0.4,0.2s0.3-0.1,0.4-0.2C30.9,3,31,2.9,31,2.7s-0.1-0.3-0.2-0.4
				c-0.1-0.1-0.2-0.2-0.4-0.2S30.1,2.2,30,2.3s-0.2,0.2-0.2,0.4C29.8,2.8,29.8,2.9,30,3.1z"/>
		</g>
		<path class="st0" d="M40.3,8.5c0-1.1-0.4-2-1.1-2.7c-0.8-0.8-1.7-1.1-2.8-1.1s-2,0.4-2.8,1.1c-0.8,0.8-1.1,1.7-1.1,2.8
			s0.4,2,1.1,2.8c0.8,0.8,1.7,1.1,2.8,1.1c0.9,0,1.7-0.3,2.3-0.8l0.5-0.3V12c0,0.1,0,0.3,0.1,0.4s0.3,0.1,0.5,0.1s0.3,0,0.5-0.1
			c0.1-0.1,0.1-0.3,0.1-0.4L40.3,8.5L40.3,8.5z M39.2,8.4v0.1v0.3l0,0l0,0c-0.1,0.6-0.3,1.2-0.8,1.6c-0.5,0.5-1.2,0.8-2,0.8
			s-1.4-0.3-2-0.8c-0.5-0.5-0.8-1.2-0.8-2s0.3-1.4,0.8-2c0.5-0.5,1.2-0.8,2-0.8s1.4,0.3,2,0.8C38.9,7.1,39.1,7.7,39.2,8.4L39.2,8.4
			L39.2,8.4z"/>
		<path class="st0" d="M49.5,8.5c0-1.1-0.4-2-1.1-2.7c-0.7-0.7-1.6-1.1-2.7-1.2h-0.1c-1.1,0.1-2,0.5-2.7,1.2
			c-0.9,0.7-1.3,1.6-1.3,2.7v3.3c0,0.2,0.1,0.4,0.2,0.5c0.1,0.1,0.2,0.2,0.4,0.2s0.3-0.1,0.4-0.2c0.1-0.1,0.2-0.3,0.2-0.5V8.5V8.4
			l0,0l0,0c0-0.7,0.3-1.3,0.8-1.8s1.2-0.8,2-0.8l0,0c0.8,0,1.4,0.3,2,0.8c0.5,0.5,0.8,1.1,0.8,1.8l0,0l0,0v0.1v3.3
			c0,0.2,0.1,0.4,0.2,0.5c0.1,0.1,0.2,0.2,0.4,0.2s0.3-0.1,0.4-0.2c0.1-0.1,0.2-0.3,0.2-0.5V8.5H49.5z"/>
		<path class="st0" d="M16,4.9c-0.1-0.2-0.3-0.3-0.5-0.3h-2.8l0,0C11.6,4.7,10.6,5,9.9,5.8C9.2,6.5,8.8,7.4,8.8,8.5v3.3
			c0,0.2,0.1,0.4,0.2,0.5c0.1,0.1,0.2,0.2,0.3,0.2c0.2,0,0.3-0.1,0.4-0.2c0.1-0.1,0.2-0.3,0.2-0.5V8.5V8.4l0,0l0,0
			c0-0.7,0.3-1.3,0.8-1.8s1.2-0.8,2-0.8l0,0H15v6.1c0,0.2,0.1,0.3,0.2,0.4c0.1,0.1,0.2,0.2,0.4,0.2s0.3-0.1,0.4-0.2s0.2-0.2,0.2-0.4
			V5.8V5.2l0,0C16.1,5.1,16.1,5,16,4.9z"/>
		<path class="st0" d="M28.2,4.8c-0.1-0.1-0.2-0.2-0.4-0.2H27h-0.1h-0.3l0,0V4.3V2.7c0-0.2-0.1-0.3-0.2-0.4
			c-0.1-0.1-0.2-0.2-0.4-0.2s-0.3,0.1-0.4,0.2c-0.1,0.1-0.2,0.2-0.2,0.4v1.6v0.3h-4.7l0,0l0,0c-0.1,0-0.3,0-0.4,0
			c-0.3,0.1-0.6,0.2-0.9,0.5c-0.4,0.4-0.5,0.8-0.5,1.3s0.2,0.9,0.5,1.3c0.4,0.4,0.8,0.5,1.3,0.5c0.4,0,0.8,0.2,1.1,0.5
			c0.3,0.3,0.5,0.7,0.5,1.1s-0.2,0.8-0.5,1.1s-0.7,0.5-1.1,0.5s-0.8-0.2-1.1-0.5c-0.3-0.3-0.5-0.7-0.5-1.1c0-0.2-0.1-0.3-0.2-0.4
			s-0.2-0.2-0.4-0.2c-0.2,0-0.3,0.1-0.4,0.2s-0.2,0.2-0.2,0.4c0,0.7,0.3,1.4,0.8,1.9s1.1,0.8,1.9,0.8c0.7,0,1.4-0.3,1.9-0.8
			s0.8-1.1,0.8-1.9c0-0.7-0.3-1.4-0.8-1.9s-1.1-0.8-1.9-0.8c-0.2,0-0.4-0.1-0.5-0.2s-0.2-0.3-0.2-0.5S20,6,20.1,5.9s0.2-0.1,0.3-0.2
			h3.5H24h1h0.3V6v5.9c0,0.2,0.1,0.3,0.2,0.4c0.2,0.2,0.3,0.2,0.5,0.2s0.3-0.1,0.4-0.2s0.2-0.2,0.2-0.4V6V5.7h0.3h0.9
			c0.2,0,0.3-0.1,0.4-0.2s0.2-0.2,0.2-0.4C28.4,5,28.3,4.9,28.2,4.8z"/>
	</g>
	<path class="st0" d="M15.5,11.2c-0.2,0-0.3,0.1-0.4,0.2C15,11.5,15,11.6,15,11.8V21c0,0.2,0.1,0.3,0.2,0.4c0.1,0.1,0.2,0.2,0.4,0.2
		s0.3-0.1,0.4-0.2s0.2-0.2,0.2-0.4v-9.2c0-0.2-0.1-0.3-0.2-0.4C15.8,11.3,15.7,11.2,15.5,11.2z"/>
	<path class="st0" d="M24,14.9c-0.8-0.8-1.7-1.1-2.8-1.1c-1.1,0-2,0.4-2.8,1.1c-0.8,0.8-1.1,1.7-1.1,2.8c0,1.1,0.4,2,1.1,2.8
		c0.8,0.8,1.7,1.1,2.8,1.1c1.1,0,2-0.4,2.8-1.1c0.8-0.8,1.1-1.7,1.1-2.8C25.1,16.5,24.8,15.6,24,14.9z M23.2,19.6
		c-0.5,0.5-1.2,0.8-2,0.8s-1.4-0.3-2-0.8c-0.5-0.5-0.8-1.2-0.8-2s0.3-1.4,0.8-2c0.5-0.5,1.2-0.8,2-0.8s1.4,0.3,2,0.8
		c0.5,0.5,0.8,1.2,0.8,2S23.7,19,23.2,19.6z"/>
	<path class="st0" d="M32.4,14.9c-0.8-0.8-1.7-1.1-2.8-1.1c-1.1,0-2,0.4-2.8,1.1c-0.8,0.8-1.1,1.7-1.1,2.7v6.8
		c0,0.2,0.1,0.3,0.2,0.4s0.2,0.2,0.4,0.2c0.2,0,0.3-0.1,0.4-0.2s0.2-0.2,0.2-0.4v-3.9l0.5,0.3c0.7,0.5,1.4,0.8,2.3,0.8
		c1.1,0,2-0.4,2.8-1.1c0.8-0.8,1.1-1.7,1.1-2.8C33.5,16.5,33.1,15.6,32.4,14.9z M31.6,19.6c-0.5,0.5-1.2,0.8-2,0.8s-1.4-0.3-2-0.8
		c-0.5-0.5-0.7-1-0.8-1.6l0,0v-0.3v-0.1l0,0l0,0c0-0.7,0.3-1.3,0.8-1.8s1.2-0.8,2-0.8s1.4,0.3,2,0.8c0.5,0.5,0.8,1.2,0.8,2
		C32.4,18.4,32.1,19,31.6,19.6z"/>
	<path class="st0" d="M35.2,20.4c0.8,0.8,1.7,1.1,2.8,1.1s2-0.4,2.8-1.1l0,0c0.1-0.1,0.2-0.2,0.2-0.4c0-0.2-0.1-0.3-0.2-0.4
		c-0.1-0.1-0.2-0.2-0.4-0.2s-0.3,0.1-0.4,0.2l0,0c-0.5,0.5-1.2,0.8-2,0.8s-1.4-0.3-2-0.8c-0.5-0.5-0.8-1.2-0.8-2s0.3-1.4,0.8-2
		c0.5-0.5,1.2-0.8,2-0.8c0.4,0,0.8,0.1,1.1,0.2l0.4,0.2l-2,2c-0.1,0.1-0.2,0.2-0.2,0.4c0,0.2,0.1,0.3,0.2,0.4
		c0.1,0.1,0.2,0.2,0.4,0.2s0.3-0.1,0.4-0.2l2.4-2.4c0.1-0.1,0.2-0.2,0.2-0.4c0-0.1,0-0.2-0.1-0.3l-0.2-0.2c-0.7-0.7-1.6-1.1-2.7-1.1
		c-1.1,0-2,0.4-2.8,1.1c-0.7,0.9-1.1,1.8-1.1,2.9S34.4,19.6,35.2,20.4z"/>
	<path class="st0" d="M48.9,20.5h-5.4l5.8-5.6c0.1-0.1,0.2-0.2,0.2-0.4s-0.1-0.3-0.2-0.4c-0.1-0.1-0.2-0.2-0.4-0.2h-6.3
		c-0.2,0-0.3,0-0.4,0.2C42,14.2,42,14.4,42,14.5c0,0.2,0.1,0.3,0.2,0.4c0.1,0.1,0.2,0.2,0.4,0.2h5l-5.8,5.6
		c-0.1,0.1-0.2,0.2-0.2,0.4s0.1,0.3,0.2,0.4c0.1,0.1,0.2,0.2,0.4,0.2h6.7c0.2,0,0.3-0.1,0.4-0.2c0.1-0.1,0.2-0.2,0.2-0.4
		s-0.1-0.3-0.2-0.4C49.1,20.5,49,20.5,48.9,20.5z"/>
	<path class="st0" d="M35.3,23.5L35.3,23.5c0.1,0,0.1,0,0.2,0H35.3z"/>
</g>
</svg>
